<svg xmlns="http://www.w3.org/2000/svg" viewBox="0 0 90.86 119.44"><defs><style>.a,.d{fill:#fff;}.b,.f,.g,.h,.i{fill:none;}.b{stroke:#375daa;stroke-miterlimit:10;}.c{fill:#e2c621;}.d,.f,.g,.h,.i{stroke:#231f20;}.d,.h{stroke-width:0.25px;}.e{fill:#231f20;}.f{stroke-width:0.5px;}.g{stroke-width:0.25px;}.i{stroke-width:0.17px;}</style></defs><title>Algood_Gul</title><path class="a" d="M81.5,103.79l-27.38,31a.54.54,0,0,1-.78,0L27,104.47a41.86,41.86,0,0,1-7.28-11.8c-4.62-11.5-11-68.83-11-68.83,0-5.95,37.65-8.4,46.36-8.37,8,0,44.5,3.07,44.5,9,0,0-6.68,58-10.83,67.92A41.46,41.46,0,0,1,81.5,103.79Z" transform="translate(-8.71 -15.47)"/><path class="b" d="M54.32,16c8,0,44.11,3.05,44.11,8.94,0,0-6.61,57.52-10.73,67.34a41.43,41.43,0,0,1-7.17,11.28L53.38,134.23a.5.5,0,0,1-.39.16" transform="translate(-8.71 -15.47)"/><path class="c" d="M53.8,134.91,27.05,104.47a41.63,41.63,0,0,1-7.28-11.8c-4.63-11.5-11-68.83-11-68.83,0-5.95,37.66-8.4,46.37-8.37" transform="translate(-8.71 -15.47)"/><path class="d" d="M73.58,59.79A17.57,17.57,0,0,0,76,56.42,27.93,27.93,0,0,1,78.56,60a16.81,16.81,0,0,1-1.38,1.77,18.83,18.83,0,0,1-1.52,1.57,19.71,19.71,0,0,0-1-1.88A16.41,16.41,0,0,0,73.58,59.79Z" transform="translate(-8.71 -15.47)"/><path class="e" d="M76.09,58.05a17.48,17.48,0,0,1-1.35,1.79,20.09,20.09,0,0,1,1.17,1.92l.77-.86c.32-.37.59-.76.72-.93C77.18,59.6,76.34,58.33,76.09,58.05Z" transform="translate(-8.71 -15.47)"/><path class="f" d="M78,61.8l-.77.89c-.33.37-.7.71-.85.85a22.44,22.44,0,0,1,.88,2.23A20.32,20.32,0,0,0,79,64.07,23.7,23.7,0,0,0,78,61.8Z" transform="translate(-8.71 -15.47)"/><path class="f" d="M76.1,69.07c-.33.23-1.69,1-2,1.21.08.4.26,2,.28,2.35.35-.16,1.79-.91,2.16-1.15C76.46,71.05,76.2,69.45,76.1,69.07Z" transform="translate(-8.71 -15.47)"/><path class="f" d="M73.87,61.31a18,18,0,0,1-1.61,1.41,21.25,21.25,0,0,1,.93,1.92,21.6,21.6,0,0,0,1.74-1.39C74.78,62.88,74.06,61.6,73.87,61.31Z" transform="translate(-8.71 -15.47)"/><path class="f" d="M72.21,67.46c-.31.19-1.58.84-1.92,1,.1.36.39,1.78.43,2.14.33-.12,1.66-.75,2-.94C72.67,69.24,72.32,67.8,72.21,67.46Z" transform="translate(-8.71 -15.47)"/><path class="g" d="M68.7,41.27a14.13,14.13,0,0,0-.81-1.76c.25.17,1.4.8,1.73,1a28,28,0,0,1,4.83,6.71,16.54,16.54,0,0,1-.18,2.14L72.63,48A31.27,31.27,0,0,0,68.7,41.27Z" transform="translate(-8.71 -15.47)"/><path class="g" d="M70.68,44.2a17.61,17.61,0,0,0-.41-2c.26.17,1.41.88,1.76,1.06A27.87,27.87,0,0,1,76,50.63c-.08.39-.46,1.81-.58,2.13l-1.58-1.44A29.61,29.61,0,0,0,70.68,44.2Z" transform="translate(-8.71 -15.47)"/><path class="h" d="M78.56,60a31.78,31.78,0,0,0-5.31-6.54" transform="translate(-8.71 -15.47)"/><path class="h" d="M73.58,59.79a17.92,17.92,0,0,0,4-7.33" transform="translate(-8.71 -15.47)"/><path class="h" d="M73.58,59.79a17.92,17.92,0,0,0,4-7.33c0-.19-.12-.38-.18-.57a27.36,27.36,0,0,0-4.36-8.41l-3.4-2a11.82,11.82,0,0,1,.73,3.71,30.85,30.85,0,0,1,2.77,7.9c0,.14.07.27.09.41A31.78,31.78,0,0,1,78.56,60" transform="translate(-8.71 -15.47)"/><path class="i" d="M69,42.09a29.7,29.7,0,0,1,2.74,4.8A28.24,28.24,0,0,1,73.6,52l1,.94,1,1c.71.69,1.34,1.45,2,2.25" transform="translate(-8.71 -15.47)"/><path class="i" d="M74.33,56.54A16.79,16.79,0,0,0,75.62,54c.18-.44.36-.91.51-1.37s.25-.94.36-1.41A26,26,0,0,0,74,45.72,25.56,25.56,0,0,0,70.38,41" transform="translate(-8.71 -15.47)"/><path class="g" d="M56.63,86.88a17.85,17.85,0,0,1-1.15,1.58c.28-.12,1.52-.5,1.87-.58A70.75,70.75,0,0,0,64,83.19c.16-.34.64-1.66.73-2l-2.06.48C60.75,83.47,58.71,85.18,56.63,86.88Z" transform="translate(-8.71 -15.47)"/><path class="g" d="M59.4,84.58a19.66,19.66,0,0,1-1,1.76c.31-.09,1.62-.4,2-.46a57.57,57.57,0,0,0,6.41-5.1c.12-.36.44-1.78.49-2.14l-2.09.52A78.7,78.7,0,0,1,59.4,84.58Z" transform="translate(-8.71 -15.47)"/><path class="h" d="M73.83,74.29a59.15,59.15,0,0,1-8,2.66" transform="translate(-8.71 -15.47)"/><path class="h" d="M69.61,71.63A25,25,0,0,1,69.1,80" transform="translate(-8.71 -15.47)"/><path class="h" d="M69.61,71.63A25,25,0,0,1,69.1,80l-.42.4a48,48,0,0,1-7.25,5.65,34.19,34.19,0,0,0-3.8.87,18.63,18.63,0,0,0,1.83-3.39,79,79,0,0,0,6.06-6.25l.29-.34a59.15,59.15,0,0,0,8-2.66" transform="translate(-8.71 -15.47)"/><path class="i" d="M57.18,86.16a91.25,91.25,0,0,0,8.21-7.71c1.78-.46,3.66-.93,5.61-1.57" transform="translate(-8.71 -15.47)"/><path class="i" d="M68.37,74.83a24.18,24.18,0,0,1-.82,5.75,58.66,58.66,0,0,1-9.34,7" transform="translate(-8.71 -15.47)"/><path class="d" d="M72.31,65.91a21.13,21.13,0,0,0,3.35-2.52,25.26,25.26,0,0,1,1.51,4.21A26.36,26.36,0,0,1,73.39,70,24,24,0,0,0,72.31,65.91Z" transform="translate(-8.71 -15.47)"/><path class="d" d="M69.57,71.7A37.16,37.16,0,0,0,73.38,70a26.23,26.23,0,0,1,.4,4.38c-1.4.59-2.78,1.08-4.12,1.51A25.41,25.41,0,0,0,69.57,71.7Z" transform="translate(-8.71 -15.47)"/><path class="e" d="M75.3,64.94c-.3.25-1.51,1.13-1.85,1.33a21.64,21.64,0,0,1,.64,2.18,22,22,0,0,0,2-1.29C76,66.75,75.44,65.28,75.3,64.94Z" transform="translate(-8.71 -15.47)"/><path class="e" d="M72.67,71.36c-.34.17-1.72.76-2.08.89,0,.39.11,1.89.09,2.26.35-.12,1.78-.67,2.17-.84C72.85,73.26,72.73,71.73,72.67,71.36Z" transform="translate(-8.71 -15.47)"/><path class="g" d="M69.66,41.47a28,28,0,0,0-6.4-5.74" transform="translate(-8.71 -15.47)"/><path class="g" d="M57.56,87c-1.16.85-2.34,1.67-3.52,2.5a13.31,13.31,0,0,1-1.83,1.14l-1.89,1" transform="translate(-8.71 -15.47)"/><path class="d" d="M30.08,60.48a31.3,31.3,0,0,1,2.61-3.8,19.49,19.49,0,0,0,2.37,3.6A24.11,24.11,0,0,0,33,64.05,21.32,21.32,0,0,1,30.08,60.48Z" transform="translate(-8.71 -15.47)"/><path class="e" d="M32.57,58.41c-.24.29-1.1,1.63-1.33,2a21,21,0,0,0,1.49,1.91c.16-.36,1-1.69,1.16-2C33.64,60,32.75,58.75,32.57,58.41Z" transform="translate(-8.71 -15.47)"/><path class="f" d="M34.76,61.9c-.2.3-.88,1.65-1,2a21.52,21.52,0,0,0,1.77,1.49c.11-.35.73-1.69.9-2A21.23,21.23,0,0,1,34.76,61.9Z" transform="translate(-8.71 -15.47)"/><path class="f" d="M36.53,68.4a22.27,22.27,0,0,0-.43,2.27l1.06.5,1,.42c0-.18.07-.64.11-1.1s.16-.91.2-1.1A21.5,21.5,0,0,1,36.53,68.4Z" transform="translate(-8.71 -15.47)"/><path class="f" d="M30.64,62.36c-.2.36-.88,1.93-1,2.38a22.23,22.23,0,0,0,1.81,1.82c.1-.4.68-2,.86-2.34l-.85-.91C31.09,62.93,30.77,62.52,30.64,62.36Z" transform="translate(-8.71 -15.47)"/><path class="f" d="M32.66,70.08c-.07.4-.26,2.1-.25,2.56.2.12.68.39,1.15.64l1.15.56V72.6c0-.52.07-1,.09-1.24C34.42,71.18,33,70.32,32.66,70.08Z" transform="translate(-8.71 -15.47)"/><path class="g" d="M39.66,39.88c.34-.18,1.54-.85,1.82-1a12,12,0,0,0-.91,1.83,32.51,32.51,0,0,0-4.29,7.11l-1.7,1.37a20.6,20.6,0,0,1-.12-2.24A29.25,29.25,0,0,1,39.66,39.88Z" transform="translate(-8.71 -15.47)"/><path class="g" d="M37.08,42.84l1.83-1.13a14.62,14.62,0,0,0-.5,2A31.13,31.13,0,0,0,35,51.27c-.27.25-1.36,1.27-1.62,1.54a19.45,19.45,0,0,1-.53-2.25A29.24,29.24,0,0,1,37.08,42.84Z" transform="translate(-8.71 -15.47)"/><path class="h" d="M35.06,60.28a19.15,19.15,0,0,1-3.9-7.77" transform="translate(-8.71 -15.47)"/><path class="h" d="M30.08,60.48a33,33,0,0,1,5.43-6.91" transform="translate(-8.71 -15.47)"/><path class="h" d="M30.08,60.48a33,33,0,0,1,5.43-6.91l.1-.53a31.74,31.74,0,0,1,3-8.27,13.21,13.21,0,0,1,.92-3.85L36,43a28.71,28.71,0,0,0-4.7,9l-.15.51a19.15,19.15,0,0,0,3.9,7.77" transform="translate(-8.71 -15.47)"/><path class="i" d="M38.86,40.42a28.6,28.6,0,0,0-6.57,10.72,18.52,18.52,0,0,0,2.06,5.67" transform="translate(-8.71 -15.47)"/><path class="i" d="M31,56.45A39.65,39.65,0,0,1,35.18,52a31.25,31.25,0,0,1,5-10.48" transform="translate(-8.71 -15.47)"/><path class="g" d="M54.87,87.34a17.37,17.37,0,0,1,2,.46c-.24-.22-1.17-1.24-1.4-1.53-2.39-1.57-4.81-3.07-7.16-4.64-.37,0-1.83-.16-2.2-.18.16.33.92,1.59,1.14,1.91C49.76,84.78,52.32,86.06,54.87,87.34Z" transform="translate(-8.71 -15.47)"/><path class="g" d="M51.44,85.6c.39,0,1.79.21,2.12.28-.23-.25-1.09-1.37-1.31-1.69-2.39-1.54-4.77-3.08-7.06-4.71l-2.26-.17c.14.36.8,1.72,1,2.06C46.37,82.92,48.89,84.29,51.44,85.6Z" transform="translate(-8.71 -15.47)"/><path class="h" d="M39.41,72.59a17.85,17.85,0,0,0,.45,4.26A18.06,18.06,0,0,0,40.52,79c.28.69.61,1.41.92,2" transform="translate(-8.71 -15.47)"/><path class="h" d="M35.41,75.58a26.55,26.55,0,0,0,4.45,1.27c.72.14,1.44.24,2.12.32l2.06.17" transform="translate(-8.71 -15.47)"/><path class="h" d="M35.41,75.58a26.55,26.55,0,0,0,4.45,1.27c.72.14,1.44.24,2.12.32l2.06.17.45.35c2.42,1.88,4.95,3.66,7.52,5.46a26.84,26.84,0,0,0,2.45,3.23,28.79,28.79,0,0,0-4.05-.47,80.23,80.23,0,0,1-8.54-4.62L41.44,81c-.31-.63-.64-1.35-.92-2a18.06,18.06,0,0,1-.66-2.13,17.85,17.85,0,0,1-.45-4.26" transform="translate(-8.71 -15.47)"/><path class="i" d="M53.94,87.1a106.33,106.33,0,0,1-10.81-5.8,20.28,20.28,0,0,1-2.08-5.62" transform="translate(-8.71 -15.47)"/><path class="i" d="M38.75,78.1a47.35,47.35,0,0,0,6.09.69c3.2,2.37,6.59,4.53,10,6.79" transform="translate(-8.71 -15.47)"/><path class="d" d="M31.55,68.5A25.16,25.16,0,0,1,33,64.08a21.38,21.38,0,0,0,3.41,2.7A20.47,20.47,0,0,0,35.47,71,23.63,23.63,0,0,1,31.55,68.5Z" transform="translate(-8.71 -15.47)"/><path class="d" d="M35.48,75.67a20.39,20.39,0,0,1,0-4.62,24.78,24.78,0,0,0,4,1.61,16.91,16.91,0,0,0,.47,4.26A27.4,27.4,0,0,1,35.48,75.67Z" transform="translate(-8.71 -15.47)"/><path class="e" d="M33.38,65.71c-.14.36-.63,1.91-.71,2.34.33.29,1.69,1.19,2,1.38.08-.4.43-1.91.58-2.29C34.91,66.93,33.68,66,33.38,65.71Z" transform="translate(-8.71 -15.47)"/><path class="e" d="M36.3,72.46a22.13,22.13,0,0,0,0,2.43c.43.16,1.95.65,2.32.72a22.44,22.44,0,0,1-.19-2.32C38.11,73.17,36.65,72.64,36.3,72.46Z" transform="translate(-8.71 -15.47)"/><path class="g" d="M39.58,40.92a26,26,0,0,1,7-5.89" transform="translate(-8.71 -15.47)"/><path class="g" d="M54.54,86.42a66.82,66.82,0,0,1,7.71,4.94" transform="translate(-8.71 -15.47)"/></svg>