<svg xmlns="http://www.w3.org/2000/svg" viewBox="0 0 91.29 120.44"><defs><style>.a,.e,.g{fill:none;}.b{fill:#fff;}.b,.e{stroke:#e2c621;}.b,.c,.e,.g{stroke-miterlimit:10;}.c,.f{fill:#7e1917;}.c,.g{stroke:#7e1917;}.d{fill:#e2c621;}</style></defs><title>Hand_Dark_Red</title><path class="a" d="M84.41,106,57,137a.56.56,0,0,1-.79,0L29.88,106.67a41.64,41.64,0,0,1-7.27-11.79c-4.63-11.5-11-68.83-11-68.83,0-5.95,37.65-8.4,46.36-8.37,8,0,44.5,3.06,44.5,9,0,0-6.68,58-10.83,67.92A41.23,41.23,0,0,1,84.41,106Z" transform="translate(-11.17 -17.17)"/><path class="b" d="M56.7,137.12,30,106.67a41.67,41.67,0,0,1-7.28-11.79c-4.63-11.5-11-68.83-11-68.83,0-5.95,37.66-8.4,46.37-8.37" transform="translate(-11.17 -17.17)"/><path class="c" d="M57,17.68c8,0,44.49,3.06,44.49,9,0,0-6.67,58-10.83,67.92A41,41,0,0,1,83.47,106L56.09,137a.52.52,0,0,1-.39.17" transform="translate(-11.17 -17.17)"/><path class="d" d="M56.15,96.61c1.16,0,2.32-.13,3.47-.25a7.91,7.91,0,0,0,1.62-.29,3.84,3.84,0,0,0,1.35-.75A3,3,0,0,0,63.12,94c.12-.59.28-1.17.42-1.72a9.54,9.54,0,0,0,.3-1.6c0-.22,0-.61.08-.91s.12-.63.22-.93c.78-2.47,2.47-4.26,3.64-6.12a9.82,9.82,0,0,0,1.32-2.9,14.62,14.62,0,0,0,.44-3.21c0-2.21-.13-4.56-.16-6.87s-.14-4.64-.16-7a9.39,9.39,0,0,0-.31-3.09A1.51,1.51,0,0,0,67,58.85a3.13,3.13,0,0,0-1.86,2,11,11,0,0,0-.52,3.24l-.06,1.21-.8-.85a13.28,13.28,0,0,0-7.21-3.82,12.57,12.57,0,0,1,7.92,3.08l-.87.36a12.3,12.3,0,0,1,.3-3.63,4.9,4.9,0,0,1,.91-1.77,3.81,3.81,0,0,1,1.69-1.25,3.28,3.28,0,0,1,2.25,0,3.08,3.08,0,0,1,1.71,1.56,5.63,5.63,0,0,1,.49,2c0,.64.07,1.19.1,1.77.13,2.32.2,4.63.3,6.95s.22,4.6.13,7a14.89,14.89,0,0,1-.56,3.65,11.59,11.59,0,0,1-1.66,3.36c-1.36,2-3,3.61-3.75,5.58a7.16,7.16,0,0,0-.23.75c0,.27-.09.45-.13.81a10.28,10.28,0,0,1-.48,1.78c-.2.56-.39,1.08-.55,1.63A3.51,3.51,0,0,1,63.19,96a4.53,4.53,0,0,1-1.73.77,7.23,7.23,0,0,1-1.82.13C58.47,96.83,57.31,96.73,56.15,96.61Z" transform="translate(-11.17 -17.17)"/><path class="e" d="M56.23,84.19c1.45,2.15,3.11,4,3.89,4.18" transform="translate(-11.17 -17.17)"/><path class="e" d="M56.65,39.07a1.65,1.65,0,0,1,1.62.54,3.32,3.32,0,0,1,.36,2.21c-.06,1.19,0,2.38,0,3.58.2,5.16.17,10.39.17,15.27l1.43.6a125.58,125.58,0,0,1-.89-17.66c0-1,.19-2.3,1.1-2.79a2.89,2.89,0,0,1,1.93-.09,1.11,1.11,0,0,1,.77.35,1.18,1.18,0,0,1,.18.62,132.18,132.18,0,0,1,.25,21.15l.56,1.51c.25,1.92.45,4.08-.75,5.61A9.54,9.54,0,0,1,61,71.86c-.93.61-1.8,1.33-2.77,1.87-.54.3-1.1.54-1.63.86" transform="translate(-11.17 -17.17)"/><path class="f" d="M56.55,60.62a13,13,0,0,0-6.28,1.44,11.92,11.92,0,0,0-4.5,4.3,13,13,0,0,0-1.91,5.86c-.21,2,.45,4,.72,6.42.09,1.18.05,2.3.09,3.36a12.81,12.81,0,0,0,.12,1.55,5.09,5.09,0,0,0,.31,1.35,1.61,1.61,0,0,0,.69.77,7.26,7.26,0,0,0,1.38.48,8.57,8.57,0,0,1,1.71.64A6,6,0,0,1,50.41,88a8.06,8.06,0,0,1,.59.72,4.25,4.25,0,0,1,.51.87,4.18,4.18,0,0,1,.21,1.94c-.1,1.19-.42,2.28-.55,3.31-.08.51,0,1,.14,1a10.57,10.57,0,0,0,1.55.32c1.09.18,2.19.32,3.29.46-1.11.07-2.22.11-3.34.1a9.84,9.84,0,0,1-1.74-.14l-.31-.13a1.75,1.75,0,0,1-.23-.24,1.42,1.42,0,0,1-.25-.53,4,4,0,0,1-.09-1c0-1.18.24-2.26.22-3.29a3.41,3.41,0,0,0-.22-1.32,3.45,3.45,0,0,0-.38-.52,5.1,5.1,0,0,0-.5-.53,5.3,5.3,0,0,0-2.59-1.22A8,8,0,0,1,45,87.29a3.5,3.5,0,0,1-1.57-1.59,6.4,6.4,0,0,1-.5-1.86c-.09-.59-.14-1.18-.17-1.76-.05-1.14,0-2.24-.13-3.27-.16-2-.91-4.32-.6-6.77a13.86,13.86,0,0,1,2.49-6.54,12.18,12.18,0,0,1,5.39-4.32A11.74,11.74,0,0,1,56.55,60.62Z" transform="translate(-11.17 -17.17)"/><path class="g" d="M56.55,74.59c-1.46.89-3.2,2.33-3,4a15.56,15.56,0,0,0,2.67,5.57" transform="translate(-11.17 -17.17)"/><path class="g" d="M45.22,65.31a105.44,105.44,0,0,1-.39-14.76,2.81,2.81,0,0,1,.33-1.4,2.37,2.37,0,0,1,.8-.71,1.59,1.59,0,0,1,1.54-.26,1.65,1.65,0,0,1,.67,1.28c.65,4.09-.51,8.42.82,12.34l1.08-.36c-.5-.4-.56-1.67-.55-2.31.09-5.29.24-10.59.43-15.87a1.78,1.78,0,0,1,.45-1.36,3.39,3.39,0,0,1,1-.38,2.5,2.5,0,0,1,1.09-.38c.72.07.89,1,.87,1.75-.17,5.86-.34,11.72-.21,17.57l1.26,0c-.12-5.36.11-11.39,0-16.76a6,6,0,0,1,.69-3.62,2.48,2.48,0,0,1,1.57-1" transform="translate(-11.17 -17.17)"/></svg>