<svg xmlns="http://www.w3.org/2000/svg" viewBox="0 0 167.62 168.34"><defs><style>.a{fill:#fff;}.b{fill:gray;}.c{font-size:15px;}.c,.e{fill:#d5af30;font-family:GameofThrones, Game of Thrones;}.d{fill:#212121;}.e{font-size:10px;}.f{letter-spacing:-0.15em;}.g{letter-spacing:0.04em;}.h{letter-spacing:0.05em;}.i{letter-spacing:-0.04em;}.j{letter-spacing:0.07em;}.k{letter-spacing:-0.01em;}.l{letter-spacing:-0.02em;}.m{letter-spacing:0.05em;}.n{letter-spacing:0.05em;}</style></defs><title>Main_icon</title><line class="a" x1="21.73" x2="142.31" y2="127.8"/><path class="b" d="M20.13,10.12c1.57,1,3.08,2.13,4.62,3.19l4.51,3.29c3,2.19,6,4.44,8.88,6.72,5,5.38,10,10.67,15,16L83.33,71.27l30.15,32,15.07,16c4.14,6.16,8.31,12.29,12.16,18.72-6.19-4.23-12.07-8.74-18-13.23l-15.07-16L77.51,76.76,47.37,44.81c-5-5.31-10-10.67-15.11-15.94q-3.15-4.57-6.19-9.26l-3-4.7C22.08,13.31,21.07,11.74,20.13,10.12Z" transform="translate(1.6 -10.12)"/><text class="c" transform="translate(75.15 27.08)">o</text><text class="c" transform="translate(119.42 71.87)">T</text><text class="c" transform="translate(32.36 71.87)">G</text><text class="c" transform="translate(78.52 111.7)">f</text><line x1="22.18" y1="131.22" x2="141.86" y2="2.58"/><path class="d" d="M20.58,141.34c.93-1.63,1.92-3.21,2.88-4.82l3-4.72q3-4.71,6.13-9.29c5.05-5.31,10-10.71,15-16.06L77.49,74.29l29.92-32.16,15-16.08c5.87-4.53,11.72-9.09,17.88-13.35-3.81,6.45-7.93,12.61-12,18.8l-15,16.08L83.35,79.74,53.43,111.9c-5,5.38-10,10.7-14.93,16.11-2.91,2.3-5.84,4.57-8.83,6.79l-4.5,3.31C23.64,139.19,22.14,140.29,20.58,141.34Z" transform="translate(1.6 -10.12)"/><text class="e" transform="translate(30.12 151.84)"><tspan class="f">G</tspan><tspan class="g" x="8.27" y="0">a</tspan><tspan class="h" x="18.39" y="0">m</tspan><tspan x="31.43" y="0">e </tspan><tspan class="i" x="39.67" y="0">o</tspan><tspan x="49.32" y="0">f </tspan><tspan class="j" x="57.36" y="0">t</tspan><tspan class="k" x="65.94" y="0">h</tspan><tspan class="l" x="75.44" y="0">o</tspan><tspan class="m" x="85.25" y="0">n</tspan><tspan class="n" x="95.98" y="0">e</tspan><tspan x="102.25" y="0">s</tspan></text></svg>