<svg xmlns="http://www.w3.org/2000/svg" viewBox="0 0 190.39 168.34"><defs><style>.a{fill:#fff;}.b{fill:gray;}.c,.e{font-size:15px;fill:#d5af30;font-family:GameofThrones, Game of Thrones;}.d{fill:#212121;}.e{text-decoration:underline;letter-spacing:-0.13em;}.f{letter-spacing:0.06em;}.g{letter-spacing:0.07em;}.h{letter-spacing:0.02em;}.i{letter-spacing:-0.02em;}.j{letter-spacing:0.09em;}.k{letter-spacing:0.01em;}.l{letter-spacing:0em;}.m{letter-spacing:0.07em;}.n{letter-spacing:0.07em;}.o{letter-spacing:0.02em;}</style></defs><title>Mal_size_v2</title><line class="a" x1="32.73" x2="153.31" y2="127.8"/><path class="b" d="M20.13,10.12c1.57,1,3.08,2.13,4.62,3.19l4.51,3.29c3,2.19,6,4.44,8.88,6.72,5,5.38,10,10.67,15,16L83.33,71.27l30.15,32,15.07,16c4.14,6.16,8.31,12.29,12.16,18.72-6.19-4.23-12.07-8.74-18-13.23l-15.07-16L77.51,76.76,47.37,44.81c-5-5.31-10-10.67-15.11-15.94q-3.15-4.57-6.19-9.26l-3-4.7C22.08,13.31,21.07,11.74,20.13,10.12Z" transform="translate(12.6 -10.12)"/><text class="c" transform="translate(86.15 27.08)">o</text><text class="c" transform="translate(130.42 71.87)">T</text><text class="c" transform="translate(43.36 71.87)">G</text><text class="c" transform="translate(89.52 111.7)">f</text><line x1="33.18" y1="131.22" x2="152.86" y2="2.58"/><path class="d" d="M20.58,141.34c.93-1.63,1.92-3.21,2.88-4.82l3-4.72q3-4.71,6.13-9.29c5.05-5.31,10-10.71,15-16.06L77.49,74.29l29.92-32.16,15-16.08c5.87-4.53,11.72-9.09,17.88-13.35-3.81,6.45-7.93,12.61-12,18.8l-15,16.08L83.35,79.74,53.43,111.9c-5,5.38-10,10.7-14.93,16.11-2.91,2.3-5.84,4.57-8.83,6.79l-4.5,3.31C23.64,139.19,22.14,140.29,20.58,141.34Z" transform="translate(12.6 -10.12)"/><text class="e" transform="translate(12.81 156.84)">G<tspan class="f" x="12.69" y="0">a</tspan><tspan class="g" x="28.15" y="0">m</tspan><tspan class="h" x="48" y="0">e </tspan><tspan class="i" x="60.93" y="0">o</tspan><tspan class="h" x="75.69" y="0">f </tspan><tspan class="j" x="88.32" y="0">t</tspan><tspan class="k" x="101.47" y="0">h</tspan><tspan class="l" x="116.01" y="0">o</tspan><tspan class="m" x="131.01" y="0">n</tspan><tspan class="n" x="147.39" y="0">e</tspan><tspan class="o" x="157.08" y="0">s</tspan></text></svg>