<svg xmlns="http://www.w3.org/2000/svg" viewBox="0 0 92.59 120.44"><defs><style>.a{fill:none;stroke:#cb5727;stroke-miterlimit:10;}.b{fill:#cb5727;}.c{fill:#fff;}</style></defs><title>Orane_Son</title><path class="a" d="M83.37,106,56,137a.54.54,0,0,1-.78,0L28.85,106.67a41.67,41.67,0,0,1-7.28-11.79c-4.63-11.5-11-68.83-11-68.83,0-5.95,37.66-8.4,46.37-8.37,8,0,44.49,3.06,44.49,9,0,0-6.67,58-10.83,67.92A41,41,0,0,1,83.37,106Z" transform="translate(-10.07 -17.18)"/><path class="a" d="M56,137,29,106.38a41.4,41.4,0,0,1-7.2-11.67C17.18,83.32,10.87,26.56,10.87,26.56c0-5.89,37.28-8.32,45.9-8.29" transform="translate(-10.07 -17.18)"/><path class="b" d="M56.55,17.68c8.34,0,46.12,3.07,46.12,9,0,0-6.92,58.2-11.22,68.13A41.73,41.73,0,0,1,84,106.26L55.57,137.31a.54.54,0,0,1-.4.17" transform="translate(-10.07 -17.18)"/><path class="c" d="M58.34,106a3.12,3.12,0,0,1-.63-.43,14.48,14.48,0,0,1-1.37-3.38c-.08-.54.35-1.46-.07-1.81a2.28,2.28,0,0,0-.53-.31s-.71.44-.86.83a4.2,4.2,0,0,1-.46,1.16c-.43.57-1.27.69-1.72,1.25s-.33,1.56-.52,2.35a1.38,1.38,0,0,1-.25.4s-.56-.17-.67-.45a2.81,2.81,0,0,1,.36-2.78c.32-.4.75-.71,1.1-1.09a2.38,2.38,0,0,0,.46-1.68,5.77,5.77,0,0,0-.17-.68,5.83,5.83,0,0,0-.83.22,2.42,2.42,0,0,0-.42.29c-1,.74-2.5.32-3.63.9-.83.42-1.45,1.23-2.38,1.18A2.57,2.57,0,0,1,47,100.06a8,8,0,0,1,2.14-.83c.77-.17,1.71-.32,1.95-1.07a4.81,4.81,0,0,1,.22-.45s-.49-.08-.65-.09a5.13,5.13,0,0,1-2-.15c-.43-.21-.94-.33-1.38-.52-.63-.28-1.62-.44-2.09-.61a1.29,1.29,0,0,1-.3-.16,1,1,0,0,1,.12-.13,13.16,13.16,0,0,1,4.94-.38,2.47,2.47,0,0,0,.62-.16,1.15,1.15,0,0,0-.19-.5,3,3,0,0,0-.57-.42c-.89-.65-.82-2.09-1.69-2.76-.59-.45-1.43-.4-2.09-.75-.23-.13-.26-.64-.26-.64a1.14,1.14,0,0,1,.38-.09c1.26,0,2.68.17,3.46,1.16.27.34.44.77.74,1.09a.93.93,0,0,0,1.18.23,5,5,0,0,1,0-2.48,4.77,4.77,0,0,0,.2-1c0-1.13-1.3-1.92-1.35-3A4.52,4.52,0,0,1,53.56,91c0,.35,0,.83.32.87a2.49,2.49,0,0,1,.66-1.93,6.36,6.36,0,0,0,1-1c.61-1-.08-2.42.64-3.31.51,1.18,1,2.53.55,3.72-.32.79-1,1.47-1,2.31a.83.83,0,0,0,.15.27,1.11,1.11,0,0,0,.43-.29c.82-1.31,3.07-1.09,3.8-2.44.3-.56.29-1.29.77-1.71a2.58,2.58,0,0,1-.85,3.5c-.53.31-1.18.41-1.69.75s-.85,1.11-.44,1.57a3.07,3.07,0,0,1,2.85-.79,2.56,2.56,0,0,0,2.45-.19c.29-.2,1.9.3,1.9.3a1.84,1.84,0,0,1-.46.7,7.44,7.44,0,0,1-4.31,1.25,1.68,1.68,0,0,0-.78.1.49.49,0,0,0-.24.66,1.28,1.28,0,0,1,1.51.25,12.74,12.74,0,0,0,1.21,1.12,1.94,1.94,0,0,0,1.88.08,2.85,2.85,0,0,1,1-.47c.37,0,.53.68.53.68a1.92,1.92,0,0,1-.3.17c-1,.36-2.05,1.73-3.08,1.51-.57-.13-1.09-1.42-1.65-1.55a1.49,1.49,0,0,0-1.58.44,2.34,2.34,0,0,1,2,1.88,2.52,2.52,0,0,0,1.35,1.14A2.33,2.33,0,0,1,64,101.77c-1.12.24-2.44.43-3.27-.36-.3-.29-.49-.67-.77-1a4.17,4.17,0,0,0-1.41-.87,1.67,1.67,0,0,0-.35-.08,1.46,1.46,0,0,0-.39.58,5,5,0,0,0,1.51,4.42A4.69,4.69,0,0,1,60,106,4.34,4.34,0,0,1,58.34,106Z" transform="translate(-10.07 -17.18)"/><path class="c" d="M58.34,106a3.09,3.09,0,0,1-.7-.5,5.56,5.56,0,0,1-.39-.77c-.24-.53-.45-1.06-.64-1.61a7.86,7.86,0,0,1-.27-.82,2.31,2.31,0,0,1,0-.87,1.84,1.84,0,0,0,0-.84c-.11-.26-.42-.38-.66-.5h0a3.14,3.14,0,0,0-.71.6,3.07,3.07,0,0,0-.33.86,1.62,1.62,0,0,1-.52.79,5,5,0,0,1-.8.49,1.65,1.65,0,0,0-1,1.44c0,.31,0,.62-.09.94a3.65,3.65,0,0,1-.07.46,1.25,1.25,0,0,1-.26.42l0,0h0c-.29-.11-.67-.25-.76-.62a2.67,2.67,0,0,1-.16-1,2.82,2.82,0,0,1,.67-1.84c.41-.51,1-.84,1.27-1.43a2.85,2.85,0,0,0,.19-.92,4.3,4.3,0,0,0-.19-.92l.09.06a6.28,6.28,0,0,0-.9.27,3.12,3.12,0,0,1-.85.52,8.94,8.94,0,0,1-2,.33,3.24,3.24,0,0,0-1.73.71,3.07,3.07,0,0,1-1.84.83h-.17l0-.17a2.73,2.73,0,0,1,.91-1.73,6.68,6.68,0,0,1,1.71-.9c.6-.24,1.26-.32,1.81-.5a1.61,1.61,0,0,0,.71-.41.88.88,0,0,0,.18-.33l.22-.46.16.34a5.29,5.29,0,0,0-.79-.08l-.84,0a2.91,2.91,0,0,1-.91-.11c-.33-.12-.5-.21-.78-.3s-.54-.17-.82-.29a5.49,5.49,0,0,0-.75-.24l-.81-.19a2.56,2.56,0,0,1-.88-.34l-.26-.16.18-.23a1.2,1.2,0,0,1,.22-.23l.22-.1.38-.1c.25-.06.49-.1.74-.14a14.17,14.17,0,0,1,1.46-.16c.5,0,1,0,1.49,0q.38,0,.75.06a1.47,1.47,0,0,0,.53-.14l-.22.35a.82.82,0,0,0-.09-.29.93.93,0,0,0-.24-.19,2.18,2.18,0,0,1-.8-.72c-.39-.61-.53-1.24-.81-1.72A1.57,1.57,0,0,0,47,91.81a6.15,6.15,0,0,1-1-.27,1.29,1.29,0,0,1-.27-.13.85.85,0,0,1-.3-.35,1.71,1.71,0,0,1-.15-.6l0-.31.3-.1a1.29,1.29,0,0,1,.58-.12l.43,0a8.72,8.72,0,0,1,.88.08,4.44,4.44,0,0,1,1.77.6,2.82,2.82,0,0,1,.73.69c.2.26.33.53.47.73a1,1,0,0,0,.43.42.33.33,0,0,0,.34,0l-.15.47a5.42,5.42,0,0,1-.18-1.88c0-.62.29-1.29.31-1.68a2.3,2.3,0,0,0-.56-1.31,3.57,3.57,0,0,1-.8-1.8l0-.64.63.17a4.89,4.89,0,0,1,3,2.44,4.84,4.84,0,0,1,.58,1.9,6.19,6.19,0,0,1,0,1,.73.73,0,0,0,0,.28s0,0,0,0a.3.3,0,0,0-.11-.06l-.55.55a3,3,0,0,1,.51-2c.43-.6,1-.88,1.21-1.2a2.62,2.62,0,0,0,.21-1.4,3,3,0,0,1,.48-2l.5-.63.31.74a11.79,11.79,0,0,1,.6,1.64A4.48,4.48,0,0,1,57.32,89a4.82,4.82,0,0,1-.77,1.66,2.61,2.61,0,0,0-.3.64,1,1,0,0,0,0,.29v.07s0-.06,0,0a.28.28,0,0,0,0,.09l-.52-.14c.26-.12.18-.08.49-.45a2.79,2.79,0,0,1,.83-.6c.58-.3,1.15-.46,1.66-.67a2,2,0,0,0,1.08-.89c.22-.4.19-1.13.83-1.73l.36-.35.28.44a3,3,0,0,1-.86,4c-.65.41-1.31.49-1.77.77s-.66.84-.44,1h-.55a3.28,3.28,0,0,1,1.89-.94,3.42,3.42,0,0,1,1.06,0c.38.08.61.18.92.23a2.28,2.28,0,0,0,.82,0,2.4,2.4,0,0,0,.38-.12l.18-.1.09-.05a.76.76,0,0,1,.16-.09,1.24,1.24,0,0,1,.63,0,3.86,3.86,0,0,1,.49.09c.32.07.63.16.94.25l.33.1-.14.29a1.86,1.86,0,0,1-.59.86,7.59,7.59,0,0,1-.79.44,7.83,7.83,0,0,1-1.7.61,7.73,7.73,0,0,1-1.79.19,2.75,2.75,0,0,0-.79,0c-.17,0-.27.29-.21.34l-.32-.06A1.24,1.24,0,0,1,60.28,95a2.08,2.08,0,0,1,.85.53,4.52,4.52,0,0,0,1.31,1.13A1.74,1.74,0,0,0,64,96.55a2.11,2.11,0,0,1,.91-.38.6.6,0,0,1,.5.34,2.27,2.27,0,0,1,.18.47l0,.12-.09.05c-.34.22-.6.28-.88.47s-.53.37-.8.56a4.41,4.41,0,0,1-.87.51,1.38,1.38,0,0,1-1.06.09c-.66-.39-.87-1.08-1.37-1.45a1.39,1.39,0,0,0-1.65.31l-.06-.14a2.45,2.45,0,0,1,1.53.88,2.31,2.31,0,0,1,.42.79c.06.14.05.3.12.4a1.92,1.92,0,0,0,.26.32,3.13,3.13,0,0,0,.67.53c.22.17.52.11.81.23a2.36,2.36,0,0,1,1.36,1.1l0,.06-.08,0a7.69,7.69,0,0,1-1.66.2,2.48,2.48,0,0,1-1.59-.53c-.43-.38-.63-.94-1.08-1.26a3.45,3.45,0,0,0-.71-.43,2.77,2.77,0,0,0-.77-.29h0c-.52.38-.45,1.06-.44,1.65a4.79,4.79,0,0,0,.43,1.74,4.72,4.72,0,0,0,1,1.48A4.09,4.09,0,0,1,60,106h0A4.58,4.58,0,0,1,58.34,106Zm0,0A4.36,4.36,0,0,0,60,106h0a4,4,0,0,0-.8-1.6,4.92,4.92,0,0,1-1-1.48,5.15,5.15,0,0,1-.46-1.76,5.53,5.53,0,0,1,0-.91,1.12,1.12,0,0,1,.43-.79h0a2.65,2.65,0,0,1,.79.28,3.94,3.94,0,0,1,.73.44c.46.34.68.9,1.09,1.25a2.38,2.38,0,0,0,1.53.5,8.28,8.28,0,0,0,1.64-.21l0,.08a2.24,2.24,0,0,0-1.29-1c-.25-.1-.59,0-.85-.23a3.78,3.78,0,0,1-.7-.55,2.39,2.39,0,0,1-.28-.35c-.1-.16-.08-.3-.14-.43a2,2,0,0,0-.4-.73,2.19,2.19,0,0,0-1.43-.8l-.15,0,.08-.12a1.3,1.3,0,0,1,.89-.53,1.59,1.59,0,0,1,1,.15c.56.42.83,1.11,1.34,1.39s1.15-.24,1.66-.61c.26-.19.52-.4.81-.58s.64-.32.85-.47l-.06.17c-.06-.25-.24-.58-.35-.55a1.94,1.94,0,0,0-.73.35,2.12,2.12,0,0,1-1.91.21,4.72,4.72,0,0,1-1.46-1.19c-.39-.38-1-.6-1.36-.33l-.21.15-.12-.2a.74.74,0,0,1,.42-1.06,2.78,2.78,0,0,1,1-.08,7.29,7.29,0,0,0,1.67-.22,6.93,6.93,0,0,0,1.57-.59q.37-.19.72-.42a1.53,1.53,0,0,0,.36-.59l.19.39c-.3-.08-.6-.16-.9-.22a3.73,3.73,0,0,0-.44-.08,1.83,1.83,0,0,0-.31,0l0,0-.11.08-.24.13a2.88,2.88,0,0,1-.52.17,2.7,2.7,0,0,1-1.06,0c-.32,0-.69-.16-.93-.2a2.7,2.7,0,0,0-2.28.75l-.27.3-.28-.3a1.23,1.23,0,0,1-.17-1.29,1.83,1.83,0,0,1,.76-.91c.64-.39,1.3-.48,1.73-.79a2.17,2.17,0,0,0,.58-2.84l.64.09c-.28.21-.33.79-.59,1.44a2.79,2.79,0,0,1-1.53,1.34c-.57.25-1.14.41-1.6.65a2.22,2.22,0,0,0-.58.42,1.27,1.27,0,0,0-.11.13l-.05.07a.55.55,0,0,1-.14.17,1.83,1.83,0,0,1-.52.32l-.31.13-.21-.27a1.78,1.78,0,0,1-.17-.27,1,1,0,0,1-.07-.25v-.14a2,2,0,0,1,.07-.54,3.55,3.55,0,0,1,.39-.88,4.14,4.14,0,0,0,.64-1.36,5.39,5.39,0,0,0-.67-3l.81.11a2.12,2.12,0,0,0-.24,1.35,3.45,3.45,0,0,1-.37,2c-.46.64-1,.86-1.21,1.24a2,2,0,0,0-.35,1.29l.07.6-.61,0a.84.84,0,0,1-.51-.26.86.86,0,0,1-.21-.4,1.64,1.64,0,0,1,0-.61,4.73,4.73,0,0,0,0-.83,4.07,4.07,0,0,0-.46-1.52,4,4,0,0,0-2.41-2l.59-.47a2.79,2.79,0,0,0,.62,1.32,3.09,3.09,0,0,1,.71,1.86c-.07.76-.31,1.19-.32,1.73A4.32,4.32,0,0,0,52,92.71L52,93l-.24.15a1.46,1.46,0,0,1-2-.65,3.24,3.24,0,0,0-.94-1.18,3.57,3.57,0,0,0-1.42-.48c-.27,0-.54-.06-.81-.08l-.41,0a.93.93,0,0,0-.25.06l.26-.41a1.11,1.11,0,0,0,.07.3s0,0,0,0l.14.08a6.6,6.6,0,0,0,.84.24,3.3,3.3,0,0,1,1,.38,2.19,2.19,0,0,1,.74.84c.32.61.45,1.23.74,1.68a1.52,1.52,0,0,0,.57.52,1.58,1.58,0,0,1,.46.42,1.51,1.51,0,0,1,.19.59l0,.29-.26.07a1.89,1.89,0,0,1-.87.17,5.2,5.2,0,0,0-.69-.07,13.47,13.47,0,0,0-1.42,0c-.47,0-1,.06-1.42.12-.23,0-.47.07-.69.12s-.5.12-.46.16L45.05,96a2.06,2.06,0,0,0,.68.26l.82.21a5.79,5.79,0,0,1,.83.28c.24.11.5.2.76.29s.59.24.78.31a2.23,2.23,0,0,0,.75.1h.84a5.16,5.16,0,0,1,.87.1l.31,0-.15.3-.19.38a1.55,1.55,0,0,1-.28.48,2,2,0,0,1-.91.52c-.63.19-1.23.25-1.81.47a5.91,5.91,0,0,0-1.61.8,2.43,2.43,0,0,0-.83,1.5l-.15-.18a2.69,2.69,0,0,0,1.66-.74,4,4,0,0,1,.88-.5,4.29,4.29,0,0,1,1-.22,9.07,9.07,0,0,0,1.91-.28,3.18,3.18,0,0,0,.82-.49,5.9,5.9,0,0,1,1-.28l.08,0,0,.09a4,4,0,0,1,.18,1,2.72,2.72,0,0,1-.21,1c-.27.66-.9,1-1.3,1.46a2.79,2.79,0,0,0-.66,1.75,2.68,2.68,0,0,0,.16.93c.06.32.39.45.68.56h0a1.24,1.24,0,0,0,.24-.37c0-.15.06-.3.08-.46s0-.62.09-.93a2,2,0,0,1,.31-.9,2.25,2.25,0,0,1,.74-.6,2.12,2.12,0,0,0,1.3-1.23,2.89,2.89,0,0,1,.35-.88,3.19,3.19,0,0,1,.72-.6h0a1.28,1.28,0,0,1,.68.53,2,2,0,0,1,0,.87,2,2,0,0,0-.05.85c.07.28.17.55.26.82q.28.82.63,1.62a5.45,5.45,0,0,0,.39.76A2.8,2.8,0,0,0,58.34,106Z" transform="translate(-10.07 -17.18)"/><path class="b" d="M55.74,100.05s-.71.44-.86.83a4.2,4.2,0,0,1-.46,1.16c-.43.57-1.27.69-1.72,1.25s-.33,1.56-.52,2.35a1.38,1.38,0,0,1-.25.4s-.56-.17-.67-.45a2.81,2.81,0,0,1,.36-2.78c.32-.4.75-.71,1.1-1.09a2.38,2.38,0,0,0,.46-1.68,5.77,5.77,0,0,0-.17-.68,5.83,5.83,0,0,0-.83.22,2.42,2.42,0,0,0-.42.29c-1,.74-2.5.32-3.63.9-.83.42-1.45,1.23-2.38,1.18A2.57,2.57,0,0,1,47,100.06a8,8,0,0,1,2.14-.83c.77-.17,1.71-.32,1.95-1.07a4.81,4.81,0,0,1,.22-.45s-.49-.08-.65-.09a5.13,5.13,0,0,1-2-.15c-.43-.21-.94-.33-1.38-.52-.63-.28-1.62-.44-2.09-.61a1.29,1.29,0,0,1-.3-.16,1,1,0,0,1,.12-.13,13.16,13.16,0,0,1,4.94-.38,2.47,2.47,0,0,0,.62-.16,1.15,1.15,0,0,0-.19-.5,3,3,0,0,0-.57-.42c-.89-.65-.82-2.09-1.69-2.76-.59-.45-1.43-.4-2.09-.75-.23-.13-.26-.64-.26-.64a1.14,1.14,0,0,1,.38-.09c1.26,0,2.68.17,3.46,1.16.27.34.44.77.74,1.09a.93.93,0,0,0,1.18.23,5,5,0,0,1,0-2.48,4.77,4.77,0,0,0,.2-1c0-1.13-1.3-1.92-1.35-3A4.52,4.52,0,0,1,53.56,91c0,.35,0,.83.32.87a2.49,2.49,0,0,1,.66-1.93,6.36,6.36,0,0,0,1-1" transform="translate(-10.07 -17.18)"/><path class="b" d="M55.74,100.05a3.21,3.21,0,0,0-.7.62,3.32,3.32,0,0,0-.31.87,1.57,1.57,0,0,1-.5.82,5,5,0,0,1-.81.51,1.62,1.62,0,0,0-.93,1.4c0,.3,0,.61-.06.93a4.44,4.44,0,0,1-.07.49,1.38,1.38,0,0,1-.28.48l-.08.1-.13,0a2.24,2.24,0,0,1-.5-.22.9.9,0,0,1-.24-.21,1.77,1.77,0,0,1-.14-.27,3,3,0,0,1-.19-1,3.08,3.08,0,0,1,.7-2c.44-.54,1.06-.9,1.21-1.38a2.45,2.45,0,0,0,.16-.84,3.5,3.5,0,0,0-.18-.85l.38.23a8.3,8.3,0,0,0-.82.24,3.32,3.32,0,0,1-.89.55,9.08,9.08,0,0,1-2,.36,2.88,2.88,0,0,0-1.6.66c-.26.19-.53.4-.85.59a2.28,2.28,0,0,1-1.17.29l-.46,0,.06-.45a3,3,0,0,1,1-1.9,3.08,3.08,0,0,1,.46-.31l.43-.24c.29-.14.6-.27.91-.39.62-.24,1.31-.33,1.82-.5a1.41,1.41,0,0,0,.6-.33.78.78,0,0,0,.13-.24l.24-.5.33.68a6.36,6.36,0,0,0-.75-.08l-.84,0a3.13,3.13,0,0,1-1-.12l-.25-.1-.17-.07-.37-.14c-.25-.09-.53-.17-.82-.3a6.28,6.28,0,0,0-.73-.23l-.81-.2-.43-.12a2.73,2.73,0,0,1-.52-.25l-.44-.25.32-.42a1.61,1.61,0,0,1,.28-.3l.26-.11.41-.11c.25-.05.5-.1.75-.13.5-.07,1-.11,1.49-.14s1,0,1.49,0a6.68,6.68,0,0,1,.77.07s.28,0,.47-.12l-.3.49a.87.87,0,0,0-.07-.24.84.84,0,0,0-.2-.16,2.32,2.32,0,0,1-.83-.77c-.39-.63-.52-1.26-.78-1.73a1.52,1.52,0,0,0-1.2-.8,7.64,7.64,0,0,1-1-.28,2.41,2.41,0,0,1-.28-.14.85.85,0,0,1-.3-.36,1.81,1.81,0,0,1-.15-.62l0-.33.31-.1a1.53,1.53,0,0,1,.59-.12l.43,0a8.78,8.78,0,0,1,.88.1,4.31,4.31,0,0,1,1.77.61,3.32,3.32,0,0,1,.71.69c.19.27.31.53.45.75a1.09,1.09,0,0,0,.44.44.42.42,0,0,0,.42,0l-.13.39A5.48,5.48,0,0,1,51,91.08c0-.62.3-1.24.34-1.69A2.41,2.41,0,0,0,50.8,88a3.55,3.55,0,0,1-.74-1.72V85.9l.35.1a4.58,4.58,0,0,1,2.81,2.39,4.53,4.53,0,0,1,.5,1.79,4.66,4.66,0,0,1,0,.92c0,.27,0,.61.22.63l-.11.12a2.47,2.47,0,0,1,.49-1.69c.35-.49.92-.72,1.26-1.2-.31.5-.87.78-1.17,1.27a2.39,2.39,0,0,0-.38,1.6l0,.11h-.13a.48.48,0,0,1-.4-.37,1.67,1.67,0,0,1,0-.49,4.31,4.31,0,0,0,0-.88,4.48,4.48,0,0,0-.54-1.63,4.29,4.29,0,0,0-2.62-2l.33-.27a3,3,0,0,0,.69,1.41A2.89,2.89,0,0,1,52,89.42c-.05.7-.28,1.17-.29,1.72a4.47,4.47,0,0,0,.17,1.59L52,93l-.2.13a1.43,1.43,0,0,1-2-.61,3,3,0,0,0-1-1.17,3.83,3.83,0,0,0-1.43-.47c-.27,0-.54-.06-.81-.07l-.42,0a.94.94,0,0,0-.23.06l.27-.43a1,1,0,0,0,.07.29s0,0,0,0l.15.06a4.91,4.91,0,0,0,.83.23,3.51,3.51,0,0,1,1,.38,2.43,2.43,0,0,1,.78.85c.33.63.47,1.24.76,1.66a1.22,1.22,0,0,0,.54.48,1.66,1.66,0,0,1,.5.45,1.73,1.73,0,0,1,.22.65l.06.39-.36.1a1.88,1.88,0,0,1-.94.18l-.68,0c-.46,0-.93,0-1.4,0a13,13,0,0,0-1.4.14c-.23,0-.46.07-.68.12s-.48.17-.33.08l-.12-.67c.08,0,.12.08.23.12l.37.1.82.21a6.34,6.34,0,0,1,.87.29c.22.1.48.18.75.28l.41.16.22.09.14.06a2.31,2.31,0,0,0,.68.08l.83,0c.31,0,.61.07.92.1l.64.07-.31.62-.18.34a1.72,1.72,0,0,1-.32.57,2.19,2.19,0,0,1-1,.58c-.68.21-1.25.26-1.8.48a6.45,6.45,0,0,0-.82.34,3.6,3.6,0,0,0-.71.42,2.11,2.11,0,0,0-.73,1.33l-.4-.48a2.43,2.43,0,0,0,1.48-.7,3.62,3.62,0,0,1,2-.76,8.42,8.42,0,0,0,1.85-.26,2.54,2.54,0,0,0,.78-.46A5.89,5.89,0,0,1,53,99l.32-.1.06.32a4.43,4.43,0,0,1,.18,1.06,2.78,2.78,0,0,1-.24,1.06,1.76,1.76,0,0,1-.29.49,4.36,4.36,0,0,1-.38.37,8.46,8.46,0,0,0-.68.65,2.55,2.55,0,0,0-.63,1.61,2.6,2.6,0,0,0,.12.88.41.41,0,0,0,.19.28,2.25,2.25,0,0,0,.38.19l-.2.05a1,1,0,0,0,.21-.3,3.12,3.12,0,0,0,.09-.44c0-.3.06-.62.11-.94a2.08,2.08,0,0,1,.35-.93,2.18,2.18,0,0,1,.78-.61c.56-.27,1.12-.56,1.3-1.18a3,3,0,0,1,.38-.87A3,3,0,0,1,55.74,100.05Z" transform="translate(-10.07 -17.18)"/><polygon class="c" points="88.93 37.92 46.2 47.92 4.83 37.92 2.69 21.27 46.2 41.46 91.12 21.65 88.93 37.92"/><path class="c" d="M99,55.1,77.74,60.27,56.35,65.42l-.08,0-.07,0L35.49,60.51l-20.7-5-.31-.08,0-.32L12.28,38.51l-.12-.89L13,38,56.45,58.24H56.1l22.51-9.8,22.52-9.75.25-.1,0,.26Zm0,0,2-16.29.2.16L78.86,49,56.45,59l-.18.07L56.09,59,12.56,38.89l.69-.51L15.36,55,15,54.65l20.68,5,20.66,5.09H56.2l21.34-4.84Z" transform="translate(-10.07 -17.18)"/><polyline class="b" points="45.93 48.35 4.44 38.01 2.3 20.81 45.93 40.98"/><path class="b" d="M56,65.52q-10.43-2.35-20.82-4.85t-20.77-5l-.31-.08,0-.31c-.73-5.74-1.49-11.47-2.17-17.21l-.1-.86.78.37c7.26,3.4,14.54,6.74,21.77,10.2S48.81,54.63,56,58.15q-11-4.8-22-9.76c-7.32-3.26-14.58-6.65-21.87-10l.68-.49c.75,5.73,1.42,11.47,2.12,17.2l-.34-.39c6.91,1.74,13.82,3.49,20.71,5.3S49.13,63.65,56,65.52Z" transform="translate(-10.07 -17.18)"/></svg>