<svg xmlns="http://www.w3.org/2000/svg" viewBox="0 0 91.36 120.3"><defs><style>.a{fill:#ed1c24;}.b,.d,.e{fill:none;stroke-miterlimit:10;}.b{stroke:#ed1c24;}.c{fill:#231f20;}.d{stroke:#f37053;}.e{stroke:#231f20;}</style></defs><title>Red_Skog</title><path class="a" d="M84.3,105.23l-27.38,31a.54.54,0,0,1-.79,0L29.78,105.91a41.63,41.63,0,0,1-7.28-11.8c-4.63-11.5-11-68.83-11-68.83,0-6,37.65-8.4,46.36-8.37,8,0,44.5,3.07,44.5,9,0,0-6.68,58-10.83,67.93A41.52,41.52,0,0,1,84.3,105.23Z" transform="translate(-11.06 -16.38)"/><path class="b" d="M56.59,136.35,29.84,105.91a41.86,41.86,0,0,1-7.28-11.8c-4.62-11.5-11-68.83-11-68.83,0-6,37.66-8.4,46.37-8.37" transform="translate(-11.06 -16.38)"/><path class="c" d="M57.93,16.38c8,0,44.49,3.08,44.49,9.05,0,0-6.67,58.28-10.82,68.23a41.81,41.81,0,0,1-7.24,11.43L57,136.18a.52.52,0,0,1-.39.17" transform="translate(-11.06 -16.38)"/><path class="b" d="M70.63,97.07c-.31-1.27-1.21-2-2.88-2.4-1.21-.32-2.5-.16-3.7-.45a5.15,5.15,0,0,1-3.52-3.09,10.28,10.28,0,0,1-.5-3L59.61,82a6.94,6.94,0,0,1,.13-2.49c.55-1.83,2.42-2.87,4.12-3.72a2.22,2.22,0,0,1,1-.32c.86,0,1.41.86,2,1.54a4.23,4.23,0,0,0,4.29,1.7,10.08,10.08,0,0,1-2.65-2.72l3.22.2a2.87,2.87,0,0,1,1,.17,3.67,3.67,0,0,1,.93.7,5.13,5.13,0,0,0,5.84.45,14.46,14.46,0,0,1,1.43-.92c1.61-.78,3.51,0,5.13.74a2.25,2.25,0,0,1-.71-2.14c.12-.49.4-.93.54-1.42a1.31,1.31,0,0,0-.27-1.41,3.18,3.18,0,0,1-2.46,2.35,15.09,15.09,0,0,0-2.35.22,12.9,12.9,0,0,0-1.43.74,6.94,6.94,0,0,1-2.87.47A3,3,0,0,1,75,75.88a1,1,0,0,1-.61-1.18c.11-.35.46-.56.65-.88A1.46,1.46,0,0,0,75.1,73a2.63,2.63,0,0,0-.73.25c-1.22,1-3,1-4.61,1a50.92,50.92,0,0,0-8.9.55,11.89,11.89,0,0,1,9.72-4.16c3.23.2,6.61,1.71,9.57.4,1.63-.72,3-2.27,4.8-2.16a3.38,3.38,0,0,0,1.45,0A7.7,7.7,0,0,0,87.68,68s-2.06-.11-2.25-.49a2.77,2.77,0,0,0,1.08-2.36c-.85,0-1.48.74-2.05,1.37A10.09,10.09,0,0,1,73.34,69a9.21,9.21,0,0,0,4.71-2.3c.9-.82,1.82-1.9,3-1.81a7.45,7.45,0,0,0,1.23.18c.41,0,1.23-1,1.23-1s-1.66.4-1.9,0a.64.64,0,0,1,.09-.56L84,59.24" transform="translate(-11.06 -16.38)"/><path class="d" d="M83.76,60.18" transform="translate(-11.06 -16.38)"/><path class="b" d="M57.26,49.74a3.2,3.2,0,0,0,.1.93A11,11,0,0,0,60.21,55c.22.2.47.45.42.74s-.25.3-.35.47a15,15,0,0,1-1.85,2.67,5.73,5.73,0,0,0-1,2.41,2.77,2.77,0,0,0,0,1.25,2,2,0,0,0,.53.58,1.69,1.69,0,0,1,.39,2.22c-.26.4-.38,1.36-1,1.3" transform="translate(-11.06 -16.38)"/><path class="b" d="M83.59,60.16a5.7,5.7,0,0,1,1.68-2.37c-.77-.2-1.41,1.08-1.51,1.87a13.59,13.59,0,0,0-.61-3.21,2.67,2.67,0,0,0-.43-.53,1.16,1.16,0,0,0-.46.37,1.7,1.7,0,0,0-.14.78c-.12,3.89-3,7.27-6.37,9.19A8,8,0,0,1,71.6,67.5a4.42,4.42,0,0,1,1.69-2.44A12.08,12.08,0,0,0,75.5,63a2.54,2.54,0,0,0,.23-2.83c-.08,1.79-2,2.76-3.42,3.89a8.07,8.07,0,0,0-2.5,3.56,1.09,1.09,0,0,1-1.17.9,23.19,23.19,0,0,0-8.72,3A4.1,4.1,0,0,1,61.59,68a33.91,33.91,0,0,1,3.47-2.13,24.69,24.69,0,0,0,2.83-2.17,31.53,31.53,0,0,0,5.33-5.25,6.76,6.76,0,0,1,1.93-2.08,20.28,20.28,0,0,1,2.82-.8,10.3,10.3,0,0,0,3.14-2.42,4.44,4.44,0,0,1,3.57-1.48A1.16,1.16,0,0,0,83,51.55,5.57,5.57,0,0,0,83,49.6a1.94,1.94,0,0,0-1.15-1.49A10.12,10.12,0,0,1,80.67,52a4.7,4.7,0,0,1-3.21,2.34,2.08,2.08,0,0,0-.2-3,16.93,16.93,0,0,1-1.89,3.87,9,9,0,0,1-.37-5A2.4,2.4,0,0,1,75.57,49c.56-.54,1.44-.52,2.13-.86,1.75-.84,2-3.68,3.87-4.13a2.5,2.5,0,0,0,.87-.25c.25-.17.34-.61.07-.75a.64.64,0,0,0-.45,0l-1.77.47a4,4,0,0,0-.38-2.67c-.77.41-.74,1.5-.81,2.37a5.75,5.75,0,0,1-2.52,4.31,4.17,4.17,0,0,0-.09-2.08,1.43,1.43,0,0,0-1.67-.93,3,3,0,0,1,.11,3.62c-.39.51-.94.87-1.34,1.37-1.52,1.94-.24,4.95-1.35,7.14A16.41,16.41,0,0,1,70,59.23l-.35-2.81a1.94,1.94,0,0,0-.3-1,.67.67,0,0,0-.9-.19,15,15,0,0,1,0,4.38,2.61,2.61,0,0,1-.35,1.06,2.92,2.92,0,0,1-1.14.88L63,63.67c-.27.15-.64.28-.86.07s-.09-.59,0-.87l4.34-8.61c.72-1.43,1.64-3,3.21-3.34a8.49,8.49,0,0,0,1.14-.21.88.88,0,0,0,.63-.86l-2.57.32c-.55-2.24,1.06-4.39,2.64-6.07s3.37-3.56,3.26-5.86a83,83,0,0,1-5.75,6.4,6.7,6.7,0,0,1-.37-5.42A4.21,4.21,0,0,0,69.21,37a1.84,1.84,0,0,0-.73-1.14,6.5,6.5,0,0,0-.79,1.21c-.1.9-.56,1.76-.65,2.66l-2.43-2.38a3.73,3.73,0,0,0,1.87,3.44c.84,2.7,1.66,5.71.44,8.25a1,1,0,0,1-.48.54c-.88.29-2-1.66-2-1.66s-.72.53-.66,1a4,4,0,0,0,.56,1.2,4.66,4.66,0,0,1,.08,4.37c-.32.61-1.24,1.68-1.8,1.26s-.12-1.63.09-2.22c.45-1.24.59-2.79-.35-3.71-.71,1.12-1.58,2.14-1.54,3.46-1.61-.86-2-2.27-2.86-3.89" transform="translate(-11.06 -16.38)"/><path class="b" d="M57,97.73a1,1,0,0,0,.89-.39,14.17,14.17,0,0,0,.46-3.42,1.58,1.58,0,0,1,.5.38l1.42,2.28a2.31,2.31,0,0,0,.76.85,2.27,2.27,0,0,0,.94.21L67,98a1.36,1.36,0,0,0-1-1.09,7.4,7.4,0,0,0-1.56-.19,3.18,3.18,0,0,1-2.78-1.94l4.24.8a10.13,10.13,0,0,1,2.72.79,10,10,0,0,1,2.33,1.83l-.3-1.16" transform="translate(-11.06 -16.38)"/><path class="e" d="M57,97.73c-.74,0-1-1.62-1.11-3.26a19.22,19.22,0,0,0-1.56,2.22,4.61,4.61,0,0,1-3.11,1.5A14,14,0,0,1,47.71,98a1.79,1.79,0,0,1,1.57-1.12,17.24,17.24,0,0,0,2-.21,1.5,1.5,0,0,0,1.21-1.44,11.16,11.16,0,0,1-4.22.93,4.14,4.14,0,0,0-2.1.36c-.89.54-1.51,1.91-2.5,1.6a5.43,5.43,0,0,1,3.91-4,19,19,0,0,0,3.13-.61A4.49,4.49,0,0,0,53,91a11.47,11.47,0,0,0,.67-3.39c.11-1.25.18-2.51.21-3.76a11.18,11.18,0,0,0-.52-4.27,4.32,4.32,0,0,0-3-2.81,2.09,2.09,0,0,0-1.67.32,3.64,3.64,0,0,0-.64.77,4.78,4.78,0,0,1-2.36,1.83A2.78,2.78,0,0,1,42.86,79a9.36,9.36,0,0,0,3.29-1.94l-2-.08a2.41,2.41,0,0,0-.85,0,3.27,3.27,0,0,0-.65.32c-1.93,1.16-4.35,1.88-6.43,1-.62-.26-1.19-.66-1.82-.9a4.33,4.33,0,0,0-3.95.42,3,3,0,0,1-1,.28s-.21-.94.15-1.3.85-.78.7-1.27a1.43,1.43,0,0,0-.39-.53,3.83,3.83,0,0,1-.57-1.75l.59-1.3.91,1a6.34,6.34,0,0,0,.17.68c.3.85,1.52.71,2.42.81A9.86,9.86,0,0,1,36.67,76c1.08.54,2.54.78,3.39-.08-.77-.89-1-.93-.47-2,1.32,2,4.26,1,6.67.77s5-.69,7.12.46a11.54,11.54,0,0,0-6.15-3.26,18.89,18.89,0,0,0-7,.08,10.34,10.34,0,0,1-4.09.28c-2.3-.51-4.2-2.86-6.51-2.39a2.88,2.88,0,0,1-1.08.15,5.71,5.71,0,0,1-1.29-.81,8.09,8.09,0,0,0,2.1-.39c.46-.32.2-1-.14-1.49s-1.17-2-1.17-2a11,11,0,0,1,1.84.39,3,3,0,0,1,.82.81A10.25,10.25,0,0,0,40.59,70c-.74-1.18-2.57-1-3.67-1.81-.72-.56-1.11-1.59-2-1.84a4.58,4.58,0,0,0-1.72.11c-.58.05-2-1.56-2.1-1.81a15.3,15.3,0,0,1,3,.14,11.64,11.64,0,0,0-1.16-1.32c-.75-.64-.62-1.87-1.25-2.62-.89-1.05-3-.84-3.38-2.15a4,4,0,0,1,3.76.27l.29-1.4" transform="translate(-11.06 -16.38)"/><path class="e" d="M58.17,50c-1,1.6-1.7,4-2.88,5.52a2.12,2.12,0,0,0-.62,1.27,1.65,1.65,0,0,0,.17.65A6.85,6.85,0,0,0,56.59,60a2.05,2.05,0,0,1,.27,2c-1.23,1.49-1,4.54.49,4.57" transform="translate(-11.06 -16.38)"/><path class="e" d="M32.32,57.79c0-.19.85-.63.85-.63a4.54,4.54,0,0,1,.35,1.09,11.73,11.73,0,0,0,7.53,9.86,2.4,2.4,0,0,0,1.94.08,30.11,30.11,0,0,1-4.22-4.8c-.32-.45-1.38-2.15-1.38-2.15s1.32-.36,1.71,0C40.25,62.56,41,64,42.43,64.9A12.7,12.7,0,0,1,43.73,66s.23.61.33.91a3.57,3.57,0,0,0,1.19,1.64,7.18,7.18,0,0,0,2.14,1l6.84,2.25a2.76,2.76,0,0,0-.45-1.36c-4.08-3.94-9.6-6.34-13-10.87a4,4,0,0,0-.94-1A4.93,4.93,0,0,0,37.88,58a6.65,6.65,0,0,1-3.66-2.07,4.1,4.1,0,0,0-2.9-1.78,5.87,5.87,0,0,1-1.58-.61c.42-.69,2.53-.08,2.75-.87a3.26,3.26,0,0,0-.21-.9,2.45,2.45,0,0,1,.83-2.53,1.34,1.34,0,0,1,.36-.22l.38.82a5.88,5.88,0,0,0,3.67,5.76c-.15-.9-.57-1.66-.3-2.54a7.16,7.16,0,0,0,2.31,3.25,10.09,10.09,0,0,0-.15-4.54,2,2,0,0,0-.39-.86,3.22,3.22,0,0,0-.88-.56,9.49,9.49,0,0,1-2.39-2l-3.45-3.67,2.73.51-.11-2.68a15.27,15.27,0,0,0,3.22,5.66A3.87,3.87,0,0,1,39,46.62a1.3,1.3,0,0,1,1.59-.2,1.51,1.51,0,0,0-.78,1.89A6.15,6.15,0,0,0,41,50.22a5.72,5.72,0,0,1,1.22,2.57c.19,1.18-.16,2.4-.08,3.6a5,5,0,0,0,2.93,4.12,6.63,6.63,0,0,1,0-3.07c.08-.31,1.35-1.11,1.35-1.11a4,4,0,0,1,0,.77,8.64,8.64,0,0,0,1,5.09,9.34,9.34,0,0,0,4.27,3.15,1,1,0,0,0,.37.09c.37,0,.59-.48.52-.85a2.41,2.41,0,0,0-.59-.94c-1.67-2-2.35-4.55-3.42-6.9S45,51.81,43.76,51.41c.46-.29.55.07,1.1.11s1.22-.15,1.31-.69a1.26,1.26,0,0,0-.07-.54,10,10,0,0,0-2.21-3.9c-1.42-1.57-3.45-2.9-3.68-5A10.77,10.77,0,0,1,40.29,40l.9.86a19,19,0,0,1,3.1,3.78c.33.54.79,1.17,1.41,1.08a1.28,1.28,0,0,0,.93-1.11,8.24,8.24,0,0,0-.58-3.6c-.31-1.18-.33-3.52.19-4,.16.49.73,3.22,1.73,3.92.56.39.83.3,1.4-.07a6.76,6.76,0,0,1,1.75-1,11,11,0,0,0-3,11.37A3.64,3.64,0,0,1,51,49.35a5.79,5.79,0,0,0,.42,7.49l1.11-.41a5.53,5.53,0,0,1,0-4.3c.24.9,1,1.76,1.34,2.7a14.73,14.73,0,0,0,1.93-3.22c.07-.13.84-1.75.91-1.88" transform="translate(-11.06 -16.38)"/><path class="e" d="M53.85,61.62a2.7,2.7,0,0,1-.9-2.43.38.38,0,0,1,.11-.29c.11-.07.25,0,.37.06a6.45,6.45,0,0,1,1.47,1.19c.34.37.64.93.35,1.34s-.93.31-1.4.13Z" transform="translate(-11.06 -16.38)"/><path class="b" d="M56.7,49.73A34.56,34.56,0,0,0,61,35c.28.07.37.41.41.69a20.87,20.87,0,0,1-2.72,13.73,1.28,1.28,0,0,1-.52.56.46.46,0,0,1-.64-.23" transform="translate(-11.06 -16.38)"/><path class="e" d="M58.68,50.36a13.56,13.56,0,0,1-3.21-5.65c-.56-1.52-1.07-3.05-1.61-4.58.33,4.14,1,7.65,3.65,11.24" transform="translate(-11.06 -16.38)"/></svg>