<svg xmlns="http://www.w3.org/2000/svg" viewBox="0 0 92.27 121.78"><defs><style>.a{fill:#fff;stroke:#f4ea12;}.a,.b,.c,.d,.e{stroke-miterlimit:10;}.b{fill:#5e5b5d;}.b,.d,.e{stroke:#5e5b5d;}.c,.d,.e{fill:none;}.c{stroke:#fff;}.c,.e{stroke-width:0.75px;}</style></defs><title>Wood_Kind_Gray</title><path class="a" d="M81.3,98.67,53.92,130a.54.54,0,0,1-.79,0L26.78,99.36A42.27,42.27,0,0,1,19.5,87.43c-4.63-11.63-11-69.61-11-69.61,0-6,37.66-8.49,46.37-8.46,8,0,44.49,3.1,44.49,9.11,0,0-6.67,58.68-10.83,68.69A41.78,41.78,0,0,1,81.3,98.67Z" transform="translate(-8 -8.86)"/><path class="b" d="M53.88,9.36c8.3,0,45.89,3.09,45.89,9.08,0,0-6.88,58.41-11.17,68.38a41.44,41.44,0,0,1-7.46,11.46L53.92,130a.85.85,0,0,1-.52.17" transform="translate(-8 -8.86)"/><path class="c" d="M52.51,54a2.49,2.49,0,0,0,1-.62,1,1,0,0,0,.19-1.07c-.1-.19-.28-.33-.35-.53s.29-.44.29-.44a1,1,0,0,1,.18.14l.44.5a4.59,4.59,0,0,1,.68.91,1.58,1.58,0,0,1,.18,1.1,11.93,11.93,0,0,1-.93,1.72,2.2,2.2,0,0,0,0,.35s.33,0,.36,0a3.06,3.06,0,0,0,.43-.28,3.29,3.29,0,0,0,.8-2.86,3.06,3.06,0,0,0-.41-1.52.86.86,0,0,1-.2-.36c0-.14.18-.31.18-.31a1.1,1.1,0,0,1,.23.1,4,4,0,0,1,1,1.08c.25.44.4.86.1,1.27a2.59,2.59,0,0,0,0,.85,1.91,1.91,0,0,0,.59,0c.39-.22.37-.3.6-.67s.1-.53.26-1a.51.51,0,0,1,.17-.25.44.44,0,0,1,.25-.06,12.31,12.31,0,0,0,2.7-.23,4.81,4.81,0,0,0-1.64-.57c-.49-.07-1.56-.27-1.56-.27a1.59,1.59,0,0,1,.65-.29c.93.05,1.86.16,2.79.12a10.84,10.84,0,0,0,3.09-1.31s-.82-.25-1.18,0A19.64,19.64,0,0,1,58,49.34a4.25,4.25,0,0,1-2.21-1.29A4.72,4.72,0,0,1,55,45.7c-.12-.9-.2-1.8-.23-2.7a9.07,9.07,0,0,0,4.21.7,3.35,3.35,0,0,0,.53-.08,3.16,3.16,0,0,1,.46-.36c.45-.24,1,.21,1.46.24a.51.51,0,0,0,.43-.17,2.17,2.17,0,0,0,.2-.59,4.48,4.48,0,0,0,2.52,1,1.07,1.07,0,0,0,.91-.45c.17-.31-.08-.8-.42-.73A2.33,2.33,0,0,0,67,42.19c.2-.16.59-.58.59-.58a4.86,4.86,0,0,1-.31-.55,10.84,10.84,0,0,1-.4-4.25,1.36,1.36,0,0,0-.1-.37,1.22,1.22,0,0,0-.52.06,1.17,1.17,0,0,1-1,.15c-.32-.12-.48-.6-.22-.81a.69.69,0,0,1,.37-.13l1.61-.27a2.19,2.19,0,0,0,.71-.36,9.1,9.1,0,0,0-.93-1.17c-.89-.64-.9-1.94-.81-3-.31-.35-.88-.14-1.34-.23s-.82-.47-1.29-.51a10.32,10.32,0,0,0-1.09.18c-.37,0-.71-.51-.71-.51a19.67,19.67,0,0,0,2.76-.73,2,2,0,0,0,1.16-1.55c-.69-.16-1.49-.4-1.74-1.07-.13-.34-.17-.84-.54-.89a1.77,1.77,0,0,1-.82.59.63.63,0,0,1-.79-.43c0-.35.29-.6.58-.8s.58-.53.45-.85a4.16,4.16,0,0,1-1.31-.19,1.38,1.38,0,0,1-.88-.91c-.06-.25-.16-.73-.16-.73a2.85,2.85,0,0,0-.77-.37l-1.17-.21a1.57,1.57,0,0,1-.68-.23c-.19-.15-.13.06-.21-.42v0a2.9,2.9,0,0,0-.07-.35s-.14-.21-.26-.22-.37.13-.54.07-.22-.27-.28-.43a.67.67,0,0,0-.35-.39.75.75,0,0,0-.26,0,14.4,14.4,0,0,0-2,0" transform="translate(-8 -8.86)"/><path class="d" d="M53.67,52.68c-.34-.56-2.55-.52-3.15.38a1.94,1.94,0,0,0-.18.83A3,3,0,0,1,50,55.15a1.59,1.59,0,0,1-1.36-1.74,3.14,3.14,0,0,1-3.57-.88c1.35-.13,4.42-.73,4.42-.73l-1-.56c-.22-.12-4.77-.6-4.77-.6a2,2,0,0,1,1.42-.33A18.32,18.32,0,0,0,48.63,50a7,7,0,0,0,3.07-1.73c1.29-1.54.52-5.41.52-5.41a23.64,23.64,0,0,0-2.55,1.06c-1.17.57-3.7-.73-3.7-.73l-1.68.59s-.7-.68-1-1c-1.16-1.26-4.32-.62-4.91-1.27,0-.25.57-.41.81-.48.45-.12.15-1.22.15-1.22s.28-.33.26-.5a.65.65,0,0,0-.28-.4,2.7,2.7,0,0,1-.84-2,.93.93,0,0,0,1.44-.33l.19-.42.45-.19a.75.75,0,0,0,.15-1.24,1.38,1.38,0,0,1-.25-.17.69.69,0,0,1-.09-.53l.12-1.2a1.05,1.05,0,0,1,.09-.25,1.93,1.93,0,0,1,.44.08c.52.24,1.14-.52.81-1-.22-.32-.67-.38-1-.57s-.2-.94-.2-.94a2.37,2.37,0,0,1,.33,0c.86,0,2,0,2.28-.84a3,3,0,0,0,0-1.43c0-.48.59-1.19.59-1.19a1.9,1.9,0,0,0,.62-.08c.35-.16.33-.67.15-1a2.23,2.23,0,0,1-.42-1c.54,0,1.23-.4,1-.91a3.35,3.35,0,0,0-.58-.82s.66-.6,1.1-.42.94.49,1.33.22.31-1.11.78-1.37a1.26,1.26,0,0,0,1.07,1A3.75,3.75,0,0,0,50.43,22c.22-.06.48-.15.55-.37s-.29-.59-.63-.72l0,0a1.63,1.63,0,0,1-.25-.63c.1,0,.32-.54.73-.79a2,2,0,0,1,1-.19s.85.19,1.15.22.88,0,1,0" transform="translate(-8 -8.86)"/><rect class="c" x="54.57" y="77.27" width="8.52" height="2.37"/><rect class="c" x="54.98" y="80.27" width="7.58" height="14.69"/><rect class="c" x="54.98" y="70.56" width="7.39" height="6.15" rx="0.63"/><path class="c" d="M63.22,79.27a4.43,4.43,0,0,1-.89-2.51c0-.65,0-1.55.08-2.19.39,0,1.74.07,2.07.08,0,.65.08,1.62.08,2.25l1.14,0c0-.72.06-1.47,0-2.21.59,0,2,0,2,0l0,2.54,1.22,0s0-2.32,0-2.59c.68,0,1.56,0,2.19,0,0,1.15-.07,2.14-.07,3.17s-.7,1.19-.92,1.58" transform="translate(-8 -8.86)"/><circle class="c" cx="58.67" cy="82.04" r="0.96"/><path class="c" d="M53,83.36h3V85.5s2.48,0,3.38,0c0-.63,0-1.4,0-2,1.08,0,2.1,0,3.15,0" transform="translate(-8 -8.86)"/><path class="e" d="M51.81,84.14" transform="translate(-8 -8.86)"/><rect class="c" x="45.51" y="78.85" width="2.4" height="1.55"/><rect class="c" x="48.84" y="78.86" width="2.4" height="1.55"/><rect class="c" x="52.17" y="78.6" width="2.4" height="1.81"/><rect class="c" x="49.39" y="81.46" width="4.94" height="1.55"/><rect class="c" x="51.05" y="83.97" width="3.81" height="1.55"/><rect class="c" x="51.53" y="86.48" width="2.86" height="1.55"/><rect class="c" x="51.53" y="88.99" width="2.8" height="1.55"/><rect class="c" x="51.64" y="91.36" width="2.86" height="1.55"/><rect class="c" x="51.7" y="93.73" width="2.75" height="1.24"/><rect class="c" x="48.57" y="94.23" width="2.12" height="0.74"/><rect class="c" x="48.57" y="92.68" width="2.12" height="0.74"/><rect class="c" x="48.57" y="90.95" width="2.12" height="0.74"/><rect class="c" x="48.57" y="89.39" width="2.12" height="0.74"/><rect class="c" x="48.57" y="88.03" width="2.12" height="0.74"/><rect class="c" x="48.57" y="86.11" width="2.12" height="1.29"/><polygon class="c" points="50.3 84.78 48.48 85.65 47.81 84.48 49.51 83.32 50.09 83.99 50.3 84.78"/><polyline class="c" points="44.93 80.98 45.74 80.98 45.74 83.1 44.93 83.1"/><polygon class="c" points="48.72 82.54 47.34 84 46.3 83.15 47.47 81.45 48.24 81.88 48.72 82.54"/><path class="c" d="M52.93,92.52h.27a0,0,0,0,1,0,0v5.07a0,0,0,0,1,0,0h-.27" transform="translate(-8 -8.86)"/><polyline class="c" points="44.99 86.76 48.28 86.76 48.28 87.25 45 87.25"/><rect class="c" x="46.99" y="84.34" width="0.36" height="3.91" rx="0.01"/><rect class="e" x="26.76" y="77.07" width="8.52" height="2.37"/><rect class="e" x="27.17" y="80.08" width="7.58" height="14.69"/><rect class="e" x="27.17" y="70.37" width="7.39" height="6.15" rx="0.63"/><path class="e" d="M35.41,79.08a4.36,4.36,0,0,1-.89-2.51c0-.65,0-1.55.08-2.19.39,0,1.74.07,2.07.08,0,.65.08,1.62.08,2.24.48,0,.71,0,1.14,0,0-.71.06-1.46,0-2.2.59,0,2,0,2,0l0,2.54,1.22,0s0-2.32,0-2.59c.67,0,1.56,0,2.19,0,0,1.15-.07,2.13-.07,3.17s-.7,1.19-.92,1.58" transform="translate(-8 -8.86)"/><circle class="e" cx="30.86" cy="81.85" r="0.96"/><path class="e" d="M53,83.36H50c0,.55,0,1.9,0,1.9H47c0-.53-.05-2-.05-2H43" transform="translate(-8 -8.86)"/><line class="e" x1="35.08" y1="78.11" x2="44.97" y2="78.11"/><rect class="e" x="35.32" y="81.33" width="5.25" height="1.41"/><rect class="e" x="35.32" y="83.82" width="3.64" height="1.21"/><rect class="e" x="35.32" y="85.99" width="3.2" height="1.63"/><polygon class="e" points="40.61 83.41 42.23 84.61 41.51 85.74 39.69 84.78 40.02 83.96 40.61 83.41"/><polygon class="e" points="42.26 81.51 43.67 82.99 42.77 83.99 41.12 82.7 41.58 81.95 42.26 81.51"/><polyline class="e" points="44.9 83.1 44.09 83.1 44.09 80.98 44.91 80.98"/><rect class="e" x="39.69" y="94.11" width="2.12" height="0.74"/><rect class="e" x="39.69" y="92.56" width="2.12" height="0.74"/><rect class="e" x="39.69" y="90.83" width="2.12" height="0.74"/><rect class="e" x="39.69" y="89.28" width="2.12" height="0.74"/><rect class="e" x="39.69" y="87.91" width="2.12" height="0.74"/><rect class="e" x="39.69" y="85.99" width="2.12" height="1.29"/><rect class="e" x="35.39" y="88.5" width="3.06" height="1.55"/><rect class="e" x="35.39" y="91.02" width="3.13" height="1.55"/><rect class="e" x="35.5" y="93.54" width="3.02" height="1.24"/><rect class="e" x="42.1" y="78.6" width="2.4" height="1.55"/><rect class="e" x="34.88" y="78.6" width="2.4" height="1.55"/><rect class="e" x="38.49" y="78.6" width="2.4" height="1.55"/><polyline class="e" points="42.16 86.76 44.59 86.76 44.59 87.25 42.17 87.25"/><rect class="e" x="43.12" y="84.16" width="0.36" height="4.08" rx="0.01"/><path class="e" d="M52.88,97.63h-.27a0,0,0,0,1,0,0V92.54s0,0,0,0h.28" transform="translate(-8 -8.86)"/><line class="c" x1="45.07" y1="78.11" x2="54.96" y2="78.11"/></svg>