<svg xmlns="http://www.w3.org/2000/svg" viewBox="0 0 90.86 119.44"><defs><style>.a{fill:#fff;}.b{fill:#375daa;}.c{fill:none;stroke:#375daa;stroke-miterlimit:10;}</style></defs><title>Blue_Hero</title><path class="a" d="M82,103.13l-27.38,31a.55.55,0,0,1-.79,0L27.47,103.81A41.58,41.58,0,0,1,20.19,92c-4.63-11.5-11-68.84-11-68.84,0-5.94,37.66-8.4,46.37-8.37,8,0,44.49,3.07,44.49,9,0,0-6.67,58-10.83,67.92A41.52,41.52,0,0,1,82,103.13Z" transform="translate(-9.19 -14.81)"/><path class="b" d="M54.28,134.25,27.53,103.81A41.81,41.81,0,0,1,20.25,92c-4.62-11.5-11-68.84-11-68.84,0-5.94,37.65-8.4,46.36-8.37" transform="translate(-9.19 -14.81)"/><path class="c" d="M54.8,15.32c8,0,44.12,3,44.12,8.94,0,0-6.61,57.53-10.73,67.34A41.13,41.13,0,0,1,81,102.89L53.87,133.58" transform="translate(-9.19 -14.81)"/><path class="b" d="M26.85,68.25c1.86-3.77,3.22-7.74,4.81-11.62.79-1.94,1.68-3.85,2.61-5.72s1.78-3.79,2.84-5.63a11.74,11.74,0,0,1,4.29-4.64,5.16,5.16,0,0,1,6.13.61,9.81,9.81,0,0,1,.95,1.31,3.87,3.87,0,0,0,1,1.11.65.65,0,0,0,1-.21,2.67,2.67,0,0,0,.23-1.38,5.36,5.36,0,0,0-3.17-4.68l-.82-.34.87-.21,4.84-1.2a10.73,10.73,0,0,1,5.08-.34,5.21,5.21,0,0,1,2.31,1.24A3.81,3.81,0,0,1,61,38.93a16.23,16.23,0,0,1-.08,2.54,2.49,2.49,0,0,0,.55,2.06l-.22-.09c.81.05,1.49-.62,2.09-1.33A7.69,7.69,0,0,1,65.46,40a3.67,3.67,0,0,1,3.09,0A6.42,6.42,0,0,1,71,41.79a43.81,43.81,0,0,1,3.11,4.94c.95,1.68,1.86,3.39,2.74,5.09L82.2,62.06l2.67,5.11c.22.43.46.84.66,1.34a2.26,2.26,0,0,1,0,1.76.77.77,0,0,1-.35.35.83.83,0,0,1-.35.06,2,2,0,0,1-.46-.05,5.48,5.48,0,0,1-.75-.23c-.47-.17-.92-.37-1.37-.58a66.6,66.6,0,0,1-9.93-6c-.78-.58-1.54-1.19-2.28-1.84s-1.36-1.42-2-2a4.66,4.66,0,0,0-2.25-1.25,2.92,2.92,0,0,0-2.31.65,4.51,4.51,0,0,0-1.38,2.17,8.07,8.07,0,0,0-.31,2.7,26.67,26.67,0,0,0,.93,5.58A20.62,20.62,0,0,0,64.9,75a13.38,13.38,0,0,1,1.35,2.64,4.13,4.13,0,0,1,.26,1.58,2.49,2.49,0,0,1-.63,1.57l-.23.26-.29-.18-3-1.81L63,78.7a11.5,11.5,0,0,0,.31,3.79l.19.79L62.71,83a8.05,8.05,0,0,1-3.26-2.63l.7-.3a5.45,5.45,0,0,1-1.09,4.35l-.29.36-.3-.36L56.68,82.2l.65-.29a5,5,0,0,1-1.63,4.42l-.37.33-.19-.46a7.49,7.49,0,0,1-.48-4l.63.25a6.18,6.18,0,0,1-4.43,2.68l-1.25.13,1-.73a3.46,3.46,0,0,0,1.21-3.66l.58.1a5.13,5.13,0,0,1-5.17,1.9l-.65-.15.53-.4a3.56,3.56,0,0,0,1.22-3.69l.55.05A5.4,5.4,0,0,1,48,80.12a1.86,1.86,0,0,1-1.74.59,1.42,1.42,0,0,1-.86-.5,1.27,1.27,0,0,1-.24-1,7.43,7.43,0,0,1,.64-1.58,36.57,36.57,0,0,0,2.11-6.12c.25-1.05.47-2.11.63-3.18s.26-2.17.48-3.24a8.43,8.43,0,0,0,.18-3.15,3.61,3.61,0,0,0-1.78-2.41,3.28,3.28,0,0,0-1.47-.41,3.85,3.85,0,0,0-1.55.18,9.77,9.77,0,0,0-2.76,1.62c-.85.66-1.63,1.41-2.48,2.12S37.38,64.36,36.48,65q-2.74,1.8-5.64,3.31c-1,.51-1.93,1-2.93,1.46-.25.11-.5.22-.75.31a.53.53,0,0,1-.41,0,.39.39,0,0,1-.21-.35,2.55,2.55,0,0,1,.35-1.57h0Zm0,0,0-.08h0a2.62,2.62,0,0,0-.33,1.57.41.41,0,0,0,.2.32c.13.06.26,0,.38,0s.51-.21.75-.33c1-.46,1.95-1,2.9-1.49,1.91-1,3.78-2.18,5.58-3.4.89-.62,1.77-1.26,2.6-1.95s1.59-1.48,2.45-2.17A10.18,10.18,0,0,1,44.25,59a4.35,4.35,0,0,1,1.67-.22,3.54,3.54,0,0,1,1.65.44,4,4,0,0,1,2,2.66,9.06,9.06,0,0,1-.12,3.33c-.21,1.07-.31,2.13-.46,3.23s-.37,2.16-.63,3.22a36,36,0,0,1-2.11,6.23,8.6,8.6,0,0,0-.59,1.44.72.72,0,0,0,.65.84,1.28,1.28,0,0,0,1.21-.43,5.46,5.46,0,0,0,.83-1.3l.34-.68.21.74a4.14,4.14,0,0,1-1.41,4.34l-.12-.55a4.49,4.49,0,0,0,4.51-1.68l.38-.52.19.63A4.11,4.11,0,0,1,51,85.07l-.23-.61a5.48,5.48,0,0,0,3.92-2.4l.86-1.29-.22,1.54a6.86,6.86,0,0,0,.45,3.61l-.57-.13A4.25,4.25,0,0,0,56.6,82l-.21-1.32.86,1,1.8,2.17h-.58a4.65,4.65,0,0,0,.91-3.72l-.33-1.72,1,1.41a7.14,7.14,0,0,0,3,2.35l-.55.47a12.3,12.3,0,0,1-.35-4l0-.66.57.34,3,1.79-.53.08a2.26,2.26,0,0,0,.19-2.31,13.57,13.57,0,0,0-1.29-2.47A21.46,21.46,0,0,1,61.85,70a28.17,28.17,0,0,1-1-5.79,6.81,6.81,0,0,1,2-5.64,3.86,3.86,0,0,1,3.07-.87,5.61,5.61,0,0,1,2.75,1.47c.76.67,1.39,1.4,2.07,2S72.2,62.42,73,63a63.67,63.67,0,0,0,9.74,6c.42.2.85.4,1.28.56a6.46,6.46,0,0,0,.63.2l.25,0c.06,0,0,0,0,0s-.08,0-.1.07l0,.06v0a1.36,1.36,0,0,0-.08-1,12.78,12.78,0,0,0-.6-1.25l-2.65-5.13L76.14,52.2c-.87-1.72-1.76-3.41-2.7-5.09a42.75,42.75,0,0,0-3-4.84,5.71,5.71,0,0,0-2.16-1.58,3,3,0,0,0-2.5,0,7.47,7.47,0,0,0-2,1.9,6.87,6.87,0,0,1-1.09,1.06,2.54,2.54,0,0,1-1.57.5H61L60.94,44a2.39,2.39,0,0,1-.67-1.26,4.63,4.63,0,0,1-.07-1.33A17,17,0,0,0,60.29,39a3.8,3.8,0,0,0-3-3.08,10.16,10.16,0,0,0-4.78.33l-4.85,1.17,0-.56a5.93,5.93,0,0,1,3.5,5.21,3.06,3.06,0,0,1-.33,1.67,1.25,1.25,0,0,1-.78.58,1.16,1.16,0,0,1-.95-.21c-1-.71-1.31-1.81-2-2.5a4.18,4.18,0,0,0-2.65-1.18,5.16,5.16,0,0,0-2.89.62,11.43,11.43,0,0,0-4.19,4.42c-1.06,1.79-2,3.7-2.91,5.56s-1.87,3.74-2.69,5.67C30.19,60.55,28.77,64.51,26.85,68.25Z" transform="translate(-9.19 -14.81)"/><path class="a" d="M54.62,82.76a7,7,0,0,1-3.79,2.12l-.29,0,.24-.19A3.67,3.67,0,0,0,52,80.82l.25,0a5,5,0,0,1-5,1.92l-.45-.1.37-.29a3.63,3.63,0,0,0,1.19-3.77l.49,0A5.48,5.48,0,0,1,48,80.11a1.85,1.85,0,0,1-1.73.61,1.52,1.52,0,0,1-.87-.5,1.3,1.3,0,0,1-.26-1,8.21,8.21,0,0,1,.63-1.6,36.43,36.43,0,0,0,2-6.13c.24-1,.44-2.11.59-3.17l.2-1.62c.06-.55.16-1.09.26-1.63A8.51,8.51,0,0,0,49,62a3.37,3.37,0,0,0-1.69-2.23,2.9,2.9,0,0,0-1.36-.36,3.34,3.34,0,0,0-1.45.18,9.44,9.44,0,0,0-2.65,1.59c-.84.66-1.59,1.41-2.45,2.14s-1.75,1.36-2.66,2q-2.74,1.84-5.64,3.4c-1,.52-1.94,1-2.94,1.48-.25.12-.51.23-.79.34l-.29.08a.82.82,0,0,1-.48-.06.79.79,0,0,1-.36-.34A.55.55,0,0,1,26.1,70l0-.13A3,3,0,0,1,26.46,68l.86.43,0,.08L26.42,68c1.88-3.71,3.28-7.65,4.91-11.54.82-1.94,1.74-3.85,2.68-5.71s1.83-3.77,2.92-5.6a12,12,0,0,1,4.42-4.63,5.24,5.24,0,0,1,6.2.68,8.94,8.94,0,0,1,.93,1.33,4.2,4.2,0,0,0,.94,1.12.67.67,0,0,0,1-.21,2.69,2.69,0,0,0,.26-1.39,5.45,5.45,0,0,0-3.16-4.82l-.37-.16.38-.09,3.9-.9a18.23,18.23,0,0,1,3.94-.66,17.46,17.46,0,0,0-3.9.81l-3.87,1V37a5.82,5.82,0,0,1,3.51,5.06,3.09,3.09,0,0,1-.29,1.66,1.26,1.26,0,0,1-.76.57,1.2,1.2,0,0,1-.95-.2c-1-.7-1.32-1.8-2-2.47a4.11,4.11,0,0,0-2.63-1.14,5,5,0,0,0-2.84.65,11.31,11.31,0,0,0-4.07,4.43c-1,1.79-1.87,3.72-2.82,5.59S33,54.91,32.15,56.84c-1.59,3.85-3,7.84-4.87,11.62L26.42,68l0-.07.85.44A2.14,2.14,0,0,0,27,69.66l0,.07,0,0a.11.11,0,0,0-.07-.06s-.08,0-.08,0l.1,0,.72-.3c1-.45,1.93-1,2.88-1.47,1.91-1,3.78-2.12,5.57-3.31.89-.61,1.77-1.24,2.59-1.91s1.61-1.46,2.49-2.14a10,10,0,0,1,2.93-1.73,4.5,4.5,0,0,1,1.77-.22,3.9,3.9,0,0,1,1.76.48A4.2,4.2,0,0,1,49.8,61.8a9,9,0,0,1-.16,3.41c-.21,1.07-.32,2.11-.49,3.22s-.39,2.16-.66,3.23a36.69,36.69,0,0,1-2.18,6.22,7.66,7.66,0,0,0-.6,1.42.71.71,0,0,0,.63.84,1.29,1.29,0,0,0,1.21-.42,5.13,5.13,0,0,0,.84-1.29l.32-.61.18.66a4.07,4.07,0,0,1-1.44,4.26l-.08-.39A4.61,4.61,0,0,0,52,80.69l.18-.22.07.27a3.88,3.88,0,0,1-1.42,4.12l0-.14A6.89,6.89,0,0,0,54.62,82.76Z" transform="translate(-9.19 -14.81)"/></svg>