<svg xmlns="http://www.w3.org/2000/svg" viewBox="0 0 91 120.27"><defs><style>.a,.d,.h{fill:#fff;}.a{stroke:#f4ea13;}.a,.b,.e,.f,.g,.h{stroke-miterlimit:10;}.b{fill:#ee292f;stroke:#ed1c24;}.c{fill:#060505;}.e,.g{fill:#3d1910;}.e{stroke:#231f20;stroke-width:0.5px;}.f{fill:none;}.f,.g{stroke:#060505;}.h{stroke:#fff;}</style></defs><title>Red_Mauer</title><path class="a" d="M55.84,17.64c8,0,44.5,5.73,44.5,9,0,0-6.68,58-10.83,67.93A41.56,41.56,0,0,1,82.27,106L54.68,137" transform="translate(-9.83 -17.14)"/><path class="b" d="M55.36,137.08,28.61,106.64a41.86,41.86,0,0,1-7.28-11.8C16.7,83.34,10.33,26,10.33,26c0-6,37.66-8.4,46.37-8.37" transform="translate(-9.83 -17.14)"/><path class="c" d="M56.3,61a2.84,2.84,0,0,1,.87.52l.82.6c.54.41,1.07.82,1.59,1.24l-.44,0c1.38-.92,2.73-1.87,4-2.89l.43-.34.29.46L66,64l1.06,1.71c.33.59.7,1.15,1,1.75-.49-.47-.94-1-1.4-1.47s-.88-1-1.29-1.56a40.25,40.25,0,0,1-2.35-3.3l.72.12A24.23,24.23,0,0,1,59.52,64l-.26.13-.18-.18c-.48-.47-.94-1-1.4-1.46L57,61.73l-.34-.38C56.55,61.23,56.46,61.07,56.3,61Z" transform="translate(-9.83 -17.14)"/><path class="c" d="M56.55,52.73a31.08,31.08,0,0,0,2.87,2.76H59a37,37,0,0,1,2.71-2.6c.47-.42,1-.81,1.46-1.2l.38-.29a1.41,1.41,0,0,1,.65-.3,1.15,1.15,0,0,1,.74.2l.4.23a22.71,22.71,0,0,1,3.21,2,6.49,6.49,0,0,1,1.92,3.3,8.72,8.72,0,0,0-2.38-2.71c-1-.64-2.14-1.11-3.23-1.74l-.55-.3a3.47,3.47,0,0,0-.54.38L62.28,53.6c-1,.76-1.92,1.55-2.86,2.36l-.24.21L59,56A16.87,16.87,0,0,1,56.55,52.73Z" transform="translate(-9.83 -17.14)"/><path class="d" d="M40.55,58.18a9.51,9.51,0,0,1,2.51-4.84,10.31,10.31,0,0,1,4.77-2.87,2.44,2.44,0,0,1,1.65,0,2.77,2.77,0,0,1,1.06,1.19,12.15,12.15,0,0,0,1.61,2c.27.27.74.73.74.64s.37-.17.56-.25l.61-.29c.83-.35,1.64-.74,2.49-1.07-.74.53-1.5,1-2.25,1.5l-.58.36a4.79,4.79,0,0,1-.63.37.76.76,0,0,1-.59,0,2.44,2.44,0,0,1-.34-.23c-.19-.14-.37-.29-.55-.44a11.22,11.22,0,0,1-1.86-2.09c-.27-.4-.47-.75-.67-.82a1.54,1.54,0,0,0-1,.08A11,11,0,0,0,43.6,53.9,11.88,11.88,0,0,0,40.55,58.18Z" transform="translate(-9.83 -17.14)"/><path class="c" d="M56.48,45.05c1.4-.23,2.82-.38,4.19-.49a3.46,3.46,0,0,0,3-2A21.64,21.64,0,0,0,65,38.68c.41-1.34.88-2.68,1.41-4-.15,1.41-.37,2.81-.65,4.18A15,15,0,0,1,64.51,43,4.66,4.66,0,0,1,63,44.75a4.16,4.16,0,0,1-2.23.58A40.08,40.08,0,0,1,56.48,45.05Z" transform="translate(-9.83 -17.14)"/><path class="d" d="M44.83,34.81a25.25,25.25,0,0,0,1.84,4c.72,1.25,1.47,2.56,2.22,3.76A4.73,4.73,0,0,0,50.22,44a4.49,4.49,0,0,0,1.88.66c.69.1,1.43.13,2.17.17s1.47.1,2.21.2a27.29,27.29,0,0,1-4.46.41,4.84,4.84,0,0,1-2.3-.64,5.57,5.57,0,0,1-1.67-1.72,35.79,35.79,0,0,1-2.08-4A13.1,13.1,0,0,1,44.83,34.81Z" transform="translate(-9.83 -17.14)"/><path class="e" d="M55.9,85.22c1.81,0,5.32-6,6.76-9.39h0a5.92,5.92,0,0,0,.57-2.19,11.27,11.27,0,0,0-1.73-5.73c-.63-1.2-1.29-2.38-2-3.55a5.57,5.57,0,0,1-.7-1.53,13.68,13.68,0,0,1-.05-3.56,30.78,30.78,0,0,1,1.4-3.83c1.45-3.37.39-7-.16-9.31a3.77,3.77,0,0,0-3.65-2.68c-2.18-.11-3.36,2-3.84,3.13-.6,1.4-1.42,6.87-.89,8,.1.22.15.48.24.71A24.48,24.48,0,0,1,53,58.43a15.32,15.32,0,0,1,.26,3.18,15.67,15.67,0,0,1-.59,4.86,4,4,0,0,1-1,1.28A8.81,8.81,0,0,0,49.18,74c.06,2.3,5.68,10.16,6.72,11.2" transform="translate(-9.83 -17.14)"/><line class="f" x1="40.55" y1="52.25" x2="52.75" y2="53.09"/><line class="f" x1="39.35" y1="56.88" x2="53.17" y2="57.95"/><line class="g" x1="41.98" y1="62.01" x2="50.55" y2="62.5"/><path class="c" d="M55.62,69.48a28.48,28.48,0,0,1,7.63.64,8.26,8.26,0,0,1,3.61,1.67,5.24,5.24,0,0,1,1.72,3.69,11.88,11.88,0,0,1-.72,3.88A19,19,0,0,0,67.11,83a11.35,11.35,0,0,0,.15,3.68A6.76,6.76,0,0,0,69,90a6.5,6.5,0,0,1-2.18-3.15A11.74,11.74,0,0,1,66.34,83,16.46,16.46,0,0,1,67,79.11a11.6,11.6,0,0,0,.63-3.58,4.38,4.38,0,0,0-1.36-3,8.22,8.22,0,0,0-3.17-1.62A44.68,44.68,0,0,0,55.62,69.48Z" transform="translate(-9.83 -17.14)"/><path class="d" d="M42.65,88.89c.6-1.1,1.3-2.31,1-3.49A8.71,8.71,0,0,0,43,83.69a3.28,3.28,0,0,1-.31-1,5.72,5.72,0,0,1,0-1A13.42,13.42,0,0,0,41.83,78a7.57,7.57,0,0,1,.1-4.06,6.31,6.31,0,0,1,2.37-3.35,8,8,0,0,1,3.9-1,68.52,68.52,0,0,1,7.73.35c-1.29.1-2.57.14-3.86.21s-2.56.06-3.81.21a7.77,7.77,0,0,0-3.43,1.06,5.37,5.37,0,0,0-1.94,2.86,6.65,6.65,0,0,0-.14,3.54,11.81,11.81,0,0,1,.65,3.9,3.09,3.09,0,0,0,.14,1.74,8.21,8.21,0,0,1,.63,1.87,3.56,3.56,0,0,1-.44,2A8.8,8.8,0,0,1,42.65,88.89Z" transform="translate(-9.83 -17.14)"/><path class="d" d="M43.08,64.86q.68-1.41,1.44-2.76l.78-1.34c.13-.23.25-.43.42-.68a1.88,1.88,0,0,1,.76-.67,1.34,1.34,0,0,1,1.15.1,5.88,5.88,0,0,1,.69.48,8.84,8.84,0,0,1,1.22,1.06,10.2,10.2,0,0,1,1.85,2.62l-.58-.15c.67-.39,1.36-.78,2-1.15l1-.54.53-.26a.8.8,0,0,1,.58-.14c-.21,0-.34.15-.49.27l-.46.37-.92.74c-.63.48-1.26.95-1.9,1.41l-.34.25-.24-.41a12.07,12.07,0,0,0-1.83-2.32c-.36-.34-.73-.67-1.11-1a5.25,5.25,0,0,0-.57-.41.44.44,0,0,0-.34-.08c-.24.06-.53.51-.84.93l-.93,1.24C44.42,63.27,43.77,64.07,43.08,64.86Z" transform="translate(-9.83 -17.14)"/><path class="h" d="M56.38,43.43c-2.18-.11-3.36,2-3.84,3.13-.6,1.41-1.42,6.88-.89,8,.1.23.15.49.24.72A23.51,23.51,0,0,1,53,58.42a15.28,15.28,0,0,1,.26,3.17,15.75,15.75,0,0,1-.59,4.87,4.08,4.08,0,0,1-1,1.28A8.77,8.77,0,0,0,49.18,74c0,2.08,6.47,11,6.75,11" transform="translate(-9.83 -17.14)"/></svg>