<svg xmlns="http://www.w3.org/2000/svg" viewBox="0 0 120.58 131.22"><defs><style>.a{fill:#fff;}.b{fill:gray;}.c{font-size:15px;fill:#d5af30;font-family:GameofThrones, Game of Thrones;}.d{fill:#212121;}</style></defs><title>Ren_ Mal</title><line class="a" x2="120.58" y2="127.8"/><path class="b" d="M20.13,16.12c1.57,1,3.08,2.13,4.62,3.19l4.51,3.29c3,2.19,6,4.44,8.88,6.72,5,5.38,10,10.67,15,16L83.33,77.27l30.15,32,15.07,16c4.14,6.16,8.31,12.29,12.16,18.72-6.19-4.23-12.07-8.74-18-13.23l-15.07-16L77.51,82.76,47.37,50.81c-5-5.31-10-10.67-15.11-15.94q-3.15-4.57-6.19-9.26l-3-4.7C22.08,19.31,21.07,17.74,20.13,16.12Z" transform="translate(-20.13 -16.12)"/><text class="c" transform="translate(53.42 27.08)">o</text><text class="c" transform="translate(97.69 71.87)">T</text><text class="c" transform="translate(10.63 71.87)">G</text><text class="c" transform="translate(56.79 111.7)">f</text><line x1="0.45" y1="131.22" x2="120.14" y2="2.58"/><path class="d" d="M20.58,147.34c.93-1.63,1.92-3.21,2.88-4.82l3-4.72q3-4.71,6.13-9.29c5.05-5.31,10-10.71,15-16.06L77.49,80.29l29.92-32.16,15-16.08c5.87-4.53,11.72-9.09,17.88-13.35-3.81,6.45-7.93,12.61-12,18.8l-15,16.08L83.35,85.74,53.43,117.9c-5,5.38-10,10.7-14.93,16.11-2.91,2.3-5.84,4.57-8.83,6.79l-4.5,3.31C23.64,145.19,22.14,146.29,20.58,147.34Z" transform="translate(-20.13 -16.12)"/></svg>