<svg xmlns="http://www.w3.org/2000/svg" viewBox="0 0 91.86 120.44"><defs><style>.a{fill:#f4e8d8;stroke:#009444;}.a,.b,.n{stroke-miterlimit:10;}.b,.e,.f,.g,.h,.j,.k,.l,.m{fill:none;}.b{stroke:#7e1917;}.c,.i{fill:#fff;}.c,.e,.f,.g,.h,.i,.j,.k,.l,.m{stroke:#231f20;}.c,.g{stroke-width:0.25px;}.d,.n{fill:#231f20;}.e{stroke-width:0.5px;}.f,.n{stroke-width:0.25px;}.h{stroke-width:0.17px;}.i,.l{stroke-width:0.38px;}.j{stroke-width:0.75px;}.k{stroke-width:0.38px;}.m{stroke-width:0.26px;}.n{stroke:#;}</style></defs><title>Banner_House_slange</title><path class="a" d="M1997.06,279.09l-27.38,31a.56.56,0,0,1-.79,0l-26.35-30.28a41.45,41.45,0,0,1-7.28-11.79c-4.63-11.5-11-68.83-11-68.83,0-6,37.66-8.4,46.37-8.37,8,0,44.49,3.06,44.49,9,0,0-6.67,58-10.83,67.92A41.23,41.23,0,0,1,1997.06,279.09Z" transform="translate(-1923.76 -190.28)"/><path class="b" d="M1969.29,310.22l-26.75-30.45a41.45,41.45,0,0,1-7.28-11.79c-4.63-11.5-11-68.83-11-68.83,0-6,37.66-8.4,46.37-8.37" transform="translate(-1923.76 -190.28)"/><path class="a" d="M1970.63,190.78c8,0,44.49,3.06,44.49,9,0,0-6.67,58-10.83,67.92a41.23,41.23,0,0,1-7.23,11.38l-27.38,31a.54.54,0,0,1-.39.17" transform="translate(-1923.76 -190.28)"/><path class="c" d="M1977.12,241.27a44.65,44.65,0,0,0,.21-6.3,49.69,49.69,0,0,1,4.69,4.71,15.31,15.31,0,0,1-1.68,6.64,10.55,10.55,0,0,0-1.35-2.78A15.79,15.79,0,0,0,1977.12,241.27Z" transform="translate(-1923.76 -190.28)"/><path class="d" d="M1978.44,237.52a31.75,31.75,0,0,1-.18,3.38c.21.21.65.72,1.08,1.27a15,15,0,0,1,1,1.38,13.72,13.72,0,0,0,.37-1.7,17.21,17.21,0,0,0,.21-1.8A31,31,0,0,0,1978.44,237.52Z" transform="translate(-1923.76 -190.28)"/><path class="e" d="M1982.31,242.89c0,.15-.09.42-.17.75s-.21.7-.32,1.08a12.74,12.74,0,0,1-.76,1.72,12.92,12.92,0,0,1,.38,1.85,12,12,0,0,1,.09,1.91,13.38,13.38,0,0,0,1.23-1.58,13.91,13.91,0,0,0,1-1.89,15.16,15.16,0,0,0-.62-2.06l-.48-1.09Z" transform="translate(-1923.76 -190.28)"/><path class="e" d="M1978.17,255.48c-.28.13-1,.47-1.69.73s-1.41.5-1.72.58a24.27,24.27,0,0,1-2,3,25.31,25.31,0,0,0,3.68-.91c.18-.29.58-1,.92-1.72S1978.06,255.76,1978.17,255.48Z" transform="translate(-1923.76 -190.28)"/><path class="e" d="M1978.14,243.54c0,.11-.1.31-.19.56l-.35.77a6.83,6.83,0,0,1-.74,1.13,7,7,0,0,1,.49,1.26,9.14,9.14,0,0,1,.26,1.39,11.27,11.27,0,0,0,1.06-1.06,10.07,10.07,0,0,0,.92-1.3,9.87,9.87,0,0,0-.63-1.47A11.43,11.43,0,0,0,1978.14,243.54Z" transform="translate(-1923.76 -190.28)"/><path class="e" d="M1975.05,252.64a19.86,19.86,0,0,1-2.94.87,19.16,19.16,0,0,1-1.5,2.73,22.73,22.73,0,0,0,3.23-.59c.14-.26.44-.9.69-1.52A15.64,15.64,0,0,0,1975.05,252.64Z" transform="translate(-1923.76 -190.28)"/><path class="f" d="M1982.71,208.15c.3-.05,1.06-.15,1.78-.23s1.45-.09,1.74-.07c-.2.19-.67.74-1.1,1.28s-.82,1.11-1,1.36q-.7.44-1.38.9a14.16,14.16,0,0,0-1.28,1,20.08,20.08,0,0,0-2.27,2.25,16.12,16.12,0,0,0-1.82,2.55,7.69,7.69,0,0,0-.9,2.79,27.77,27.77,0,0,0-1.61,2.95,27.57,27.57,0,0,1-1.1-3.36,11.78,11.78,0,0,1,.42-1.88,9.27,9.27,0,0,1,.79-1.82,18,18,0,0,1,2.14-3,22.55,22.55,0,0,1,2.6-2.57,14.9,14.9,0,0,1,1.48-1.1C1981.7,208.79,1982.2,208.47,1982.71,208.15Z" transform="translate(-1923.76 -190.28)"/><path class="f" d="M1977.64,212.24c.29-.14,1-.45,1.67-.71s1.37-.46,1.65-.53a15.61,15.61,0,0,0-.72,1.52c-.27.65-.49,1.3-.58,1.57a17.57,17.57,0,0,0-1.94,2.51,7.77,7.77,0,0,0-1.11,2.71,22.47,22.47,0,0,0-.33,3.2,27.61,27.61,0,0,0,0,3.28,22.43,22.43,0,0,0-1,3.21,23.61,23.61,0,0,1-1.76-3.05,35.65,35.65,0,0,1,0-3.58,26.28,26.28,0,0,1,.39-3.62,10.37,10.37,0,0,1,1.47-3.6A20.3,20.3,0,0,1,1977.64,212.24Z" transform="translate(-1923.76 -190.28)"/><path class="g" d="M1982,239.68c-3-3.63-6.46-5.68-9.16-9.76" transform="translate(-1923.76 -190.28)"/><path class="g" d="M1977.12,241.27c.54-3.91-.22-8.75.77-12.45" transform="translate(-1923.76 -190.28)"/><path class="g" d="M1977.12,241.27c.54-3.91-.22-8.75.77-12.45-.06-.27-.11-.54-.16-.81a27.68,27.68,0,0,1-.16-6.89,8.67,8.67,0,0,1,.62-2.86,11.74,11.74,0,0,1,1.68-2.57,17,17,0,0,1,2.46-5.62,19.55,19.55,0,0,0-6.44,2.35,16.48,16.48,0,0,0-2.43,3.81,13.89,13.89,0,0,0-1,4.53,31.75,31.75,0,0,0,.25,8.29c0,.29.11.58.17.87,2.7,4.08,6.17,6.13,9.16,9.76" transform="translate(-1923.76 -190.28)"/><path class="h" d="M1981.19,208.63a18.44,18.44,0,0,0-2.13,1.62,20.63,20.63,0,0,0-1.88,1.86,17.32,17.32,0,0,0-3,4.51,15.79,15.79,0,0,0-1,5.38,31.72,31.72,0,0,0,.08,5.15,20.53,20.53,0,0,0,2.6,3.88,38.89,38.89,0,0,0,3.14,3.15" transform="translate(-1923.76 -190.28)"/><path class="h" d="M1975.65,235.61a40.9,40.9,0,0,1,.16-4.58,18.48,18.48,0,0,1,1-4.24,29.23,29.23,0,0,1-.06-4.59,12.41,12.41,0,0,1,.72-4.17,13.81,13.81,0,0,1,2.41-3.52,19.63,19.63,0,0,1,1.59-1.57,14.47,14.47,0,0,1,1.76-1.33" transform="translate(-1923.76 -190.28)"/><path class="f" d="M1951.05,283.25a7.86,7.86,0,0,0,1.84.52,8.12,8.12,0,0,0,1.76.1,7.65,7.65,0,0,1-1.05-1.26,6.45,6.45,0,0,1-.71-1.39,8.15,8.15,0,0,1-2.55-5.13,7.61,7.61,0,0,1,1.51-5.49,9.91,9.91,0,0,1,.42-1.56,12.11,12.11,0,0,1,.66-1.54,13,13,0,0,0-1.64.6,12,12,0,0,0-1.65.87,10.71,10.71,0,0,0-1.73,3.5,10.57,10.57,0,0,0-.3,3.91A10.8,10.8,0,0,0,1951.05,283.25Z" transform="translate(-1923.76 -190.28)"/><path class="f" d="M1947.73,277.18a9.52,9.52,0,0,0,1.12,1.52,9.82,9.82,0,0,0,1.28,1.2,8.91,8.91,0,0,1,0-1.66,7.34,7.34,0,0,1,.3-1.55,7.58,7.58,0,0,1,1.08-5.59,13.7,13.7,0,0,1,4.57-4.15,31.37,31.37,0,0,1,2.07-2.68,33.8,33.8,0,0,0-3.5.33,16.54,16.54,0,0,0-5.46,5,10.1,10.1,0,0,0-1.46,3.64A10.49,10.49,0,0,0,1947.73,277.18Z" transform="translate(-1923.76 -190.28)"/><path class="g" d="M1970.53,261.64c-4.53.36-8.65-.1-13.15.15" transform="translate(-1923.76 -190.28)"/><path class="g" d="M1968.21,257c-2.55,3.22-6,6.22-8.62,9.39" transform="translate(-1923.76 -190.28)"/><path class="g" d="M1968.21,257c-2.55,3.22-6,6.22-8.62,9.39l-.8.4a18,18,0,0,0-5.39,3.77,7.76,7.76,0,0,0-1.51,2.38,6.4,6.4,0,0,0-.39,2.63,7.88,7.88,0,0,0-.43,5.65,10.46,10.46,0,0,1-4.71-5.34,11.56,11.56,0,0,1,.75-4.84,12.88,12.88,0,0,1,2.54-4,23.35,23.35,0,0,1,7-4.93l.75-.36c4.5-.25,8.62.21,13.15-.15" transform="translate(-1923.76 -190.28)"/><path class="h" d="M1949.55,282.27a11.31,11.31,0,0,1-1.69-11,12.92,12.92,0,0,1,3.26-4.58,21.67,21.67,0,0,1,4.33-3.05,67.84,67.84,0,0,1,9.1-.2" transform="translate(-1923.76 -190.28)"/><path class="h" d="M1963.18,260.13a67.57,67.57,0,0,0-6,6.66c-2.65,1.46-5,3.39-6,5.83a7.73,7.73,0,0,0,1.18,7.43" transform="translate(-1923.76 -190.28)"/><path class="c" d="M1976.14,250.48a10.64,10.64,0,0,0,2.3-1.69,9.82,9.82,0,0,0,1.89-2.43,13.17,13.17,0,0,1,.13,6.93,18.54,18.54,0,0,1-6.17,2.94A15.76,15.76,0,0,0,1976.14,250.48Z" transform="translate(-1923.76 -190.28)"/><path class="c" d="M1968.08,257.11a25.54,25.54,0,0,0,6.18-.85,27.93,27.93,0,0,1-3.87,5.45c-2.27.17-4.43.14-6.59.1C1965.31,260.27,1966.8,258.71,1968.08,257.11Z" transform="translate(-1923.76 -190.28)"/><path class="d" d="M1979.74,249a11.5,11.5,0,0,1-1.22,1.14,14,14,0,0,1-1.33,1,14,14,0,0,1-.31,1.62,14.26,14.26,0,0,1-.5,1.61c.27-.11.91-.41,1.57-.76a17.89,17.89,0,0,0,1.55-1,14.3,14.3,0,0,0,.24-1.83A12.14,12.14,0,0,0,1979.74,249Z" transform="translate(-1923.76 -190.28)"/><path class="d" d="M1972.13,257.79c-.56.11-2.79.32-3.38.33-.35.46-1.85,2.15-2.25,2.56.56,0,2.86-.05,3.49-.11C1970.41,260.1,1971.84,258.26,1972.13,257.79Z" transform="translate(-1923.76 -190.28)"/><path class="f" d="M1982.33,210.07a17.45,17.45,0,0,1,6.62-3,8.06,8.06,0,0,1,3.62.22,12.82,12.82,0,0,1,3.29,1.59" transform="translate(-1923.76 -190.28)"/><path class="f" d="M1951.17,281.38a8.72,8.72,0,0,0,6.41,3.05,9.3,9.3,0,0,0,6.72-2.39" transform="translate(-1923.76 -190.28)"/><path class="d" d="M1997.86,206.54c0,.94-2.09,1.71-3.74,1.71s-9.58.17-9.58-.77,6.2-2.65,7.84-2.65S1997.86,205.6,1997.86,206.54Z" transform="translate(-1923.76 -190.28)"/><path class="i" d="M1992.69,207.51c-1.74.22-3.15.46-4.26.7-2.26.24-4.24.37-5.92.43l3.14-.67C1988.29,207.88,1990.66,207.7,1992.69,207.51Z" transform="translate(-1923.76 -190.28)"/><path class="d" d="M1987.78,208.18c.28-.06,1.78-.32,2.27-.38-.57,0-3.08.23-3.76.26l-1.67.34C1985.1,208.39,1987.19,208.24,1987.78,208.18Z" transform="translate(-1923.76 -190.28)"/><path class="j" d="M1983,208.4l1.59-.35a20.56,20.56,0,0,1-2.32-.1c-.19.08-1.23.34-1.58.41C1981,208.39,1982.56,208.41,1983,208.4Z" transform="translate(-1923.76 -190.28)"/><path class="j" d="M1982.31,206.86a18.22,18.22,0,0,1,2.34-.34L1983,206a22,22,0,0,0-2.33.3Z" transform="translate(-1923.76 -190.28)"/><path class="j" d="M1991.39,207.59c.44-.06,2.55-.28,3.2-.32-.59,0-3.14.2-3.85.2s-2.72.28-3.2.35C1988.3,207.8,1990.85,207.64,1991.39,207.59Z" transform="translate(-1923.76 -190.28)"/><path class="j" d="M1990.8,207.08c.69,0,3.21,0,3.8.07-.64,0-2.76-.26-3.2-.35s-3.06-.12-3.81-.09C1988.07,206.8,1990.2,207.05,1990.8,207.08Z" transform="translate(-1923.76 -190.28)"/><path class="k" d="M1995.37,207.8a1.91,1.91,0,0,0,.7.15c-.11.07-.49.38-.74.58a3.89,3.89,0,0,0-.67.27l-.4.19-.43.11-1.06.3a5.34,5.34,0,0,1-.53.09l-.59.1a13.39,13.39,0,0,1-2,.06,6,6,0,0,1-1.16-.22,22.36,22.36,0,0,1,2.82-1.16c.42-.07,1.68-.32,1.94-.39A13,13,0,0,0,1995.37,207.8Z" transform="translate(-1923.76 -190.28)"/><path class="k" d="M1994.44,207.88c0,.07.1.3.21.35a10,10,0,0,1-.93.54,12.69,12.69,0,0,1-1.58.73,8.25,8.25,0,0,1-3.42,0l-1.56-.43c.53-.19,2.36-.71,2.75-.8s2.12-.3,2.46-.37Z" transform="translate(-1923.76 -190.28)"/><path class="l" d="M1982.51,208.64c1.68-.06,3.66-.19,5.92-.43,2-.21,3.76-.43,5.17-.67" transform="translate(-1923.76 -190.28)"/><path class="l" d="M1992.69,207.51c-1.74.22-3.15.46-4.26.7-1.34.28-2.94.66-4.78,1.21" transform="translate(-1923.76 -190.28)"/><path class="l" d="M1992.69,207.51c-1.74.22-3.15.46-4.26.7-1.34.28-2.94.66-4.78,1.21l.11.08a7.32,7.32,0,0,0,1.34.79l.52.26a4.51,4.51,0,0,0,.81.23,3.87,3.87,0,0,0,.54.08l.71,0a14.71,14.71,0,0,0,1.68-.09c.81-.24,1.68-.59,2.31-.83a12.83,12.83,0,0,0,1.69-.77c.51-.26.77-.42,1.06-.59s.47-.32.62-.42c-.39-.16-.47-.41-.22-.64h-1.22c-1.41.24-3.13.46-5.17.67-2.26.24-4.24.37-5.92.43" transform="translate(-1923.76 -190.28)"/><path class="m" d="M1995.19,207.72c-.81.07-1.62,0-2.43,0-1,.17-2.06.33-3.34.48-1.71.24-3.3.4-4.73.52" transform="translate(-1923.76 -190.28)"/><path class="m" d="M1991.73,207.74c-.92.16-1.68.33-2.31.5-1.06.25-2.25.57-3.52,1,.26.11.56.23.93.36a8.58,8.58,0,0,0,1.45.44,6.48,6.48,0,0,0,1.34.08,10.34,10.34,0,0,0,1.81-.17c.36-.08.6-.08.93-.17l1-.3.72-.21c.23-.09.44-.22.67-.33" transform="translate(-1923.76 -190.28)"/><path class="k" d="M1995.22,205.91a1.64,1.64,0,0,1,.63-.55l-.34-.6-.3-.49-.29-.44a5.66,5.66,0,0,0-1.58-.82l-.75-.09h-.68a7.71,7.71,0,0,0-2.27.42,9.16,9.16,0,0,0,1.53,1.63,19.74,19.74,0,0,1,2,.74A7.45,7.45,0,0,1,1995.22,205.91Z" transform="translate(-1923.76 -190.28)"/><path class="k" d="M1994.31,205.75a1,1,0,0,1,.12-.71,8.48,8.48,0,0,0-1-1.07,12.89,12.89,0,0,0-1.27-1.06c-.24,0-.45,0-.66,0a3.53,3.53,0,0,0-.6.07,2.75,2.75,0,0,0-.53.12c-.13.07-.43,0-.56.12-.32.12-.68.24-1,.38a3.25,3.25,0,0,1-.88.4,11.54,11.54,0,0,0,1.77,1.24c.49.08,2.15.47,2.5.59.34-.07.68-.13,1-.17A6.05,6.05,0,0,1,1994.31,205.75Z" transform="translate(-1923.76 -190.28)"/><path class="l" d="M1982.6,205.49a37.5,37.5,0,0,1,10.94,1.1" transform="translate(-1923.76 -190.28)"/><path class="l" d="M1992.67,206.84a20.43,20.43,0,0,1-4.36-1.19,16.15,16.15,0,0,1-3.5-2" transform="translate(-1923.76 -190.28)"/><path class="l" d="M1992.67,206.84a20.43,20.43,0,0,1-4.36-1.19,16.15,16.15,0,0,1-3.5-2l.24-.16c.34-.2.72-.4,1.12-.6.2-.1.45-.18.52-.36l.08-.11.16-.09.32-.16.64-.33c.16-.16.62-.08.76-.24a4.55,4.55,0,0,1,1.61-.42c.49.26,1,.59,1.46.88a12.59,12.59,0,0,1,1.29,1,9.76,9.76,0,0,1,1.79,2,1.12,1.12,0,0,0,0,1.38,3.25,3.25,0,0,0-1.16.11l-.06,0a37.5,37.5,0,0,0-10.94-1.1" transform="translate(-1923.76 -190.28)"/><path class="m" d="M1995.07,206.1a7,7,0,0,0-1.2-.15,5.35,5.35,0,0,0-1.2.18,26.53,26.53,0,0,0-3.4-.74,33.62,33.62,0,0,0-4.26-.47" transform="translate(-1923.76 -190.28)"/><path class="m" d="M1991.67,206.38a11.9,11.9,0,0,1-2.4-1,12.38,12.38,0,0,1-2.37-1.55l.69-.3a2.29,2.29,0,0,0,.35-.16,1.43,1.43,0,0,1,.26-.22l.75-.31.38-.16a1.39,1.39,0,0,0,.46-.09,5.34,5.34,0,0,1,1.85-.3,4,4,0,0,1,2.48.59" transform="translate(-1923.76 -190.28)"/><path class="i" d="M1991.89,207.25c-2.51.24-4.5.47-6.25.72-.84,0-1.61,0-2.31-.06a4,4,0,0,1-1.85-.51,13.17,13.17,0,0,1,4.22-.82A42.16,42.16,0,0,0,1991.89,207.25Z" transform="translate(-1923.76 -190.28)"/><path class="i" d="M1992.69,206.84a57.79,57.79,0,0,0-7-.26c-.81-.27-1.91-.62-3.09-1.11a37.51,37.51,0,0,1,5.72.17A20.28,20.28,0,0,0,1992.69,206.84Z" transform="translate(-1923.76 -190.28)"/><path class="d" d="M1985,207.83l3.44-.52c-.69-.06-2.91-.33-3.35-.42-.2,0-.7.09-1.16.19a5.49,5.49,0,0,0-1,.32,2.84,2.84,0,0,0,.95.32A9.74,9.74,0,0,0,1985,207.83Z" transform="translate(-1923.76 -190.28)"/><path class="d" d="M1986.28,206.34c.67,0,3.16.09,3.73.15a20.87,20.87,0,0,1-2.32-.65c-.54-.05-2.56-.1-3-.07C1985,205.9,1986.06,206.27,1986.28,206.34Z" transform="translate(-1923.76 -190.28)"/><path class="k" d="M1995,208.19a6.22,6.22,0,0,0,1.66-.48c.5-.23,1.11-.56,1.17-1.17" transform="translate(-1923.76 -190.28)"/><path class="k" d="M1994.84,205.08c.58.14,1.14.29,1.69.48a5.58,5.58,0,0,1,.79.35,1,1,0,0,1,.55.63" transform="translate(-1923.76 -190.28)"/><ellipse class="n" cx="70.69" cy="15.53" rx="0.7" ry="0.2"/></svg>