<svg xmlns="http://www.w3.org/2000/svg" viewBox="0 0 308.9 505.26"><defs><style>.a{fill:none;stroke:#3bb54a;}.a,.b{stroke-miterlimit:10;stroke-width:8px;}.b{fill:#3bb54a;stroke:#39b54a;}.c{fill:#fff;}</style></defs><title>Ramme_Clikt</title><rect class="a" x="4" y="4" width="262.03" height="497.26" rx="12"/><path class="b" d="M266,43.53h26.9a12,12,0,0,1,12,12V188.4a12,12,0,0,1-12,12H266a0,0,0,0,1,0,0V43.53A0,0,0,0,1,266,43.53Z"/><path class="c" d="M263.27,45a2.15,2.15,0,0,1-.45-1,25,25,0,0,1-.46-5.4l-8.05,0a2.27,2.27,0,0,0-1.69,1.06,4,4,0,0,0-.51,1l0-6.85a4.12,4.12,0,0,0,.53,1,2.26,2.26,0,0,0,1.69,1l19.48-.09a2.27,2.27,0,0,0,1.67-1.07,3.74,3.74,0,0,0,.53-1l0,4.81a13.83,13.83,0,0,1-.08,5c-.67,3.38-2.56,5.07-5.66,5.09a5.43,5.43,0,0,1-2.15-.33A11,11,0,0,1,263.27,45Zm.79-2.45a3,3,0,0,0,.64,1.65,4.7,4.7,0,0,0,4.06,1.61,6.78,6.78,0,0,0,4.87-1.71,4.13,4.13,0,0,0,1.43-3.08,9.32,9.32,0,0,0-.1-1.91c-.15-.35-.65-.53-1.5-.52-1.25,0-4.39,0-9.42-.05Z" transform="translate(20.51 27.82)"/><path class="c" d="M253.19,57.81A4.34,4.34,0,0,0,254.81,61a7.12,7.12,0,0,0,1.62,1.13l-4.22-.47-.06-13.06a3.69,3.69,0,0,0,.57,1,2.26,2.26,0,0,0,1.84,1l20-.13A3.69,3.69,0,0,0,276.19,48l0,7.8a4.1,4.1,0,0,0-1.61-2.44l-19.4.1a5,5,0,0,0-1,1.13A5.34,5.34,0,0,0,253.19,57.81Zm21.36-4.45-20,.06,20,0Z" transform="translate(20.51 27.82)"/><path class="c" d="M252.3,79.23a3.22,3.22,0,0,1,1.16,1.83l8-3.12,0-6.64-7.61-2.5c-.46,0-.85.32-1.18.94a4.1,4.1,0,0,0-.34.92l0-7A3.8,3.8,0,0,0,253.45,66a3,3,0,0,0,1,.6l21.88,8.14q-20.37,8.48-22,9.32a3.8,3.8,0,0,0-1.61,1.68,4.37,4.37,0,0,0-.41,1Zm10.56-1.66L271,74.63l-8.12-3Z" transform="translate(20.51 27.82)"/><path class="c" d="M276.45,101.63a2.47,2.47,0,0,0-.4-.82,2.52,2.52,0,0,0-1.7-1l-10.24-6.37-9.52,0a2.29,2.29,0,0,0-1.69,1.07,3.46,3.46,0,0,0-.52,1l0-6.89a3.51,3.51,0,0,0,.54,1,2.26,2.26,0,0,0,1.69,1.06L264,90.6l10.29-6.48a2.46,2.46,0,0,0,1.68-1,2.34,2.34,0,0,0,.4-.81l0,7a4,4,0,0,0-.53-1,2.32,2.32,0,0,0-1.7-1.07L266.07,92l8.14,4.75a2.26,2.26,0,0,0,1.68-1.08,3.42,3.42,0,0,0,.53-1Z" transform="translate(20.51 27.82)"/><path class="c" d="M276.1,115.24l.42.9-4.39-.88a3.37,3.37,0,0,0,1.3-.4,2.22,2.22,0,0,0,1.3-2.13l0-4.57-9,0,0,5a3.84,3.84,0,0,0,.81,2.39l-4.71-.56a2.66,2.66,0,0,0,1.28-.42,2.78,2.78,0,0,0,1.25-2.59v-3.84l-8.93.05a5,5,0,0,0-1,1.11,5.33,5.33,0,0,0-1,3.11,4.27,4.27,0,0,0,1.6,3.13,7.43,7.43,0,0,0,1.59,1.11l-4.14-.46-.06-12.82a3.74,3.74,0,0,0,.55,1,2.25,2.25,0,0,0,1.83,1l19.62-.13A3.71,3.71,0,0,0,276,102.9Z" transform="translate(20.51 27.82)"/><path class="c" d="M260.28,132.09a30.61,30.61,0,0,0-4.48,3.59q-2.66,2.76-2.18,5a1.24,1.24,0,0,1-.51-.62,6.91,6.91,0,0,1-.53-3q0-2,3.44-4.92a27.77,27.77,0,0,1,3.46-2.5,5.31,5.31,0,0,0,1.65-1.54,8.38,8.38,0,0,0,1.64-5.26l-8,0A2.3,2.3,0,0,0,253,124a4,4,0,0,0-.51,1l0-6.84a3.69,3.69,0,0,0,.52,1,2.28,2.28,0,0,0,1.69,1l19.48-.1a2.29,2.29,0,0,0,1.68-1.06,3.74,3.74,0,0,0,.52-1l0,4.82a13.56,13.56,0,0,1-.08,5q-1,5.07-5.66,5.09a5.43,5.43,0,0,1-2.15-.33,11,11,0,0,1-4.83-3.28A20.67,20.67,0,0,1,260.28,132.09Zm4.19-5.23a3.05,3.05,0,0,0,.64,1.64,4.71,4.71,0,0,0,4.06,1.61,6.84,6.84,0,0,0,4.88-1.7,4.18,4.18,0,0,0,1.43-3.08,9,9,0,0,0-.11-1.92c-.15-.35-.65-.52-1.5-.52q-1.87,0-9.42,0Z" transform="translate(20.51 27.82)"/><path class="c" d="M266.3,152.35v0l-1.47-2.7,1.6-.42,1.85,3.4v1.81l-15.63.07v-2Z" transform="translate(20.51 27.82)"/></svg>