<svg xmlns="http://www.w3.org/2000/svg" viewBox="0 0 126.13 126.63"><defs><style>.a{fill:#d8c8c2;}.b{fill:#b92025;}.c{fill:#18283f;}.d{fill:#bca270;}.e{font-size:12px;fill:#292929;font-family:tetradecorative;}</style></defs><title>Artboard 1</title><polygon class="a" points="25.8 80.99 43.62 50.45 61.16 80.83 25.8 80.99"/><polygon class="b" points="66.95 80.99 84.77 50.45 102.31 80.83 66.95 80.99"/><polygon class="c" points="46.2 45.68 64.02 15.14 81.56 45.51 46.2 45.68"/><polygon class="d" points="46.2 48.38 81.56 48.55 64.02 78.92 46.2 48.38"/><path d="M99.21,46.76c-2.89.21-5.78.34-8.67.51h-52c-2.89-.17-5.78-.3-8.67-.5,2.89-.2,5.78-.33,8.67-.5h52C93.43,46.42,96.32,46.55,99.21,46.76Z"/><path d="M93.14,31.66c-1.37,2.8-2.81,5.56-4.23,8.33l-4.67,8.08L74.91,64.24,65.58,80.41l-4.67,8.08c-1.7,2.61-3.37,5.24-5.1,7.83C57.19,93.53,58.63,90.77,60,88l4.67-8.08L74,63.74l9.34-16.17L88,39.49C89.74,36.88,91.41,34.25,93.14,31.66Z"/><path d="M35.19,32.24c1.74,2.6,3.41,5.23,5.11,7.84L45,48.17,54.3,64.35l9.34,16.18,4.67,8.09c1.42,2.78,2.86,5.54,4.24,8.34-1.73-2.6-3.4-5.23-5.1-7.84L62.78,81,53.44,64.85,44.1,48.67l-4.68-8.08C38,37.81,36.57,35.05,35.19,32.24Z"/><text class="e" transform="translate(22.48 113.32)">GAME OF THRONES</text><polygon class="b" points="64.02 78.92 63.98 58.38 81.56 48.55 64.02 78.92"/><polyline class="b" points="81.4 48.54 63.86 57.97 46.2 48.38"/><polygon class="b" points="46.27 48.5 63.73 58.37 64.02 78.92 46.27 48.5"/></svg>