<svg xmlns="http://www.w3.org/2000/svg" viewBox="0 0 126.13 126.63"><defs><style>.a{fill:#d8c8c2;}.b{fill:#b92025;}.c{fill:#18283f;}.d{fill:#bca270;}.e{fill:#fff;}.f{font-size:12px;fill:#fbb040;font-family:tetradecorative;}</style></defs><title>artbor2.0</title><polyline class="a" points="44.06 50.93 61.6 81.3 26.25 81.46"/><polygon class="b" points="67.4 81.46 85.22 50.93 102.75 81.3 67.4 81.46"/><polyline class="c" points="64.47 15.61 82 45.99 46.65 46.15 64.47 15.61"/><polygon class="d" points="46.65 48.86 82 49.02 64.47 79.39 46.65 48.86"/><path class="e" d="M99.66,47.24c-2.89.21-5.78.33-8.67.5H39c-2.89-.17-5.78-.3-8.67-.5,2.89-.21,5.78-.34,8.67-.5H91C93.88,46.9,96.77,47,99.66,47.24Z"/><path class="e" d="M93.59,32.13c-1.37,2.8-2.82,5.56-4.23,8.34l-4.67,8.08L75.35,64.71,66,80.88,61.35,89c-1.7,2.61-3.36,5.24-5.1,7.84,1.38-2.8,2.83-5.56,4.24-8.34l4.67-8.08,9.33-16.17,9.33-16.16L88.49,40C90.18,37.35,91.85,34.72,93.59,32.13Z"/><path class="e" d="M35.64,32.72c1.73,2.59,3.4,5.22,5.1,7.84l4.67,8.09,9.34,16.17L64.09,81l4.67,8.09c1.41,2.78,2.86,5.54,4.24,8.34-1.73-2.59-3.4-5.23-5.11-7.84L63.22,81.5,53.88,65.32,44.54,49.15l-4.67-8.09C38.46,38.28,37,35.52,35.64,32.72Z"/><text class="f" transform="translate(22.92 113.79)">GAME OF THRONES</text><polygon class="b" points="64.47 79.39 64.42 58.85 82 49.02 64.47 79.39"/><polyline class="b" points="81.84 49.02 64.31 58.45 46.65 48.86"/><polygon class="b" points="46.72 48.98 64.17 58.84 64.47 79.39 46.72 48.98"/></svg>