<svg xmlns="http://www.w3.org/2000/svg" viewBox="0 0 91.86 120.44"><defs><style>.a{fill:#f4e8d8;stroke:#080707;}.a,.b,.c{stroke-miterlimit:10;}.b,.c,.f,.g,.h,.i{fill:none;}.b{stroke:#1b75bc;}.c{stroke:#b1c0d7;}.d{fill:#fff;}.d,.f,.g,.h,.i{stroke:#231f20;}.d,.h{stroke-width:0.13px;}.e{fill:#231f20;}.f{stroke-width:0.25px;}.g{stroke-width:0.13px;}.i{stroke-width:0.09px;}.j{fill:#27aae1;}.k{fill:#2b3990;}.l{fill:#1b75bc;}</style></defs><title>Banner_Whater</title><path class="a" d="M2109.34,281.44l-27.38,31a.55.55,0,0,1-.79,0l-26.36-30.27a41.78,41.78,0,0,1-7.27-11.79c-4.63-11.5-11-68.83-11-68.83,0-5.95,37.65-8.41,46.36-8.38,8,0,44.5,3.07,44.5,9,0,0-6.68,58-10.83,67.92A41.52,41.52,0,0,1,2109.34,281.44Z" transform="translate(-2036.04 -192.62)"/><path class="b" d="M2081.56,312.56l-26.75-30.44a41.78,41.78,0,0,1-7.27-11.79c-4.63-11.5-11-68.83-11-68.83,0-5.95,37.65-8.41,46.36-8.38" transform="translate(-2036.04 -192.62)"/><path class="c" d="M2082.9,193.12c8,0,44.5,3.07,44.5,9,0,0-6.68,58-10.83,67.92a41.52,41.52,0,0,1-7.23,11.38l-27.38,31a.5.5,0,0,1-.4.16" transform="translate(-2036.04 -192.62)"/><path class="d" d="M2083.48,215.66a7,7,0,0,1,1.62-.43,1.66,1.66,0,0,1,.86.08,3.87,3.87,0,0,1,.68.3,2.67,2.67,0,0,0-.61.3.94.94,0,0,0-.38.41,5.11,5.11,0,0,0-.44,1.13,3.49,3.49,0,0,0-1.67,1.06.88.88,0,0,0-.7.15c.11-.52.2-1,.27-1.33C2083.27,216.65,2083.09,216.41,2083.48,215.66Z" transform="translate(-2036.04 -192.62)"/><path class="e" d="M2085.45,215.74a5,5,0,0,0-1.57.34,4.19,4.19,0,0,0-.25.76c-.05.27-.15.62-.18.77a3.94,3.94,0,0,0,.65-.31,5.81,5.81,0,0,1,.7-.27A4.47,4.47,0,0,1,2085.45,215.74Z" transform="translate(-2036.04 -192.62)"/><path class="f" d="M2084.12,218.52c-.14.17-.26.39-.38.53a1.46,1.46,0,0,0-.87,0c0,.15-.2.49-.28.75a5.26,5.26,0,0,0-.16.51s.05-.11.17-.08a1.27,1.27,0,0,1,.4.17,3.9,3.9,0,0,0,.42-.32,6.59,6.59,0,0,0,.54-.42C2084,219.24,2084.06,218.83,2084.12,218.52Z" transform="translate(-2036.04 -192.62)"/><path class="f" d="M2082,219.7l-.58-1.26a3.36,3.36,0,0,0-.07-.64l-.31-.19-.41-.07-.69,0a4.66,4.66,0,0,1,.3.6,1.2,1.2,0,0,1,.11.34,6.35,6.35,0,0,1,.13.81,3.84,3.84,0,0,1,.14.36l.1.45C2081.47,219.84,2081.75,219.72,2082,219.7Z" transform="translate(-2036.04 -192.62)"/><path class="f" d="M2083,216.53a.54.54,0,0,1-.19-.07.65.65,0,0,1-.23-.45,5.75,5.75,0,0,1,0,.7c0,.4-.05.79-.06.94a.88.88,0,0,0,.08.34.23.23,0,0,0,.2.12c.09-.48.15-.87.19-1.2C2083,216.77,2083,216.64,2083,216.53Z" transform="translate(-2036.04 -192.62)"/><path class="f" d="M2082.35,217.06a5,5,0,0,1,.06-1,.69.69,0,0,1,.05-.17l-.11.09-.54-.16c-.36-.08-.71-.12-.86-.14a6.89,6.89,0,0,1,.47.69c.09.15.17.3.24.44a2.16,2.16,0,0,1,.08.26l.21,0C2082.15,217.19,2082.27,217.18,2082.35,217.06Z" transform="translate(-2036.04 -192.62)"/><path class="g" d="M2087.16,225.4c-.22.13-1,.65-1.18.79.13-.18.62-1,.74-1.21.66-.75,1.32-1.5,2-2.27a5.26,5.26,0,0,0,1.2-2.46,5.68,5.68,0,0,0,.62-1.26,4.66,4.66,0,0,1,.36,1.48,6,6,0,0,1-1.56,2.79C2088.59,224,2087.88,224.7,2087.16,225.4Z" transform="translate(-2036.04 -192.62)"/><path class="g" d="M2089.08,223.49c-.23.13-1,.62-1.24.75.12-.2.54-1.05.63-1.29a6.73,6.73,0,0,0,.84-1.15,5.33,5.33,0,0,0,.5-1.27,5.22,5.22,0,0,0,.16-1.36,2.84,2.84,0,0,0-.46-1.09,5.25,5.25,0,0,0-.39-1.36,4.6,4.6,0,0,1,1.35.77,3.42,3.42,0,0,1,.56,1.69,6.23,6.23,0,0,1-.26,1.61,6.62,6.62,0,0,1-.68,1.48A8.85,8.85,0,0,1,2089.08,223.49Z" transform="translate(-2036.04 -192.62)"/><path class="h" d="M2085.21,217.45a5.11,5.11,0,0,1,.44-1.13.94.94,0,0,1,.38-.41,2.89,2.89,0,0,1,.61-.3,4.22,4.22,0,0,1,3.09.15" transform="translate(-2036.04 -192.62)"/><path class="h" d="M2083.48,215.66a7.15,7.15,0,0,1,1.62-.43,1.66,1.66,0,0,1,.86.08,3.87,3.87,0,0,1,.68.3,3.57,3.57,0,0,1,1.63,1.84" transform="translate(-2036.04 -192.62)"/><path class="h" d="M2083.48,215.66a7.15,7.15,0,0,1,1.62-.43,1.66,1.66,0,0,1,.86.08,3.87,3.87,0,0,1,.68.3,3.57,3.57,0,0,1,1.63,1.84l.24.21a4.21,4.21,0,0,1,.79,1c.1.17.17.41.2.43l.27,0h-.27v.27a2,2,0,0,1,0,.35,4.76,4.76,0,0,1-1,2.59,14.83,14.83,0,0,1-1.18,2.44c.76-.49,1.55-.94,2.38-1.42a6.31,6.31,0,0,0,1.71-3.4,3.86,3.86,0,0,0,.06-.49,2.71,2.71,0,0,0,0-.6,4.32,4.32,0,0,0-.33-1.11,6.36,6.36,0,0,0-1.13-1.68c-.1-.1-.19-.21-.3-.3a4.22,4.22,0,0,0-3.09-.15,2.89,2.89,0,0,0-.61.3.94.94,0,0,0-.38.41,5.11,5.11,0,0,0-.44,1.13" transform="translate(-2036.04 -192.62)"/><path class="i" d="M2087.7,225c.51-.49,1-1,1.53-1.51a6.48,6.48,0,0,0,1.36-1.87,6.21,6.21,0,0,0,.6-2.29,3,3,0,0,0,0-.33,2.87,2.87,0,0,0-.06-.4,4.5,4.5,0,0,0-.21-.62,5.92,5.92,0,0,0-.61-1.07,3.71,3.71,0,0,0-3.71-.48" transform="translate(-2036.04 -192.62)"/><path class="i" d="M2086.75,214.79a4.33,4.33,0,0,1,2.36,3.05,2.71,2.71,0,0,1,.7,1.46,5.33,5.33,0,0,1-.35,1.85,5.4,5.4,0,0,1-1,1.65l-1.36,1.63" transform="translate(-2036.04 -192.62)"/><path class="g" d="M2077.74,226.16c.24.08,1.1.46,1.3.56-.16-.15-.78-.86-.94-1.06a9.09,9.09,0,0,1-3.51-4.4,4.44,4.44,0,0,1-.66-1.22,4.08,4.08,0,0,0-.23.72,3.92,3.92,0,0,0-.08.8A9.42,9.42,0,0,0,2077.74,226.16Z" transform="translate(-2036.04 -192.62)"/><path class="g" d="M2075.56,224.47c.24.14,1.11.56,1.32.65a7.16,7.16,0,0,1-.73-1.22,6.89,6.89,0,0,1-1.48-2.37,4,4,0,0,1,0-2.61,5.71,5.71,0,0,1,0-1.43,5.5,5.5,0,0,0-1.11,1.1,5.09,5.09,0,0,0,.14,3.29A7.46,7.46,0,0,0,2075.56,224.47Z" transform="translate(-2036.04 -192.62)"/><path class="h" d="M2079,217.36a5.69,5.69,0,0,0-2.21-1.51,2.13,2.13,0,0,0-1.58.06,6.2,6.2,0,0,0-1.36.85" transform="translate(-2036.04 -192.62)"/><path class="h" d="M2079.7,215a7.67,7.67,0,0,0-2.92.88,1.58,1.58,0,0,0-.78.91,6.17,6.17,0,0,0-.26,1.19" transform="translate(-2036.04 -192.62)"/><path class="h" d="M2079.7,215a7.67,7.67,0,0,0-2.92.88,1.58,1.58,0,0,0-.78.91,6.17,6.17,0,0,0-.26,1.19l-.18.28a4.24,4.24,0,0,0-.61,2.52,5.51,5.51,0,0,0,1.15,2.54,7.42,7.42,0,0,0,1.35,2.27,23.42,23.42,0,0,1-2.55-1.22A6.92,6.92,0,0,1,2073,221a6.14,6.14,0,0,1,.62-3.92,4,4,0,0,1,.2-.35,6.2,6.2,0,0,1,1.36-.85,2.13,2.13,0,0,1,1.58-.06,5.69,5.69,0,0,1,2.21,1.51" transform="translate(-2036.04 -192.62)"/><path class="i" d="M2077.14,225.88a10.2,10.2,0,0,1-3.17-3.17,5.2,5.2,0,0,1-.73-2.3,5.53,5.53,0,0,1,.37-2.39,5.3,5.3,0,0,1,1.62-1.28,1.55,1.55,0,0,1,1.63-.05" transform="translate(-2036.04 -192.62)"/><path class="i" d="M2076.63,215a3.43,3.43,0,0,0-1,.74,2.29,2.29,0,0,0-.45,1,5.7,5.7,0,0,0-.21,1.84,4.43,4.43,0,0,0-.39,1.78,4,4,0,0,0,.45,1.76,9.59,9.59,0,0,0,2.58,3.06" transform="translate(-2036.04 -192.62)"/><path class="d" d="M2082.48,217.09l0,1.07c0,.47.06.62.37.52a10.22,10.22,0,0,0-.44,1.85.3.3,0,0,0-.06-.22c-.1-.37-.44-1.22-.71-2.42a1.6,1.6,0,0,0-.08-.48,1.61,1.61,0,0,1,.25.1C2082.28,217.76,2082.41,217.66,2082.48,217.09Z" transform="translate(-2036.04 -192.62)"/><path class="d" d="M2079.63,215a7.31,7.31,0,0,1,.61.52,4.09,4.09,0,0,1,.57.61,6.08,6.08,0,0,1,.72,1.32,5.46,5.46,0,0,0-1.37-.23,6.75,6.75,0,0,0-1.22.17,5.63,5.63,0,0,0-2.22-1.48A7.42,7.42,0,0,1,2079.63,215Z" transform="translate(-2036.04 -192.62)"/><path class="e" d="M2082.47,219.8s0-.07,0-.17V218.4c0,.06-.05.16-.12.18a.28.28,0,0,1-.22-.05c0,.26.22,1.31.27,1.59a2.09,2.09,0,0,1,0,.41A6,6,0,0,1,2082.47,219.8Z" transform="translate(-2036.04 -192.62)"/><path class="e" d="M2080.61,216.71a5.2,5.2,0,0,0-1.07-1.19,11.39,11.39,0,0,0-1.55.35,8.1,8.1,0,0,1,1.17.93A5,5,0,0,1,2080.61,216.71Z" transform="translate(-2036.04 -192.62)"/><path class="g" d="M2087.33,224.76c-1.48,1.55-2.95,3.12-4.56,4.54" transform="translate(-2036.04 -192.62)"/><polyline class="g" points="41.47 32.98 45.88 36.17 46.73 36.67"/><path class="d" d="M2065.1,217.36A5.82,5.82,0,0,1,2067,217h0v0a5.06,5.06,0,0,0,.31,1.68,5.21,5.21,0,0,0-1.65.53A6.05,6.05,0,0,1,2065.1,217.36Z" transform="translate(-2036.04 -192.62)"/><path class="e" d="M2066.6,217.44a7.22,7.22,0,0,0-1,.22,5.61,5.61,0,0,0,.26,1,5.92,5.92,0,0,1,.91-.27A5.9,5.9,0,0,1,2066.6,217.44Z" transform="translate(-2036.04 -192.62)"/><path class="f" d="M2066.86,219a6.48,6.48,0,0,0-.86.32,4.83,4.83,0,0,0,.52.76,4.25,4.25,0,0,1,.79-.33A4.38,4.38,0,0,1,2066.86,219Z" transform="translate(-2036.04 -192.62)"/><path class="f" d="M2066.46,221a3.57,3.57,0,0,0-.58.68,6,6,0,0,0,.84.35,2.75,2.75,0,0,1,.49-.69A3.15,3.15,0,0,1,2066.46,221Z" transform="translate(-2036.04 -192.62)"/><path class="f" d="M2065,218.12a7.43,7.43,0,0,0-1,.56,7.44,7.44,0,0,0,.45,1,5.53,5.53,0,0,1,.86-.6A6.84,6.84,0,0,1,2065,218.12Z" transform="translate(-2036.04 -192.62)"/><path class="f" d="M2064.36,221.2a4.81,4.81,0,0,0-.52,1,5,5,0,0,0,.93.64,5.93,5.93,0,0,1,.4-1A4.84,4.84,0,0,1,2064.36,221.2Z" transform="translate(-2036.04 -192.62)"/><path class="g" d="M2073.48,217.48a1.77,1.77,0,0,1,0,.57,3.11,3.11,0,0,1-.12.49,2.74,2.74,0,0,0-.45-.12,1.49,1.49,0,0,0-.43,0,4.64,4.64,0,0,0-2.33-1.15,7.46,7.46,0,0,0-.54-.8c.13-.1.69-.46.85-.54a8,8,0,0,1,1.6.55A6.59,6.59,0,0,1,2073.48,217.48Z" transform="translate(-2036.04 -192.62)"/><path class="g" d="M2072.22,216.56a7.84,7.84,0,0,1,.25,1,5.84,5.84,0,0,0-.94.22,6.93,6.93,0,0,0-2.6-.67,4.65,4.65,0,0,0-.67-.66,4.84,4.84,0,0,1,.72-.71,8.76,8.76,0,0,1,1.64.25A7.13,7.13,0,0,1,2072.22,216.56Z" transform="translate(-2036.04 -192.62)"/><path class="h" d="M2067.31,218.68A5.06,5.06,0,0,1,2067,217a2,2,0,0,1,.27-1,4.56,4.56,0,0,1,.72-.87" transform="translate(-2036.04 -192.62)"/><path class="h" d="M2065.1,217.36A5.82,5.82,0,0,1,2067,217a1.49,1.49,0,0,1,.83.21,3.45,3.45,0,0,1,.56.52" transform="translate(-2036.04 -192.62)"/><path class="h" d="M2065.1,217.36A5.82,5.82,0,0,1,2067,217a1.49,1.49,0,0,1,.83.21,3.45,3.45,0,0,1,.56.52h.13a6.41,6.41,0,0,1,2.61.5,1.85,1.85,0,0,1,.77-.28,6.21,6.21,0,0,1,.88-.15,6.1,6.1,0,0,0-.18-.93,3.41,3.41,0,0,0-.38-1,9.46,9.46,0,0,0-1.91-.59,6.85,6.85,0,0,0-2.06-.14l-.23,0a4.56,4.56,0,0,0-.72.87,2,2,0,0,0-.27,1,5.06,5.06,0,0,0,.31,1.68" transform="translate(-2036.04 -192.62)"/><path class="i" d="M2073.3,217a7.24,7.24,0,0,0-1-.68,5.93,5.93,0,0,0-1.19-.48,8.42,8.42,0,0,0-2.39-.38,3.91,3.91,0,0,0-.9,1,1.45,1.45,0,0,0-.17,1.09" transform="translate(-2036.04 -192.62)"/><path class="i" d="M2066.39,216.31a2.16,2.16,0,0,1,1.41.21,3.18,3.18,0,0,1,.92.78,6.56,6.56,0,0,1,1.86.3,5.21,5.21,0,0,1,.82.32,6.92,6.92,0,0,1,.77.52" transform="translate(-2036.04 -192.62)"/><path class="g" d="M2071.35,228.75l1-.14c0-.16-.13-.79-.16-1l-2.47-1.79-1,.14c0,.16.13.8.16,1Z" transform="translate(-2036.04 -192.62)"/><path class="g" d="M2070.25,228l1-.14c0-.16-.13-.79-.16-1-.81-.6-1.68-1.18-2.41-1.79l-1,.06c0,.16.06.82.08,1C2068.61,226.8,2069.43,227.34,2070.25,228Z" transform="translate(-2036.04 -192.62)"/><path class="h" d="M2067.14,222.4a7.7,7.7,0,0,0-.4,3.6" transform="translate(-2036.04 -192.62)"/><path class="h" d="M2064.87,223.62a7.75,7.75,0,0,0,3.64.51" transform="translate(-2036.04 -192.62)"/><path class="h" d="M2064.87,223.62a7.75,7.75,0,0,0,3.64.51l.14.13a13.33,13.33,0,0,0,1.2,1l1.36,1,.32,1.8-1.85.27-1.37-1a16.89,16.89,0,0,1-1.43-1.16l-.14-.13a7.7,7.7,0,0,1,.4-3.6" transform="translate(-2036.04 -192.62)"/><path class="i" d="M2071,228.73l-1.75-1.27c-.57-.41-1.19-.84-1.77-1.35a9.52,9.52,0,0,1,0-2.56" transform="translate(-2036.04 -192.62)"/><path class="i" d="M2066.05,224.68a9.69,9.69,0,0,0,2.57.07,19.47,19.47,0,0,0,1.66,1.27l1.75,1.27" transform="translate(-2036.04 -192.62)"/><path class="d" d="M2064.12,220.43a5.27,5.27,0,0,1,1.54-1.21,4.11,4.11,0,0,0,1,1.36,3.72,3.72,0,0,0-1.16,1.23A4.62,4.62,0,0,1,2064.12,220.43Z" transform="translate(-2036.04 -192.62)"/><path class="d" d="M2064.89,223.65a6.19,6.19,0,0,1,.64-1.83,5,5,0,0,0,1.62.6,6.2,6.2,0,0,0-.4,1.71A7.4,7.4,0,0,1,2064.89,223.65Z" transform="translate(-2036.04 -192.62)"/><path class="e" d="M2065.5,219.8a5.07,5.07,0,0,0-.78.65,5.53,5.53,0,0,0,.7.74,4.64,4.64,0,0,1,.67-.66A5.23,5.23,0,0,1,2065.5,219.8Z" transform="translate(-2036.04 -192.62)"/><path class="e" d="M2065.71,222.37a6.74,6.74,0,0,0-.31,1,6.2,6.2,0,0,0,1,.28,7,7,0,0,1,.24-.93A5,5,0,0,1,2065.71,222.37Z" transform="translate(-2036.04 -192.62)"/><path class="g" d="M2072.75,217.77a2.59,2.59,0,0,1,.82,1.36,5.13,5.13,0,0,1,.24,1.6" transform="translate(-2036.04 -192.62)"/><path class="g" d="M2071.56,228a26,26,0,0,0,2.69,1.83" transform="translate(-2036.04 -192.62)"/><path class="d" d="M2099.09,223a5.76,5.76,0,0,1-1.86.4,4.49,4.49,0,0,0-.4-1.63,4.84,4.84,0,0,0,1.6-.55A5.81,5.81,0,0,1,2099.09,223Z" transform="translate(-2036.04 -192.62)"/><path class="e" d="M2097.6,223a5.86,5.86,0,0,0,1-.24,6,6,0,0,0-.32-.93,5.38,5.38,0,0,1-.89.27A4.62,4.62,0,0,1,2097.6,223Z" transform="translate(-2036.04 -192.62)"/><path class="f" d="M2097.24,221.47a4.18,4.18,0,0,0,.84-.33,6.76,6.76,0,0,0-.54-.72,3.88,3.88,0,0,1-.78.35A4.82,4.82,0,0,1,2097.24,221.47Z" transform="translate(-2036.04 -192.62)"/><path class="f" d="M2097.58,219.65a1.2,1.2,0,0,0,.27-.28,2.43,2.43,0,0,0,.2-.41,4.67,4.67,0,0,0-.88-.16,3.06,3.06,0,0,1-.36.75Z" transform="translate(-2036.04 -192.62)"/><path class="f" d="M2099.19,222.28a6,6,0,0,0,.92-.56,6.64,6.64,0,0,0-.49-1,7.83,7.83,0,0,1-.83.59A5.92,5.92,0,0,1,2099.19,222.28Z" transform="translate(-2036.04 -192.62)"/><path class="f" d="M2099.65,219.22a11.14,11.14,0,0,0,.31-1.16,6,6,0,0,0-1-.41,5.57,5.57,0,0,1-.22,1,3.35,3.35,0,0,1,.47.22A2.24,2.24,0,0,1,2099.65,219.22Z" transform="translate(-2036.04 -192.62)"/><path class="g" d="M2093.45,228.42l-1,0c0-.15,0-.79,0-1l2-2.07h1c0,.15,0,.79,0,1Z" transform="translate(-2036.04 -192.62)"/><path class="g" d="M2094.37,227.49h-1c0-.15,0-.78,0-.95l2-2.08,1,0c0,.15,0,.79,0,.95Z" transform="translate(-2036.04 -192.62)"/><path class="h" d="M2096.83,221.8a9.46,9.46,0,0,1,.51,3.44" transform="translate(-2036.04 -192.62)"/><path class="h" d="M2099.09,223a10.17,10.17,0,0,1-3.64.47" transform="translate(-2036.04 -192.62)"/><path class="h" d="M2099.09,223a10.17,10.17,0,0,1-3.64.47l-.13.14c-.72.77-1.45,1.54-2.19,2.29l0,1.79H2095c.76-.78,1.51-1.56,2.25-2.37l.11-.12a9.46,9.46,0,0,0-.51-3.44" transform="translate(-2036.04 -192.62)"/><path class="i" d="M2093.82,228.35c1-1,1.94-2,2.88-3,0-.84-.07-1.68-.16-2.5" transform="translate(-2036.04 -192.62)"/><path class="i" d="M2097.9,224c-.85.07-1.67.09-2.51.1-.93,1-1.88,2-2.84,3" transform="translate(-2036.04 -192.62)"/><path class="g" d="M2090.92,217.69a4.8,4.8,0,0,0,.19,1,5.57,5.57,0,0,1,.91-.15,5.22,5.22,0,0,1,.88-.94,3.83,3.83,0,0,1,1-.64,1.19,1.19,0,0,1,.16-.39,2.68,2.68,0,0,1,.28-.35,3.22,3.22,0,0,0-.38-.33,1.84,1.84,0,0,0-.49-.23,5,5,0,0,0-1.45.89A6.79,6.79,0,0,0,2090.92,217.69Z" transform="translate(-2036.04 -192.62)"/><path class="g" d="M2091.89,216.62a6.49,6.49,0,0,0,0,1,5.74,5.74,0,0,1,.93.05,3,3,0,0,1,1.29-.78,5.27,5.27,0,0,1,.79,0,4.5,4.5,0,0,1,.73-.55,4.13,4.13,0,0,0-.57-.81,6.16,6.16,0,0,0-1.14,0,2.7,2.7,0,0,0-1.15.46A6.25,6.25,0,0,0,2091.89,216.62Z" transform="translate(-2036.04 -192.62)"/><path class="h" d="M2096.73,218.59a4.21,4.21,0,0,0-.65-3.46" transform="translate(-2036.04 -192.62)"/><path class="h" d="M2098.71,217a4.13,4.13,0,0,0-3.41.64" transform="translate(-2036.04 -192.62)"/><path class="h" d="M2098.71,217a4.13,4.13,0,0,0-3.41.64.33.33,0,0,0-.13,0,3.11,3.11,0,0,0-1-.08.76.76,0,0,0-.32.13,4.83,4.83,0,0,0-.51.36,5.61,5.61,0,0,0-1.7-.08,6.8,6.8,0,0,1,.06-1.9,7,7,0,0,1,.86-.61,3.35,3.35,0,0,1,1.25-.45,5.58,5.58,0,0,1,2,.15,1.66,1.66,0,0,1,.21.06,4.21,4.21,0,0,1,.65,3.46" transform="translate(-2036.04 -192.62)"/><path class="i" d="M2091,217.28a7.74,7.74,0,0,1,1.2-1.16,6.58,6.58,0,0,1,.73-.48,2.85,2.85,0,0,1,1-.34,6,6,0,0,1,1.48,0,3.84,3.84,0,0,1,.93,2.29" transform="translate(-2036.04 -192.62)"/><path class="i" d="M2097.31,216.17a3.78,3.78,0,0,0-2.28,1,4.06,4.06,0,0,0-.91,0,1.19,1.19,0,0,0-.38.14,3.51,3.51,0,0,0-.49.33,6.08,6.08,0,0,0-.9.86" transform="translate(-2036.04 -192.62)"/><path class="d" d="M2099.92,220.09a5.73,5.73,0,0,1-1.49,1.15,4.93,4.93,0,0,0-1.08-1.3,2.47,2.47,0,0,0,.62-.41,2,2,0,0,0,.41-.73,2.92,2.92,0,0,1,.85.45A3.1,3.1,0,0,1,2099.92,220.09Z" transform="translate(-2036.04 -192.62)"/><path class="d" d="M2098.69,216.92a5.66,5.66,0,0,1-.31,1.88,4.49,4.49,0,0,0-1.67-.23,4.21,4.21,0,0,0,.07-1.67A5.12,5.12,0,0,1,2098.69,216.92Z" transform="translate(-2036.04 -192.62)"/><path class="e" d="M2098.56,220.69a7.12,7.12,0,0,0,.76-.62c-.05-.06-.19-.25-.33-.4a1.43,1.43,0,0,0-.4-.3,1.34,1.34,0,0,1-.28.34c-.14.12-.29.22-.36.28A4.57,4.57,0,0,1,2098.56,220.69Z" transform="translate(-2036.04 -192.62)"/><path class="e" d="M2098.11,218.31a5.81,5.81,0,0,0,.14-1,4.19,4.19,0,0,0-1-.05,4.69,4.69,0,0,1-.07.92A5.75,5.75,0,0,1,2098.11,218.31Z" transform="translate(-2036.04 -192.62)"/><path class="g" d="M2093.16,227.72c-.74.73-1.46,1.48-2.25,2.14" transform="translate(-2036.04 -192.62)"/><path class="g" d="M2091.63,217.9a4.76,4.76,0,0,0-1.11,2.83" transform="translate(-2036.04 -192.62)"/><path class="d" d="M2106.71,224.7a5.67,5.67,0,0,1-1.88.23,4.94,4.94,0,0,0-.26-1.66,4.8,4.8,0,0,0,1.64-.4A5.88,5.88,0,0,1,2106.71,224.7Z" transform="translate(-2036.04 -192.62)"/><path class="e" d="M2105.23,224.52a5.88,5.88,0,0,0,1-.16,6.59,6.59,0,0,0-.24-1,4.81,4.81,0,0,1-.9.19A5.53,5.53,0,0,1,2105.23,224.52Z" transform="translate(-2036.04 -192.62)"/><path class="f" d="M2105,223a4.88,4.88,0,0,0,.86-.25,5.14,5.14,0,0,0-.47-.76,4.81,4.81,0,0,1-.81.27A4.88,4.88,0,0,1,2105,223Z" transform="translate(-2036.04 -192.62)"/><path class="f" d="M2105.51,221.19a.9.9,0,0,0,.29-.25,3,3,0,0,0,.24-.38,4.11,4.11,0,0,0-.86-.24,3.36,3.36,0,0,1-.43.71Z" transform="translate(-2036.04 -192.62)"/><path class="f" d="M2106.88,224a7.07,7.07,0,0,0,1-.47,5.64,5.64,0,0,0-.4-1,7,7,0,0,1-.88.51A6.36,6.36,0,0,1,2106.88,224Z" transform="translate(-2036.04 -192.62)"/><path class="f" d="M2107.61,221a9.1,9.1,0,0,0,.41-1.13,5.34,5.34,0,0,0-1-.5,5.48,5.48,0,0,1-.31,1,4.53,4.53,0,0,1,.45.26A2.48,2.48,0,0,1,2107.61,221Z" transform="translate(-2036.04 -192.62)"/><path class="g" d="M2100.61,229.56l-1-.1c0-.16.06-.79.07-1l2.2-1.88,1,.08c0,.16,0,.79-.05,1Z" transform="translate(-2036.04 -192.62)"/><path class="g" d="M2101.61,228.72l-1-.09c0-.16.05-.79.06-1l2.18-1.89.95.06c0,.16,0,.8,0,1Z" transform="translate(-2036.04 -192.62)"/><path class="h" d="M2104.57,223.27a9.44,9.44,0,0,1,.2,3.47" transform="translate(-2036.04 -192.62)"/><path class="h" d="M2106.71,224.7a10.18,10.18,0,0,1-3.67.14" transform="translate(-2036.04 -192.62)"/><path class="h" d="M2106.71,224.7a10.18,10.18,0,0,1-3.67.14l-.14.13c-.78.7-1.58,1.4-2.38,2.09l-.14,1.78,1.81.17c.83-.71,1.64-1.42,2.46-2.15l.12-.12a9.44,9.44,0,0,0-.2-3.47" transform="translate(-2036.04 -192.62)"/><path class="i" d="M2101,229.52c1.06-.89,2.1-1.79,3.14-2.72,0-.83.07-1.68.06-2.5" transform="translate(-2036.04 -192.62)"/><path class="i" d="M2105.44,225.59c-.86,0-1.68-.07-2.51-.12-1,.9-2,1.8-3.1,2.68" transform="translate(-2036.04 -192.62)"/><path class="g" d="M2099.05,218.65a6,6,0,0,0,.1,1,7.28,7.28,0,0,1,.93-.07,5.27,5.27,0,0,1,1-.86,3.58,3.58,0,0,1,1-.54,1.3,1.3,0,0,1,.19-.38c.11-.13.26-.27.31-.32a3.06,3.06,0,0,0-.34-.36,2.17,2.17,0,0,0-.47-.28,5.21,5.21,0,0,0-1.53.76A6.76,6.76,0,0,0,2099.05,218.65Z" transform="translate(-2036.04 -192.62)"/><path class="g" d="M2100.11,217.67a7,7,0,0,0-.11,1,7,7,0,0,1,.93.12,4.32,4.32,0,0,1,1.05-.59,1,1,0,0,1,.48-.05,4.07,4.07,0,0,1,.61.07,3.79,3.79,0,0,1,.78-.48,4.78,4.78,0,0,0-.5-.86,4.59,4.59,0,0,0-.83-.1,2.25,2.25,0,0,0-.95.11A5.51,5.51,0,0,0,2100.11,217.67Z" transform="translate(-2036.04 -192.62)"/><path class="h" d="M2104.75,220.07a4.16,4.16,0,0,0-.33-3.5" transform="translate(-2036.04 -192.62)"/><path class="h" d="M2106.88,218.61a4.12,4.12,0,0,0-3.46.33" transform="translate(-2036.04 -192.62)"/><path class="h" d="M2106.88,218.61a4.12,4.12,0,0,0-3.46.33l-.12-.05a2.42,2.42,0,0,0-.53-.13,3.74,3.74,0,0,0-.48,0,2.47,2.47,0,0,0-.84.42,5.75,5.75,0,0,0-1.69-.24A6.91,6.91,0,0,1,2100,217a6.2,6.2,0,0,1,.87-.51,3.38,3.38,0,0,1,1.21-.35,4.88,4.88,0,0,1,1.12.06,5.87,5.87,0,0,1,1,.26,1.33,1.33,0,0,1,.21.09,4.16,4.16,0,0,1,.33,3.5" transform="translate(-2036.04 -192.62)"/><path class="i" d="M2099.13,218.24a7.11,7.11,0,0,1,1.92-1.39,2.87,2.87,0,0,1,1.39-.31,5.15,5.15,0,0,1,1.23.18,3.77,3.77,0,0,1,.72,2.36" transform="translate(-2036.04 -192.62)"/><path class="i" d="M2105.55,217.71a3.77,3.77,0,0,0-2.35.74,3.59,3.59,0,0,0-.8-.11,1,1,0,0,0-.59.14,5.18,5.18,0,0,0-1.39,1" transform="translate(-2036.04 -192.62)"/><path class="d" d="M2107.8,221.84a5.5,5.5,0,0,1-1.59,1,5,5,0,0,0-.95-1.4,2.14,2.14,0,0,1,.28-.12,1.55,1.55,0,0,0,.84-.91,2.4,2.4,0,0,1,1.2,1C2107.66,221.59,2107.73,221.74,2107.8,221.84Z" transform="translate(-2036.04 -192.62)"/><path class="d" d="M2106.85,218.58a5.3,5.3,0,0,1-.47,1.84,4.32,4.32,0,0,0-1.64-.37,4.11,4.11,0,0,0,.22-1.66A5,5,0,0,1,2106.85,218.58Z" transform="translate(-2036.04 -192.62)"/><path class="e" d="M2106.39,222.32a5.6,5.6,0,0,0,.82-.55l-.24-.35a1.63,1.63,0,0,0-.42-.41,1.48,1.48,0,0,1-.39.36l-.31.2A5.7,5.7,0,0,1,2106.39,222.32Z" transform="translate(-2036.04 -192.62)"/><path class="e" d="M2106.16,219.91a5.4,5.4,0,0,0,.22-1,5.61,5.61,0,0,0-1-.13,4.67,4.67,0,0,1-.15.91A4.88,4.88,0,0,1,2106.16,219.91Z" transform="translate(-2036.04 -192.62)"/><path class="g" d="M2100.38,228.84c-.8.66-1.58,1.34-2.43,1.93" transform="translate(-2036.04 -192.62)"/><path class="g" d="M2099.74,218.92a4.75,4.75,0,0,0-1.36,2.72" transform="translate(-2036.04 -192.62)"/><path class="d" d="M2056.81,218.57a6.11,6.11,0,0,1,1.87-.38h0v0a5,5,0,0,0,.31,1.67,5.21,5.21,0,0,0-1.65.53A5.71,5.71,0,0,1,2056.81,218.57Z" transform="translate(-2036.04 -192.62)"/><path class="e" d="M2058.31,218.65a6.39,6.39,0,0,0-1,.23,5.75,5.75,0,0,0,.27,1,5.92,5.92,0,0,1,.91-.27A4.65,4.65,0,0,1,2058.31,218.65Z" transform="translate(-2036.04 -192.62)"/><path class="f" d="M2058.57,220.23a4.53,4.53,0,0,0-.86.32,4.15,4.15,0,0,0,.52.75,4.25,4.25,0,0,1,.79-.33A4.3,4.3,0,0,1,2058.57,220.23Z" transform="translate(-2036.04 -192.62)"/><path class="f" d="M2058.17,222.25a3.91,3.91,0,0,0-.58.68,5,5,0,0,0,.84.35,3,3,0,0,1,.49-.69A2.8,2.8,0,0,1,2058.17,222.25Z" transform="translate(-2036.04 -192.62)"/><path class="f" d="M2056.66,219.34a7.43,7.43,0,0,0-1,.56,7.3,7.3,0,0,0,.45,1,5.53,5.53,0,0,1,.86-.6A5.72,5.72,0,0,1,2056.66,219.34Z" transform="translate(-2036.04 -192.62)"/><path class="f" d="M2056.07,222.41a5.63,5.63,0,0,0-.53,1,4.61,4.61,0,0,0,.94.64,7.4,7.4,0,0,1,.39-1A4.78,4.78,0,0,1,2056.07,222.41Z" transform="translate(-2036.04 -192.62)"/><path class="g" d="M2065.19,218.7a2,2,0,0,1,0,.56,2.13,2.13,0,0,1-.13.49,2.26,2.26,0,0,0-.45-.12,1.09,1.09,0,0,0-.42,0,6.13,6.13,0,0,0-1.06-.74,7.39,7.39,0,0,0-1.28-.42,7.9,7.9,0,0,0-.53-.8,7.71,7.71,0,0,1,.85-.53,7.36,7.36,0,0,1,1.6.54A6.66,6.66,0,0,1,2065.19,218.7Z" transform="translate(-2036.04 -192.62)"/><path class="g" d="M2063.93,217.78a9.23,9.23,0,0,1,.25,1,7.15,7.15,0,0,0-.94.22,7,7,0,0,0-2.6-.67,4.72,4.72,0,0,0-.68-.66,6.16,6.16,0,0,1,.73-.71,8,8,0,0,1,1.64.26A6.67,6.67,0,0,1,2063.93,217.78Z" transform="translate(-2036.04 -192.62)"/><path class="h" d="M2059,219.89a5,5,0,0,1-.31-1.67,2,2,0,0,1,.27-1,4,4,0,0,1,.72-.87" transform="translate(-2036.04 -192.62)"/><path class="h" d="M2056.81,218.57a6,6,0,0,1,1.87-.38,1.45,1.45,0,0,1,.82.21,3.15,3.15,0,0,1,.57.52" transform="translate(-2036.04 -192.62)"/><path class="h" d="M2056.81,218.57a6,6,0,0,1,1.87-.38,1.45,1.45,0,0,1,.82.21,3.15,3.15,0,0,1,.57.52h.13a6.26,6.26,0,0,1,2.61.51,2,2,0,0,1,.77-.29,6.21,6.21,0,0,1,.88-.15,7.62,7.62,0,0,0-.18-.93,3.54,3.54,0,0,0-.38-1,8.91,8.91,0,0,0-1.91-.6,7.21,7.21,0,0,0-2.06-.14l-.23,0a4,4,0,0,0-.72.87,2,2,0,0,0-.27,1,5,5,0,0,0,.31,1.67" transform="translate(-2036.04 -192.62)"/><path class="i" d="M2065,218.25a7.44,7.44,0,0,0-1-.68,5.85,5.85,0,0,0-1.19-.47,7.77,7.77,0,0,0-2.39-.38,3.87,3.87,0,0,0-.9,1,1.47,1.47,0,0,0-.17,1.1" transform="translate(-2036.04 -192.62)"/><path class="i" d="M2058.1,217.52a2.16,2.16,0,0,1,1.41.21,3.34,3.34,0,0,1,.92.78,6.58,6.58,0,0,1,1.86.31,4.43,4.43,0,0,1,.82.31,6.92,6.92,0,0,1,.77.52" transform="translate(-2036.04 -192.62)"/><path class="g" d="M2063.06,230l1-.14c0-.16-.13-.79-.16-1l-2.47-1.78-1,.13c0,.16.13.8.16,1Z" transform="translate(-2036.04 -192.62)"/><path class="g" d="M2062,229.16l1-.14c0-.15-.13-.79-.16-1-.81-.6-1.68-1.18-2.41-1.79-.16,0-.8.07-1,.07,0,.15.06.81.08,1C2060.31,228,2061.14,228.56,2062,229.16Z" transform="translate(-2036.04 -192.62)"/><path class="h" d="M2058.85,223.61a7.7,7.7,0,0,0-.4,3.6" transform="translate(-2036.04 -192.62)"/><path class="h" d="M2056.58,224.83a7.89,7.89,0,0,0,3.64.52" transform="translate(-2036.04 -192.62)"/><path class="h" d="M2056.58,224.83a7.89,7.89,0,0,0,3.64.52l.14.12a13.33,13.33,0,0,0,1.2,1l1.36,1,.32,1.81-1.85.26-1.37-1a13.71,13.71,0,0,1-1.43-1.16l-.14-.13a7.7,7.7,0,0,1,.4-3.6" transform="translate(-2036.04 -192.62)"/><path class="i" d="M2062.67,229.94l-1.75-1.27c-.57-.41-1.19-.84-1.77-1.35a9.46,9.46,0,0,1,0-2.55" transform="translate(-2036.04 -192.62)"/><path class="i" d="M2057.75,225.89a9.78,9.78,0,0,0,2.58.07,19.47,19.47,0,0,0,1.66,1.27l1.75,1.27" transform="translate(-2036.04 -192.62)"/><path class="d" d="M2055.83,221.65a5.24,5.24,0,0,1,1.53-1.22,4.43,4.43,0,0,0,1,1.37,3.59,3.59,0,0,0-1.16,1.22A4.58,4.58,0,0,1,2055.83,221.65Z" transform="translate(-2036.04 -192.62)"/><path class="d" d="M2056.6,224.86a6.3,6.3,0,0,1,.64-1.83,5.18,5.18,0,0,0,1.62.61,6,6,0,0,0-.4,1.7A7,7,0,0,1,2056.6,224.86Z" transform="translate(-2036.04 -192.62)"/><path class="e" d="M2057.21,221a5.72,5.72,0,0,0-.78.65,4.52,4.52,0,0,0,.7.74,4.57,4.57,0,0,1,.67-.65A4.79,4.79,0,0,1,2057.21,221Z" transform="translate(-2036.04 -192.62)"/><path class="e" d="M2057.42,223.59a6.22,6.22,0,0,0-.31.95,6.2,6.2,0,0,0,1,.28,6.89,6.89,0,0,1,.24-.92A7.36,7.36,0,0,1,2057.42,223.59Z" transform="translate(-2036.04 -192.62)"/><path class="g" d="M2064.46,219a2.59,2.59,0,0,1,.82,1.36,5.44,5.44,0,0,1,.24,1.6" transform="translate(-2036.04 -192.62)"/><path class="g" d="M2063.27,229.25a24.41,24.41,0,0,0,2.69,1.82" transform="translate(-2036.04 -192.62)"/><path class="d" d="M2048.37,220.55a5.84,5.84,0,0,1,1.84-.54h0v0a5.09,5.09,0,0,0,.45,1.65,5,5,0,0,0-1.6.67A6.17,6.17,0,0,1,2048.37,220.55Z" transform="translate(-2036.04 -192.62)"/><path class="e" d="M2049.87,220.5a6.75,6.75,0,0,0-1,.32,7.36,7.36,0,0,0,.35.94,6,6,0,0,1,.89-.34A7,7,0,0,1,2049.87,220.5Z" transform="translate(-2036.04 -192.62)"/><path class="f" d="M2050.28,222.05a5.17,5.17,0,0,0-.83.39,4.59,4.59,0,0,0,.58.71,4.15,4.15,0,0,1,.75-.4A4.94,4.94,0,0,1,2050.28,222.05Z" transform="translate(-2036.04 -192.62)"/><path class="f" d="M2050.05,224.1a4.12,4.12,0,0,0-.52.73,6.18,6.18,0,0,0,.87.27,2.93,2.93,0,0,1,.43-.73A2.89,2.89,0,0,1,2050.05,224.1Z" transform="translate(-2036.04 -192.62)"/><path class="f" d="M2048.29,221.33a7.13,7.13,0,0,0-.9.64,6.94,6.94,0,0,0,.53,1,5.15,5.15,0,0,1,.81-.67A6.8,6.8,0,0,1,2048.29,221.33Z" transform="translate(-2036.04 -192.62)"/><path class="f" d="M2048,224.45a5.29,5.29,0,0,0-.43,1.08,5,5,0,0,0,1,.55,7.34,7.34,0,0,1,.31-1A4.32,4.32,0,0,1,2048,224.45Z" transform="translate(-2036.04 -192.62)"/><path class="g" d="M2056.73,219.94a1.75,1.75,0,0,1,.05.57,2.43,2.43,0,0,1-.08.5,2.31,2.31,0,0,0-.46-.09,1.35,1.35,0,0,0-.42.05,5.59,5.59,0,0,0-1.12-.64,7.42,7.42,0,0,0-1.31-.31,8.57,8.57,0,0,0-.6-.75c.12-.11.64-.51.8-.61a7.71,7.71,0,0,1,1.64.41A6.31,6.31,0,0,1,2056.73,219.94Z" transform="translate(-2036.04 -192.62)"/><path class="g" d="M2055.39,219.14a7.77,7.77,0,0,1,.34,1,5.7,5.7,0,0,0-.91.3,6.86,6.86,0,0,0-2.66-.44,4.68,4.68,0,0,0-.72-.6,4.66,4.66,0,0,1,.66-.77,8.13,8.13,0,0,1,1.65.11A6.61,6.61,0,0,1,2055.39,219.14Z" transform="translate(-2036.04 -192.62)"/><path class="h" d="M2050.69,221.68a5.09,5.09,0,0,1-.45-1.65,1.94,1.94,0,0,1,.18-1,4,4,0,0,1,.64-.93" transform="translate(-2036.04 -192.62)"/><path class="h" d="M2048.37,220.55a5.84,5.84,0,0,1,1.84-.54,1.49,1.49,0,0,1,.83.14,2.83,2.83,0,0,1,.61.47" transform="translate(-2036.04 -192.62)"/><path class="h" d="M2048.37,220.55a5.84,5.84,0,0,1,1.84-.54,1.49,1.49,0,0,1,.83.14,2.83,2.83,0,0,1,.61.47l.13,0a6.18,6.18,0,0,1,2.64.27,2,2,0,0,1,.74-.35,6.17,6.17,0,0,1,.87-.23,6.22,6.22,0,0,0-.26-.91,3.48,3.48,0,0,0-.46-.93,9.24,9.24,0,0,0-1.95-.42,6.9,6.9,0,0,0-2.07,0l-.23.05a4,4,0,0,0-.64.93,1.94,1.94,0,0,0-.18,1,5.09,5.09,0,0,0,.45,1.65" transform="translate(-2036.04 -192.62)"/><path class="i" d="M2056.51,219.52a7.54,7.54,0,0,0-1.07-.59,5.73,5.73,0,0,0-1.22-.37,8.07,8.07,0,0,0-2.42-.17,4,4,0,0,0-.81,1.09,1.45,1.45,0,0,0-.07,1.11" transform="translate(-2036.04 -192.62)"/><path class="i" d="M2049.57,219.4a2.18,2.18,0,0,1,1.42.08,3.23,3.23,0,0,1,1,.7,6.41,6.41,0,0,1,1.88.14,4.41,4.41,0,0,1,.85.24,7.17,7.17,0,0,1,.82.45" transform="translate(-2036.04 -192.62)"/><path class="g" d="M2055.6,231.35l1-.22-.24-.95-2.61-1.56-1,.22.24.95Z" transform="translate(-2036.04 -192.62)"/><path class="g" d="M2054.43,230.65l1-.22-.24-1c-.86-.52-1.78-1-2.56-1.57-.16,0-.79.14-1,.15,0,.16.13.81.18,1C2052.7,229.65,2053.56,230.12,2054.43,230.65Z" transform="translate(-2036.04 -192.62)"/><path class="h" d="M2050.85,225.4a7.7,7.7,0,0,0-.08,3.62" transform="translate(-2036.04 -192.62)"/><path class="h" d="M2048.7,226.81a7.72,7.72,0,0,0,3.67.19" transform="translate(-2036.04 -192.62)"/><path class="h" d="M2048.7,226.81a7.72,7.72,0,0,0,3.67.19l.15.12a14.25,14.25,0,0,0,1.28.86l1.44.86.47,1.77-1.82.42-1.45-.86c-.5-.31-1-.65-1.52-1l-.15-.12a7.7,7.7,0,0,1,.08-3.62" transform="translate(-2036.04 -192.62)"/><path class="i" d="M2055.21,231.36l-1.85-1.1c-.61-.36-1.26-.74-1.89-1.2a9.68,9.68,0,0,1-.22-2.54" transform="translate(-2036.04 -192.62)"/><path class="i" d="M2050,227.76a9.89,9.89,0,0,0,2.57-.15c.53.39,1.13.74,1.76,1.12l1.86,1.11" transform="translate(-2036.04 -192.62)"/><path class="d" d="M2047.67,223.7a5.26,5.26,0,0,1,1.42-1.34,4.43,4.43,0,0,0,1.15,1.27,3.77,3.77,0,0,0-1,1.32A4.66,4.66,0,0,1,2047.67,223.7Z" transform="translate(-2036.04 -192.62)"/><path class="d" d="M2048.72,226.84a6.25,6.25,0,0,1,.47-1.88,5.29,5.29,0,0,0,1.67.46,6,6,0,0,0-.24,1.73A7.18,7.18,0,0,1,2048.72,226.84Z" transform="translate(-2036.04 -192.62)"/><path class="e" d="M2049,223a5.44,5.44,0,0,0-.72.72,4.68,4.68,0,0,0,.76.67,4.16,4.16,0,0,1,.61-.71A4.66,4.66,0,0,1,2049,223Z" transform="translate(-2036.04 -192.62)"/><path class="e" d="M2049.42,225.5a5.64,5.64,0,0,0-.22,1,7.48,7.48,0,0,0,1,.19,5.77,5.77,0,0,1,.16-.94A7.89,7.89,0,0,1,2049.42,225.5Z" transform="translate(-2036.04 -192.62)"/><path class="g" d="M2056,220.29a2.61,2.61,0,0,1,.94,1.29,5.3,5.3,0,0,1,.38,1.57" transform="translate(-2036.04 -192.62)"/><path class="g" d="M2055.74,230.62a25.55,25.55,0,0,0,2.84,1.58" transform="translate(-2036.04 -192.62)"/><path class="d" d="M2114.46,226.09a5.74,5.74,0,0,1-1.9,0,4.5,4.5,0,0,0,0-1.68,5,5,0,0,0,1.69-.17A6,6,0,0,1,2114.46,226.09Z" transform="translate(-2036.04 -192.62)"/><path class="e" d="M2113,225.7a5.48,5.48,0,0,0,1,0,5.9,5.9,0,0,0-.1-1,7.28,7.28,0,0,1-.93.07A4.69,4.69,0,0,1,2113,225.7Z" transform="translate(-2036.04 -192.62)"/><path class="f" d="M2113,224.16a5.79,5.79,0,0,0,.89-.13,4.83,4.83,0,0,0-.36-.83,5,5,0,0,1-.84.16A4.57,4.57,0,0,1,2113,224.16Z" transform="translate(-2036.04 -192.62)"/><path class="f" d="M2113.75,222.45a.89.89,0,0,0,.33-.21,3,3,0,0,0,.29-.34,4.46,4.46,0,0,0-.82-.36,3.71,3.71,0,0,1-.52.65Z" transform="translate(-2036.04 -192.62)"/><path class="f" d="M2114.73,225.38a7.62,7.62,0,0,0,1-.34,6.32,6.32,0,0,0-.26-1,6.85,6.85,0,0,1-.94.38A6.76,6.76,0,0,1,2114.73,225.38Z" transform="translate(-2036.04 -192.62)"/><path class="f" d="M2115.86,222.51a9.26,9.26,0,0,0,.57-1.07,6.14,6.14,0,0,0-.9-.63,6.09,6.09,0,0,1-.44.93,5,5,0,0,1,.41.32A2,2,0,0,1,2115.86,222.51Z" transform="translate(-2036.04 -192.62)"/><path class="g" d="M2107.75,230.07l-.93-.23c0-.16.17-.77.21-.94l2.43-1.55.93.2c0,.16-.15.78-.18.95Z" transform="translate(-2036.04 -192.62)"/><path class="g" d="M2108.86,229.37l-.94-.22c0-.15.17-.77.2-.94l2.41-1.58.94.2c0,.15-.14.78-.17.94Z" transform="translate(-2036.04 -192.62)"/><path class="h" d="M2112.53,224.38a9.49,9.49,0,0,1-.27,3.47" transform="translate(-2036.04 -192.62)"/><path class="h" d="M2114.46,226.09a10.11,10.11,0,0,1-3.65-.37" transform="translate(-2036.04 -192.62)"/><path class="h" d="M2114.46,226.09a10.11,10.11,0,0,1-3.65-.37l-.16.11c-.87.59-1.76,1.17-2.65,1.74l-.38,1.75,1.77.42c.92-.59,1.83-1.18,2.73-1.8l.14-.09a9.49,9.49,0,0,0,.27-3.47" transform="translate(-2036.04 -192.62)"/><path class="i" d="M2108.13,230.08c1.17-.74,2.33-1.49,3.48-2.26.15-.83.31-1.66.41-2.47" transform="translate(-2036.04 -192.62)"/><path class="i" d="M2113.08,226.8c-.85-.13-1.66-.3-2.47-.47-1.13.76-2.28,1.5-3.43,2.23" transform="translate(-2036.04 -192.62)"/><path class="g" d="M2107.7,219a6.54,6.54,0,0,0,0,1,5.81,5.81,0,0,1,.93.06,5.28,5.28,0,0,1,1.07-.72,3.66,3.66,0,0,1,1.1-.39,1.21,1.21,0,0,1,.24-.35,2.64,2.64,0,0,1,.36-.28,3.2,3.2,0,0,0-.3-.4,1.74,1.74,0,0,0-.42-.34,4.9,4.9,0,0,0-1.62.54A7.4,7.4,0,0,0,2107.7,219Z" transform="translate(-2036.04 -192.62)"/><path class="g" d="M2108.89,218.22a7.35,7.35,0,0,0-.24.95,6.66,6.66,0,0,1,.9.26A2.92,2.92,0,0,1,2111,219a3.63,3.63,0,0,1,.76.18,4,4,0,0,1,.85-.37,4.72,4.72,0,0,0-.38-.92,5.3,5.3,0,0,0-1.11-.26,2.78,2.78,0,0,0-1.22.18A6.33,6.33,0,0,0,2108.89,218.22Z" transform="translate(-2036.04 -192.62)"/><path class="h" d="M2113.16,221.23a4.18,4.18,0,0,0,.15-3.51" transform="translate(-2036.04 -192.62)"/><path class="h" d="M2115.46,220.08a4.14,4.14,0,0,0-3.46-.15" transform="translate(-2036.04 -192.62)"/><path class="h" d="M2115.46,220.08a4.14,4.14,0,0,0-3.46-.15.67.67,0,0,0-.12-.06,3.07,3.07,0,0,0-1-.3.7.7,0,0,0-.34.05,4.48,4.48,0,0,0-.58.24,5.59,5.59,0,0,0-1.64-.47,6.64,6.64,0,0,1,.49-1.83,6.68,6.68,0,0,1,1-.4,3.4,3.4,0,0,1,1.32-.16,5.76,5.76,0,0,1,2,.61,1.18,1.18,0,0,1,.19.11,4.18,4.18,0,0,1-.15,3.51" transform="translate(-2036.04 -192.62)"/><path class="i" d="M2107.84,218.65a7.64,7.64,0,0,1,1.43-.86q.39-.16.81-.3a3,3,0,0,1,1-.11,5.38,5.38,0,0,1,1.43.39,3.72,3.72,0,0,1,.38,2.44" transform="translate(-2036.04 -192.62)"/><path class="i" d="M2114.27,219a3.79,3.79,0,0,0-2.43.41,3.41,3.41,0,0,0-.88-.24,1,1,0,0,0-.4,0,4.72,4.72,0,0,0-.55.21,5.83,5.83,0,0,0-1.07.64" transform="translate(-2036.04 -192.62)"/><path class="d" d="M2115.94,223.41a6,6,0,0,1-1.72.79,5,5,0,0,0-.75-1.52,1.22,1.22,0,0,1,.3-.08,1.56,1.56,0,0,0,.95-.79,2.39,2.39,0,0,1,1.05,1.19C2115.83,223.14,2115.88,223.3,2115.94,223.41Z" transform="translate(-2036.04 -192.62)"/><path class="d" d="M2115.44,220.05a5.09,5.09,0,0,1-.72,1.75,4.51,4.51,0,0,0-1.57-.59,4,4,0,0,0,.44-1.61A4.87,4.87,0,0,1,2115.44,220.05Z" transform="translate(-2036.04 -192.62)"/><path class="e" d="M2114.47,223.69a6,6,0,0,0,.89-.43l-.19-.38a1.57,1.57,0,0,0-.37-.47,1.31,1.31,0,0,1-.43.31l-.33.15A4.92,4.92,0,0,1,2114.47,223.69Z" transform="translate(-2036.04 -192.62)"/><path class="e" d="M2114.57,221.27a5.87,5.87,0,0,0,.36-.92,5.14,5.14,0,0,0-1-.27,4.28,4.28,0,0,1-.27.88A5.64,5.64,0,0,1,2114.57,221.27Z" transform="translate(-2036.04 -192.62)"/><path class="g" d="M2107.62,229.32c-.88.55-1.75,1.11-2.67,1.58" transform="translate(-2036.04 -192.62)"/><path class="g" d="M2108.35,219.41a4.74,4.74,0,0,0-1.72,2.51" transform="translate(-2036.04 -192.62)"/><path class="d" d="M2076,231c-1.11-.4-2.24-.75-3.38-1.11,1.08-.49,2.18-1,3.28-1.46,1.14.37,2.27.79,3.39,1.2C2078.15,230.07,2077.05,230.51,2076,231Z" transform="translate(-2036.04 -192.62)"/><path class="e" d="M2074.15,229.79c.29.08,1.49.49,1.8.6.3-.13,1.46-.64,1.75-.74-.29-.12-1.48-.52-1.8-.63C2075.59,229.15,2074.43,229.65,2074.15,229.79Z" transform="translate(-2036.04 -192.62)"/><path class="f" d="M2077.48,228.6l1.8.66,1.79-.69-1.8-.69Z" transform="translate(-2036.04 -192.62)"/><path class="f" d="M2084.19,228.62l1.76.73,1.81-.63L2086,228Z" transform="translate(-2036.04 -192.62)"/><path class="f" d="M2077.53,230.71l1.77.66,1.75-.69-1.76-.69Z" transform="translate(-2036.04 -192.62)"/><path class="f" d="M2084.14,230.73c.29.11,1.44.6,1.75.73l1.79-.63-1.75-.74Z" transform="translate(-2036.04 -192.62)"/><path class="g" d="M2056.62,233.44c-.34,0-1.58-.05-1.89-.06.23-.2,1.18-1,1.46-1.25a58.09,58.09,0,0,1,7.57-1.87l1.87.39c-.26.16-1.34.8-1.63,1A56,56,0,0,0,2056.62,233.44Z" transform="translate(-2036.04 -192.62)"/><path class="g" d="M2059.89,232.49l-1.88-.2,1.55-1.13a66.42,66.42,0,0,1,7.65-1.42c.32.06,1.55.38,1.85.46-.28.14-1.39.73-1.67.9A67.38,67.38,0,0,0,2059.89,232.49Z" transform="translate(-2036.04 -192.62)"/><path class="h" d="M2075.87,228.42c-2.21.94-4.38,2-6.46,3" transform="translate(-2036.04 -192.62)"/><path class="h" d="M2076,231c-2.23-.78-4.5-1.48-6.84-2.09" transform="translate(-2036.04 -192.62)"/><path class="h" d="M2076,231c-2.23-.78-4.5-1.48-6.84-2.09l-.54.06a73.28,73.28,0,0,0-8.52,1.46c-1,.68-2,1.38-3,2.13,1.2.07,2.39.21,3.56.38a69.83,69.83,0,0,1,8.3-1.42l.44,0c2.08-1.09,4.25-2.1,6.46-3" transform="translate(-2036.04 -192.62)"/><path class="i" d="M2057.46,233.4a62.63,62.63,0,0,1,10.56-2.18q2.17-1.17,4.46-2.23" transform="translate(-2036.04 -192.62)"/><path class="i" d="M2072.61,230.78q-2.37-.72-4.81-1.34a64.55,64.55,0,0,0-10.87,2.24" transform="translate(-2036.04 -192.62)"/><path class="g" d="M2108.71,233c.33-.05,1.58-.23,1.88-.26-.24-.19-1.29-.89-1.57-1.08-2.52-.58-5.07-1.05-7.63-1.41l-1.86.44,1.66.92Q2105,232.09,2108.71,233Z" transform="translate(-2036.04 -192.62)"/><path class="g" d="M2105.36,232.25c.32-.07,1.56-.27,1.87-.32-.26-.17-1.33-.86-1.62-1-2.54-.48-5.11-.85-7.68-1.12l-1.84.51,1.7.85Q2101.6,231.55,2105.36,232.25Z" transform="translate(-2036.04 -192.62)"/><path class="h" d="M2089.28,228.54c2.2,1,4.37,2,6.49,3" transform="translate(-2036.04 -192.62)"/><path class="h" d="M2089.17,231.12c2.24-.76,4.51-1.48,6.83-2.13" transform="translate(-2036.04 -192.62)"/><path class="h" d="M2089.17,231.12c2.24-.76,4.51-1.48,6.83-2.13l.53,0c2.86.27,5.7.64,8.53,1.15,1.05.61,2.07,1.27,3.08,1.92-1.19.19-2.37.38-3.54.62-2.77-.51-5.58-.88-8.4-1.14l-.43,0c-2.12-1.05-4.29-2.05-6.49-3" transform="translate(-2036.04 -192.62)"/><path class="i" d="M2107.87,233a94.47,94.47,0,0,0-10.72-1.69q-2.21-1.12-4.49-2.17" transform="translate(-2036.04 -192.62)"/><path class="i" d="M2092.54,230.91q2.37-.75,4.79-1.41a98.39,98.39,0,0,1,10.92,1.72" transform="translate(-2036.04 -192.62)"/><path class="d" d="M2082.6,230.93c-1.1-.45-2.2-.88-3.32-1.31,1.11-.43,2.23-.86,3.36-1.27l3.31,1.36Z" transform="translate(-2036.04 -192.62)"/><path class="d" d="M2089.25,231.12l-3.28-1.41,3.39-1.16c1.1.48,2.2,1,3.28,1.47C2091.5,230.37,2090.37,230.74,2089.25,231.12Z" transform="translate(-2036.04 -192.62)"/><path class="e" d="M2080.8,229.62l1.76.7,1.79-.65-1.76-.72Z" transform="translate(-2036.04 -192.62)"/><path class="e" d="M2087.45,229.76l1.74.76,1.81-.6-1.75-.78Z" transform="translate(-2036.04 -192.62)"/><path class="g" d="M2057.11,232.55a34.66,34.66,0,0,0-7.55,3.28" transform="translate(-2036.04 -192.62)"/><path class="g" d="M2108.22,232.13c2.69.59,5.34,1.32,8,2.17" transform="translate(-2036.04 -192.62)"/><path class="d" d="M2081.56,210.53a2.43,2.43,0,0,0-1.17-.77,2.68,2.68,0,0,1,0-.76,7.67,7.67,0,0,1,.15-.81,4,4,0,0,1,1.25.94A3.43,3.43,0,0,0,2081.56,210.53Z" transform="translate(-2036.04 -192.62)"/><path class="e" d="M2080.68,209.55a3.09,3.09,0,0,1,.63.44,4,4,0,0,1,.09-.77,3.74,3.74,0,0,0-.66-.48A3.78,3.78,0,0,0,2080.68,209.55Z" transform="translate(-2036.04 -192.62)"/><path class="f" d="M2081,208.23a4.81,4.81,0,0,1,.64.54,5.79,5.79,0,0,1,.37-.75,5.26,5.26,0,0,0-.64-.59A5.71,5.71,0,0,0,2081,208.23Z" transform="translate(-2036.04 -192.62)"/><path class="f" d="M2082.94,208a5.79,5.79,0,0,1,.37.75,4.81,4.81,0,0,1,.64-.54,5.71,5.71,0,0,0-.37-.8A6.13,6.13,0,0,0,2082.94,208Z" transform="translate(-2036.04 -192.62)"/><path class="f" d="M2081.69,210.24a3.53,3.53,0,0,1,.41.6,3.31,3.31,0,0,1,.14-.71,3.71,3.71,0,0,0-.42-.64A4.07,4.07,0,0,0,2081.69,210.24Z" transform="translate(-2036.04 -192.62)"/><path class="f" d="M2082.74,210.13a3.32,3.32,0,0,1,.15.71,3.48,3.48,0,0,1,.4-.6,4.07,4.07,0,0,0-.13-.75A3.71,3.71,0,0,0,2082.74,210.13Z" transform="translate(-2036.04 -192.62)"/><path class="g" d="M2081.19,212.18a3.32,3.32,0,0,0,0,.77,3.39,3.39,0,0,1-.69.44,2.78,2.78,0,0,1-1.46-1.74,3,3,0,0,1,.62-.53,2.45,2.45,0,0,0,.78.25A1.36,1.36,0,0,0,2081.19,212.18Z" transform="translate(-2036.04 -192.62)"/><path class="g" d="M2080.79,211.89a2.09,2.09,0,0,0-.25.7,3.05,3.05,0,0,1-.84.17,2.33,2.33,0,0,1-.62-2.14,2.8,2.8,0,0,1,.81-.25,2.22,2.22,0,0,0,.59.51A1.07,1.07,0,0,0,2080.79,211.89Z" transform="translate(-2036.04 -192.62)"/><path class="h" d="M2080.49,208.19a2.22,2.22,0,0,0,.68,2.67" transform="translate(-2036.04 -192.62)"/><path class="h" d="M2081.56,210.53a2.43,2.43,0,0,0-1.17-.77,2.8,2.8,0,0,0-1.66.07" transform="translate(-2036.04 -192.62)"/><path class="h" d="M2081.56,210.53a2.43,2.43,0,0,0-1.17-.77,2.8,2.8,0,0,0-1.66.07l-.08.18a1.7,1.7,0,0,0,2.06,2.71,1.84,1.84,0,0,1,.53-1.25.52.52,0,0,1-.09-.58l0,0a2.22,2.22,0,0,1-.68-2.67" transform="translate(-2036.04 -192.62)"/><path class="i" d="M2081.2,212a1,1,0,0,1-.48-1.1,2.07,2.07,0,0,1-1-1.71" transform="translate(-2036.04 -192.62)"/><path class="i" d="M2081,210.4a2.42,2.42,0,0,0-2.12,0,2.69,2.69,0,0,0,1.28,3.05" transform="translate(-2036.04 -192.62)"/><path class="g" d="M2083.81,212.18a4,4,0,0,1,0,.77,4.25,4.25,0,0,0,.69.43,2.73,2.73,0,0,0,1.44-1.75,2.37,2.37,0,0,0-.62-.53,2.47,2.47,0,0,1-.78.26A1.37,1.37,0,0,1,2083.81,212.18Z" transform="translate(-2036.04 -192.62)"/><path class="g" d="M2084.2,211.88a2.09,2.09,0,0,1,.25.7,3.21,3.21,0,0,0,.85.16,2.36,2.36,0,0,0,.6-2.14,2.55,2.55,0,0,0-.82-.24,2.2,2.2,0,0,1-.58.51A1.06,1.06,0,0,1,2084.2,211.88Z" transform="translate(-2036.04 -192.62)"/><path class="h" d="M2084.46,208.18a2.24,2.24,0,0,1-.65,2.68" transform="translate(-2036.04 -192.62)"/><path class="h" d="M2083.41,210.53a2.44,2.44,0,0,1,1.16-.78,2.82,2.82,0,0,1,1.67.05" transform="translate(-2036.04 -192.62)"/><path class="h" d="M2083.41,210.53a2.44,2.44,0,0,1,1.16-.78,2.82,2.82,0,0,1,1.67.05l.08.18a2.87,2.87,0,0,1-.39,2.94,2.83,2.83,0,0,1-1.64-.21,1.85,1.85,0,0,0-.54-1.24.52.52,0,0,0,.08-.58l0,0a2.24,2.24,0,0,0,.65-2.68" transform="translate(-2036.04 -192.62)"/><path class="i" d="M2083.79,211.94a.94.94,0,0,0,.47-1.1,2.06,2.06,0,0,0,1-1.72" transform="translate(-2036.04 -192.62)"/><path class="i" d="M2083.94,210.4a2.39,2.39,0,0,1,2.11,0,2.68,2.68,0,0,1-1.25,3.07" transform="translate(-2036.04 -192.62)"/><path class="d" d="M2082.49,210.34a3.83,3.83,0,0,0-.74-1.21,4.42,4.42,0,0,1,.74-1.36,4.68,4.68,0,0,1,.75,1.36A4.06,4.06,0,0,0,2082.49,210.34Z" transform="translate(-2036.04 -192.62)"/><path class="d" d="M2083.42,210.53a3.26,3.26,0,0,0-.18-1.4,4,4,0,0,1,1.25-.94,7.73,7.73,0,0,1,.16.81,2.35,2.35,0,0,1-.06.76A2.48,2.48,0,0,0,2083.42,210.53Z" transform="translate(-2036.04 -192.62)"/><path class="e" d="M2082.08,209.08a3.42,3.42,0,0,1,.4.66,4,4,0,0,1,.4-.66.47.47,0,1,0-.8,0Z" transform="translate(-2036.04 -192.62)"/><path class="e" d="M2083.56,209.21a3.37,3.37,0,0,1,.09.77,3.47,3.47,0,0,1,.64-.44,3.8,3.8,0,0,0-.07-.81A4.14,4.14,0,0,0,2083.56,209.21Z" transform="translate(-2036.04 -192.62)"/><path class="g" d="M2080.71,212.72a3.59,3.59,0,0,0,1.78.47" transform="translate(-2036.04 -192.62)"/><path class="g" d="M2084.27,212.72a3.56,3.56,0,0,1-1.78.47" transform="translate(-2036.04 -192.62)"/><path class="d" d="M2090.37,214.62a2.56,2.56,0,0,0-.82-1,2.86,2.86,0,0,1-.25-1.34,3.19,3.19,0,0,1,.85,1.06A2.91,2.91,0,0,0,2090.37,214.62Z" transform="translate(-2036.04 -192.62)"/><path class="e" d="M2089.68,213.53a2.88,2.88,0,0,1,.44.54,2.7,2.7,0,0,1-.12-.69,3.35,3.35,0,0,0-.45-.56A2.78,2.78,0,0,0,2089.68,213.53Z" transform="translate(-2036.04 -192.62)"/><path class="f" d="M2089.65,212.39a3.14,3.14,0,0,1,.43.6,3.55,3.55,0,0,1,.15-.72.41.41,0,1,0-.58.12Z" transform="translate(-2036.04 -192.62)"/><path class="f" d="M2090.73,212.27a3.55,3.55,0,0,1,.15.72,3.64,3.64,0,0,1,.43-.6.41.41,0,1,0-.58-.12Z" transform="translate(-2036.04 -192.62)"/><path class="f" d="M2090.31,214.39c.05.09.19.61.16.5h0c0-.05,0-.12,0-.19s0-.28,0-.34a4.1,4.1,0,0,0-.19-.66A3,3,0,0,0,2090.31,214.39Z" transform="translate(-2036.04 -192.62)"/><path class="f" d="M2090.54,214.37a2.45,2.45,0,0,1,0,.34c0,.07,0,.14,0,.19h0c0,.11.11-.41.16-.5a3,3,0,0,0,.09-.68A3.32,3.32,0,0,0,2090.54,214.37Z" transform="translate(-2036.04 -192.62)"/><path class="g" d="M2090.08,214.36a3.2,3.2,0,0,0-.16.68,3,3,0,0,1-.48.53,1.61,1.61,0,0,1-.83-1,1.64,1.64,0,0,1,.64-.36,1.31,1.31,0,0,0,.68,0A.37.37,0,0,0,2090.08,214.36Z" transform="translate(-2036.04 -192.62)"/><path class="g" d="M2090,214.28a2.25,2.25,0,0,0-.35.6,2.52,2.52,0,0,1-.62.36,1.44,1.44,0,0,1-.4-1.34,1.64,1.64,0,0,1,.73,0,1.48,1.48,0,0,0,.6.33Z" transform="translate(-2036.04 -192.62)"/><path class="h" d="M2089.3,212.28a2.86,2.86,0,0,0,.25,1.34,1.83,1.83,0,0,0,.38.53,1,1,0,0,0,.16.14l-.05,0" transform="translate(-2036.04 -192.62)"/><path class="h" d="M2090.37,214.62a2.21,2.21,0,0,0-2.15-1.37" transform="translate(-2036.04 -192.62)"/><path class="h" d="M2090.37,214.62a2.21,2.21,0,0,0-2.15-1.37l-.07.13a2,2,0,0,0-.16,1.17,2.08,2.08,0,0,0,.48,1,2.32,2.32,0,0,0,1.22-.61,2.36,2.36,0,0,1,.28-.6,1.64,1.64,0,0,1,.2-.26l0,0c-.21.19-.3.08-.14.15h0l.05,0a1,1,0,0,1-.16-.14,1.83,1.83,0,0,1-.38-.53,2.86,2.86,0,0,1-.25-1.34" transform="translate(-2036.04 -192.62)"/><path class="i" d="M2090.16,214.16s0-.06-.15,0l-.07,0h0a2.54,2.54,0,0,1-.24-.13,1.43,1.43,0,0,1-.34-.31,2.19,2.19,0,0,1-.42-.85" transform="translate(-2036.04 -192.62)"/><path class="i" d="M2090.13,214.31a1.79,1.79,0,0,0-1.69-.6,1.58,1.58,0,0,0,.07,1.21,1.91,1.91,0,0,0,.71.77" transform="translate(-2036.04 -192.62)"/><path class="g" d="M2090.88,214.36a2.54,2.54,0,0,1,.17.67,2.71,2.71,0,0,0,.49.53,1.62,1.62,0,0,0,.82-1,1.66,1.66,0,0,0-.64-.34,1.46,1.46,0,0,1-.69,0A.37.37,0,0,1,2090.88,214.36Z" transform="translate(-2036.04 -192.62)"/><path class="g" d="M2091,214.28a2,2,0,0,1,.36.59,2.41,2.41,0,0,0,.63.36,1.45,1.45,0,0,0,.38-1.35,1.63,1.63,0,0,0-.73,0,1.77,1.77,0,0,1-.6.33S2091.05,214.21,2091,214.28Z" transform="translate(-2036.04 -192.62)"/><path class="h" d="M2091.65,212.27a2.91,2.91,0,0,1-.25,1.35,1.75,1.75,0,0,1-.37.53l-.11.11-.06.05h0l.05,0" transform="translate(-2036.04 -192.62)"/><path class="h" d="M2090.59,214.62a2.23,2.23,0,0,1,2.15-1.39" transform="translate(-2036.04 -192.62)"/><path class="h" d="M2090.59,214.62a2.23,2.23,0,0,1,2.15-1.39l.06.12a1.94,1.94,0,0,1,.18,1.17,2.06,2.06,0,0,1-.47,1,2.32,2.32,0,0,1-1.23-.61,2.46,2.46,0,0,0-.28-.59,1.71,1.71,0,0,0-.21-.26l0,0c.21.18.29.07.12.14h0l-.05,0h0l.06-.05.11-.11a1.75,1.75,0,0,0,.37-.53,2.91,2.91,0,0,0,.25-1.35" transform="translate(-2036.04 -192.62)"/><path class="i" d="M2090.8,214.16s0-.06.15,0l.08,0h0a1,1,0,0,0,.24-.13,1.67,1.67,0,0,0,.34-.31,2.29,2.29,0,0,0,.41-.86" transform="translate(-2036.04 -192.62)"/><path class="i" d="M2090.83,214.31a1.82,1.82,0,0,1,1.69-.62,1.58,1.58,0,0,1-.06,1.21,1.86,1.86,0,0,1-.7.78" transform="translate(-2036.04 -192.62)"/><path class="d" d="M2090.48,214.6a3.15,3.15,0,0,0-.33-1.26,3.72,3.72,0,0,1,.33-1.32,3.52,3.52,0,0,1,.33,1.32A3.51,3.51,0,0,0,2090.48,214.6Z" transform="translate(-2036.04 -192.62)"/><path class="d" d="M2090.59,214.62a2.77,2.77,0,0,0,.22-1.28,3.19,3.19,0,0,1,.85-1.06,2.86,2.86,0,0,1-.25,1.34A2.65,2.65,0,0,0,2090.59,214.62Z" transform="translate(-2036.04 -192.62)"/><path class="e" d="M2090.3,213.32a.36.36,0,1,0,.35,0,3.57,3.57,0,0,0-.17-.7A3.6,3.6,0,0,0,2090.3,213.32Z" transform="translate(-2036.04 -192.62)"/><path class="e" d="M2091,213.38a3.33,3.33,0,0,1-.12.69,2.87,2.87,0,0,1,.44-.55,3.1,3.1,0,0,0,.12-.7A3.28,3.28,0,0,0,2091,213.38Z" transform="translate(-2036.04 -192.62)"/><path class="g" d="M2089.69,214.94a1.58,1.58,0,0,0,.79.21" transform="translate(-2036.04 -192.62)"/><path class="g" d="M2091.27,214.94a1.53,1.53,0,0,1-.79.21" transform="translate(-2036.04 -192.62)"/><path class="d" d="M2073.44,214.38a2.53,2.53,0,0,0-.81-1,2.89,2.89,0,0,1-.26-1.35,3.08,3.08,0,0,1,.85,1.07A2.93,2.93,0,0,0,2073.44,214.38Z" transform="translate(-2036.04 -192.62)"/><path class="e" d="M2072.75,213.29a2.54,2.54,0,0,1,.44.54,3.22,3.22,0,0,1-.12-.69,2.91,2.91,0,0,0-.45-.56A3.3,3.3,0,0,0,2072.75,213.29Z" transform="translate(-2036.04 -192.62)"/><path class="f" d="M2072.73,212.15a3.51,3.51,0,0,1,.42.59,5.59,5.59,0,0,1,.15-.71,3.45,3.45,0,0,0-.42-.63A4.15,4.15,0,0,0,2072.73,212.15Z" transform="translate(-2036.04 -192.62)"/><path class="f" d="M2073.81,212a5.59,5.59,0,0,1,.15.71,3.51,3.51,0,0,1,.42-.59,4.15,4.15,0,0,0-.15-.75A3.45,3.45,0,0,0,2073.81,212Z" transform="translate(-2036.04 -192.62)"/><path class="f" d="M2073.39,214.15a2.86,2.86,0,0,1,.15.5h0l0-.19a2.45,2.45,0,0,1,0-.34,3.32,3.32,0,0,0-.2-.66A3,3,0,0,0,2073.39,214.15Z" transform="translate(-2036.04 -192.62)"/><path class="f" d="M2073.61,214.13a2.45,2.45,0,0,1,0,.34,1.37,1.37,0,0,0,0,.19h0a2.86,2.86,0,0,1,.15-.5,3,3,0,0,0,.09-.68A3.32,3.32,0,0,0,2073.61,214.13Z" transform="translate(-2036.04 -192.62)"/><path class="g" d="M2073.16,214.12a2.69,2.69,0,0,0-.16.68,3.46,3.46,0,0,1-.49.53.69.69,0,1,1-.19-1.35,1.34,1.34,0,0,0,.69,0S2073.05,214.06,2073.16,214.12Z" transform="translate(-2036.04 -192.62)"/><path class="g" d="M2073.05,214a2.13,2.13,0,0,0-.36.59,2.13,2.13,0,0,1-.62.37,1.42,1.42,0,0,1-.39-1.35,1.75,1.75,0,0,1,.72,0,1.58,1.58,0,0,0,.61.33S2073,214,2073.05,214Z" transform="translate(-2036.04 -192.62)"/><path class="h" d="M2072.37,212a2.89,2.89,0,0,0,.26,1.35,1.8,1.8,0,0,0,.37.53c.05.06.23.19.16.14l0,0" transform="translate(-2036.04 -192.62)"/><path class="h" d="M2073.44,214.38a2.21,2.21,0,0,0-2.15-1.37" transform="translate(-2036.04 -192.62)"/><path class="h" d="M2073.44,214.38a2.21,2.21,0,0,0-2.15-1.37l-.06.12a2,2,0,0,0-.17,1.18,2.08,2.08,0,0,0,.48,1,2.25,2.25,0,0,0,1.22-.61,2.36,2.36,0,0,1,.28-.6,2.56,2.56,0,0,1,.2-.26c.05,0,0,0,0,0-.21.19-.3.08-.13.15h0l0,0c.07,0-.11-.08-.16-.14a1.8,1.8,0,0,1-.37-.53,2.89,2.89,0,0,1-.26-1.35" transform="translate(-2036.04 -192.62)"/><path class="i" d="M2073.24,213.92c-.06,0,0-.06-.15,0a.23.23,0,0,1-.08,0h0c.08,0-.12-.05-.24-.13a1.93,1.93,0,0,1-.33-.31,2.2,2.2,0,0,1-.43-.85" transform="translate(-2036.04 -192.62)"/><path class="i" d="M2073.21,214.07a1.81,1.81,0,0,0-1.7-.6,1.58,1.58,0,0,0,.08,1.21,1.89,1.89,0,0,0,.7.77" transform="translate(-2036.04 -192.62)"/><path class="g" d="M2074,214.12a3,3,0,0,1,.16.67,3.05,3.05,0,0,0,.49.53,1.62,1.62,0,0,0,.82-1,1.59,1.59,0,0,0-.64-.34,1.46,1.46,0,0,1-.69,0S2074.07,214.06,2074,214.12Z" transform="translate(-2036.04 -192.62)"/><path class="g" d="M2074.06,214a2,2,0,0,1,.36.59,2.58,2.58,0,0,0,.63.36,1.43,1.43,0,0,0,.38-1.35,1.63,1.63,0,0,0-.73,0,1.49,1.49,0,0,1-.6.34S2074.12,214,2074.06,214Z" transform="translate(-2036.04 -192.62)"/><path class="h" d="M2074.72,212a2.9,2.9,0,0,1-.24,1.35,2.19,2.19,0,0,1-.37.53l-.12.11-.06,0h0l.06,0" transform="translate(-2036.04 -192.62)"/><path class="h" d="M2073.67,214.37a2.22,2.22,0,0,1,2.14-1.38" transform="translate(-2036.04 -192.62)"/><path class="h" d="M2073.67,214.37a2.22,2.22,0,0,1,2.14-1.38l.06.12a1.94,1.94,0,0,1,.18,1.17,2,2,0,0,1-.47,1,2.27,2.27,0,0,1-1.23-.6,2.13,2.13,0,0,0-.28-.59,2.56,2.56,0,0,0-.2-.26s0,0,0,0c.22.18.29.07.13.14h0l-.06,0h0l.06,0,.12-.11a2.19,2.19,0,0,0,.37-.53,2.9,2.9,0,0,0,.24-1.35" transform="translate(-2036.04 -192.62)"/><path class="i" d="M2073.88,213.92s0-.06.15,0l.07,0h0a1.15,1.15,0,0,0,.25-.13,1.93,1.93,0,0,0,.33-.31,2.47,2.47,0,0,0,.42-.86" transform="translate(-2036.04 -192.62)"/><path class="i" d="M2073.9,214.07a1.83,1.83,0,0,1,1.69-.62,1.54,1.54,0,0,1-.06,1.21,1.79,1.79,0,0,1-.7.78" transform="translate(-2036.04 -192.62)"/><path class="d" d="M2073.56,214.36a3.51,3.51,0,0,0-.33-1.26,3.52,3.52,0,0,1,.33-1.32,3.7,3.7,0,0,1,.32,1.32A3.3,3.3,0,0,0,2073.56,214.36Z" transform="translate(-2036.04 -192.62)"/><path class="d" d="M2073.67,214.38a2.93,2.93,0,0,0,.22-1.28,3.08,3.08,0,0,1,.85-1.07,2.89,2.89,0,0,1-.26,1.35A2.53,2.53,0,0,0,2073.67,214.38Z" transform="translate(-2036.04 -192.62)"/><path class="e" d="M2073.37,213.08a3.16,3.16,0,0,1,.18.67,3.9,3.9,0,0,1,.18-.67.37.37,0,1,0-.36,0Z" transform="translate(-2036.04 -192.62)"/><path class="e" d="M2074,213.14a3.33,3.33,0,0,1-.12.69,3.93,3.93,0,0,1,.44-.55,3.1,3.1,0,0,0,.13-.7A2.91,2.91,0,0,0,2074,213.14Z" transform="translate(-2036.04 -192.62)"/><path class="g" d="M2072.76,214.7a1.59,1.59,0,0,0,.8.21" transform="translate(-2036.04 -192.62)"/><path class="g" d="M2074.35,214.7a1.58,1.58,0,0,1-.79.21" transform="translate(-2036.04 -192.62)"/><path class="d" d="M2064.67,215.83s0,0-.05-.09a2.43,2.43,0,0,0-.41-.5,2.55,2.55,0,0,1-.38-1.26,2.9,2.9,0,0,1,.7,1.11,3.43,3.43,0,0,0,.11.64l.05.15v0Z" transform="translate(-2036.04 -192.62)"/><path class="e" d="M2064.28,215.19a3.17,3.17,0,0,1,.37.58,3,3,0,0,1-.2-.66,3.4,3.4,0,0,0-.37-.59A2.38,2.38,0,0,0,2064.28,215.19Z" transform="translate(-2036.04 -192.62)"/><path class="f" d="M2064.11,214.12a3.1,3.1,0,0,1,.35.61,3.27,3.27,0,0,1,.08-.7,4.45,4.45,0,0,0-.35-.64A3.71,3.71,0,0,0,2064.11,214.12Z" transform="translate(-2036.04 -192.62)"/><path class="f" d="M2064.9,214a4.05,4.05,0,0,1,.07.7,3.7,3.7,0,0,1,.35-.61,4.62,4.62,0,0,0-.07-.73A3.1,3.1,0,0,0,2064.9,214Z" transform="translate(-2036.04 -192.62)"/><path class="f" d="M2064.7,215.89V216l0-.19a1.75,1.75,0,0,0-.08-.33s0,.2.06.34l0,.1h0Z" transform="translate(-2036.04 -192.62)"/><path class="f" d="M2064.72,216v0l0-.05h0l0-.1a1.61,1.61,0,0,0,.06-.34s-.05.19-.07.33A1,1,0,0,0,2064.72,216Z" transform="translate(-2036.04 -192.62)"/><path class="g" d="M2064.64,215.38a2.59,2.59,0,0,0-.23.64,2.49,2.49,0,0,1-.41.57,1.19,1.19,0,0,1-.61-.74,1.48,1.48,0,0,1,.65-.27,1.24,1.24,0,0,0,.34,0h0S2064.63,215.43,2064.64,215.38Z" transform="translate(-2036.04 -192.62)"/><path class="g" d="M2064.56,215.49h0a1,1,0,0,0-.13.16,2.24,2.24,0,0,0-.19.29,2.13,2.13,0,0,1-.56.41,1.11,1.11,0,0,1-.3-1,1.63,1.63,0,0,1,.7.07,1.26,1.26,0,0,0,.3.17l0,0h0S2064.45,215.59,2064.56,215.49Z" transform="translate(-2036.04 -192.62)"/><path class="h" d="M2063.83,214a2.55,2.55,0,0,0,.38,1.26,1.24,1.24,0,0,0,.19.26c.07.08.18.18.13.14l-.06,0" transform="translate(-2036.04 -192.62)"/><path class="h" d="M2064.67,215.83s0,0-.05-.09a2.43,2.43,0,0,0-.41-.5,1.91,1.91,0,0,0-1.25-.48" transform="translate(-2036.04 -192.62)"/><path class="h" d="M2064.67,215.83s0,0-.05-.09a2.43,2.43,0,0,0-.41-.5,1.91,1.91,0,0,0-1.25-.48l-.05.1a1.74,1.74,0,0,0,.26,1.83,2.23,2.23,0,0,0,1.11-.71,2.18,2.18,0,0,1,.31-.53l-.06.06c-.11.1-.16,0-.07.08h0l.06,0s-.06-.06-.13-.14a1.24,1.24,0,0,1-.19-.26,2.55,2.55,0,0,1-.38-1.26" transform="translate(-2036.04 -192.62)"/><path class="i" d="M2064.64,215.39a.48.48,0,0,1-.18.17c-.05,0-.06,0,0,0h0a1.33,1.33,0,0,1-.35-.25,2.05,2.05,0,0,1-.5-.78" transform="translate(-2036.04 -192.62)"/><path class="i" d="M2064.59,215.7l0,0-.08-.07a2.26,2.26,0,0,0-.37-.26,1.64,1.64,0,0,0-.91-.18,1.33,1.33,0,0,0,.06,1,1.49,1.49,0,0,0,.54.59" transform="translate(-2036.04 -192.62)"/><path class="g" d="M2064.79,215.38a2.62,2.62,0,0,1,.24.64,3.15,3.15,0,0,0,.41.57,1.19,1.19,0,0,0,.61-.75,1.58,1.58,0,0,0-.65-.27,1.16,1.16,0,0,1-.34,0h0S2064.81,215.44,2064.79,215.38Z" transform="translate(-2036.04 -192.62)"/><path class="g" d="M2064.88,215.49h0s.09.1.13.16a2.31,2.31,0,0,1,.19.28,2,2,0,0,0,.56.42,1.11,1.11,0,0,0,.29-1,1.63,1.63,0,0,0-.7.08,2.08,2.08,0,0,1-.3.17l-.05,0h0S2065,215.59,2064.88,215.49Z" transform="translate(-2036.04 -192.62)"/><path class="h" d="M2065.6,214a2.85,2.85,0,0,1-.37,1.27,1.64,1.64,0,0,1-.2.26.86.86,0,0,1-.13.14l.06,0" transform="translate(-2036.04 -192.62)"/><path class="h" d="M2064.76,215.83s0,0,0-.09a2.53,2.53,0,0,1,.42-.5,1.88,1.88,0,0,1,1.23-.5" transform="translate(-2036.04 -192.62)"/><path class="h" d="M2064.76,215.83s0,0,0-.09a2.53,2.53,0,0,1,.42-.5,1.88,1.88,0,0,1,1.23-.5l.06.11a1.7,1.7,0,0,1-.24,1.82,2.08,2.08,0,0,1-1.12-.7,3,3,0,0,0-.31-.52.1.1,0,0,0,.05.06c.12.1.16,0,.07.08h0l-.06,0a.86.86,0,0,0,.13-.14,1.64,1.64,0,0,0,.2-.26,2.85,2.85,0,0,0,.37-1.27" transform="translate(-2036.04 -192.62)"/><path class="i" d="M2064.8,215.39a.42.42,0,0,0,.18.17c.05,0,.05,0,0,0l0,0a2.42,2.42,0,0,0,.35-.26,2.32,2.32,0,0,0,.48-.78" transform="translate(-2036.04 -192.62)"/><path class="i" d="M2064.84,215.7l0,0,.09-.08a1.37,1.37,0,0,1,.37-.26,1.51,1.51,0,0,1,.9-.19,1.25,1.25,0,0,1,0,1,1.51,1.51,0,0,1-.53.6" transform="translate(-2036.04 -192.62)"/><path class="d" d="M2064.72,216h0s0-.2,0-.28a3.22,3.22,0,0,0-.15-.63,3.25,3.25,0,0,1,.18-1.3,3.44,3.44,0,0,1,.18,1.3,3.22,3.22,0,0,0-.15.63,1.78,1.78,0,0,0,0,.28Z" transform="translate(-2036.04 -192.62)"/><path class="d" d="M2064.76,215.83v0l.05-.15a2.77,2.77,0,0,0,.11-.64,2.93,2.93,0,0,1,.71-1.11,2.66,2.66,0,0,1-.38,1.26,2.86,2.86,0,0,0-.42.5C2064.76,215.82,2064.78,215.8,2064.76,215.83Z" transform="translate(-2036.04 -192.62)"/><path class="e" d="M2064.62,215.08a3.85,3.85,0,0,1,.1.68,3.72,3.72,0,0,1,.09-.68.35.35,0,1,0-.19,0Z" transform="translate(-2036.04 -192.62)"/><path class="e" d="M2065,215.11a3.1,3.1,0,0,1-.19.66,2.72,2.72,0,0,1,.37-.58,3.47,3.47,0,0,0,.19-.67A3.06,3.06,0,0,0,2065,215.11Z" transform="translate(-2036.04 -192.62)"/><path class="g" d="M2064.28,216a.82.82,0,0,0,.44.11" transform="translate(-2036.04 -192.62)"/><path class="g" d="M2065.16,216a.87.87,0,0,1-.44.11" transform="translate(-2036.04 -192.62)"/><path class="d" d="M2056.38,217.42l-.05-.09a2.43,2.43,0,0,0-.41-.5,2.56,2.56,0,0,1-.39-1.26,2.81,2.81,0,0,1,.71,1.11,3.43,3.43,0,0,0,.11.64l.05.15v0Z" transform="translate(-2036.04 -192.62)"/><path class="e" d="M2056,216.78a3.22,3.22,0,0,1,.38.58,2.52,2.52,0,0,1-.2-.66,3,3,0,0,0-.38-.59A2.76,2.76,0,0,0,2056,216.78Z" transform="translate(-2036.04 -192.62)"/><path class="f" d="M2055.82,215.71a3.7,3.7,0,0,1,.35.61,4.05,4.05,0,0,1,.07-.7,3.59,3.59,0,0,0-.34-.64A3.71,3.71,0,0,0,2055.82,215.71Z" transform="translate(-2036.04 -192.62)"/><path class="f" d="M2056.61,215.62a4.05,4.05,0,0,1,.07.7,3.7,3.7,0,0,1,.35-.61,4.62,4.62,0,0,0-.07-.73A3.1,3.1,0,0,0,2056.61,215.62Z" transform="translate(-2036.04 -192.62)"/><path class="f" d="M2056.4,217.48l0,.05v0l0-.19a3.22,3.22,0,0,0-.08-.33c0,.06,0,.2.06.34l0,.1h0Z" transform="translate(-2036.04 -192.62)"/><path class="f" d="M2056.43,217.57v0l0-.05h0l0-.1a1.61,1.61,0,0,0,.06-.34s-.05.19-.08.33S2056.43,217.54,2056.43,217.57Z" transform="translate(-2036.04 -192.62)"/><path class="g" d="M2056.35,217a2.52,2.52,0,0,0-.23.65,3.09,3.09,0,0,1-.41.56,1.19,1.19,0,0,1-.61-.74,1.48,1.48,0,0,1,.65-.27,1.24,1.24,0,0,0,.34,0h0S2056.33,217,2056.35,217Z" transform="translate(-2036.04 -192.62)"/><path class="g" d="M2056.27,217.08s0,0,0,0l-.13.16c-.08.11-.15.24-.18.29a2.31,2.31,0,0,1-.56.41,1.09,1.09,0,0,1-.3-1,1.63,1.63,0,0,1,.7.07,1.26,1.26,0,0,0,.3.17l0,0h0S2056.16,217.18,2056.27,217.08Z" transform="translate(-2036.04 -192.62)"/><path class="h" d="M2055.53,215.57a2.56,2.56,0,0,0,.39,1.26,1.24,1.24,0,0,0,.19.26c.07.08.18.18.13.14l-.06,0" transform="translate(-2036.04 -192.62)"/><path class="h" d="M2056.38,217.42l-.05-.09a2.43,2.43,0,0,0-.41-.5,1.91,1.91,0,0,0-1.25-.48" transform="translate(-2036.04 -192.62)"/><path class="h" d="M2056.38,217.42l-.05-.09a2.43,2.43,0,0,0-.41-.5,1.91,1.91,0,0,0-1.25-.48l-.05.1a1.7,1.7,0,0,0,.26,1.83,2.23,2.23,0,0,0,1.11-.71,2.18,2.18,0,0,1,.31-.53l-.06.06c-.11.1-.16,0-.07.08h0l.06,0c.05,0-.06-.06-.13-.14a1.24,1.24,0,0,1-.19-.26,2.56,2.56,0,0,1-.39-1.26" transform="translate(-2036.04 -192.62)"/><path class="i" d="M2056.35,217a.48.48,0,0,1-.18.17c-.06,0-.06,0,0,0h0a1.33,1.33,0,0,1-.35-.25,2.05,2.05,0,0,1-.5-.78" transform="translate(-2036.04 -192.62)"/><path class="i" d="M2056.3,217.29l0,0-.09-.07a1.83,1.83,0,0,0-.36-.26,1.64,1.64,0,0,0-.91-.18,1.28,1.28,0,0,0,.06,1,1.49,1.49,0,0,0,.54.59" transform="translate(-2036.04 -192.62)"/><path class="g" d="M2056.5,217a3.1,3.1,0,0,1,.24.64,2.73,2.73,0,0,0,.41.57,1.19,1.19,0,0,0,.61-.75,1.58,1.58,0,0,0-.65-.27,1.16,1.16,0,0,1-.34,0h-.05S2056.52,217,2056.5,217Z" transform="translate(-2036.04 -192.62)"/><path class="g" d="M2056.59,217.08h0s.09.1.13.16a2.31,2.31,0,0,1,.19.28,2,2,0,0,0,.56.42,1.11,1.11,0,0,0,.29-1,1.63,1.63,0,0,0-.7.08,2.08,2.08,0,0,1-.3.17l-.05,0h0S2056.7,217.18,2056.59,217.08Z" transform="translate(-2036.04 -192.62)"/><path class="h" d="M2057.31,215.56a2.73,2.73,0,0,1-.38,1.27,1.57,1.57,0,0,1-.19.26.86.86,0,0,1-.13.14l.06,0" transform="translate(-2036.04 -192.62)"/><path class="h" d="M2056.47,217.42l.05-.09a2.49,2.49,0,0,1,.41-.5,1.9,1.9,0,0,1,1.24-.5" transform="translate(-2036.04 -192.62)"/><path class="h" d="M2056.47,217.42l.05-.09a2.49,2.49,0,0,1,.41-.5,1.9,1.9,0,0,1,1.24-.5l.06.11a1.7,1.7,0,0,1-.24,1.82,2.08,2.08,0,0,1-1.12-.7,2.46,2.46,0,0,0-.32-.52.17.17,0,0,0,.06.06c.12.1.16,0,.07.08h0l-.06,0a.86.86,0,0,0,.13-.14,1.57,1.57,0,0,0,.19-.26,2.73,2.73,0,0,0,.38-1.27" transform="translate(-2036.04 -192.62)"/><path class="i" d="M2056.51,217a.42.42,0,0,0,.18.17s0,0,0,0l0,0a1.67,1.67,0,0,0,.35-.26,2.19,2.19,0,0,0,.49-.78" transform="translate(-2036.04 -192.62)"/><path class="i" d="M2056.55,217.29l0,0,.09-.08a1.5,1.5,0,0,1,.36-.26,1.56,1.56,0,0,1,.91-.19,1.25,1.25,0,0,1,0,1,1.45,1.45,0,0,1-.54.6" transform="translate(-2036.04 -192.62)"/><path class="d" d="M2056.43,217.6h0s0-.2,0-.28a2.65,2.65,0,0,0-.16-.63,3.45,3.45,0,0,1,.19-1.3,3.65,3.65,0,0,1,.18,1.3,3.23,3.23,0,0,0-.16.63c0,.08,0,.25,0,.28Z" transform="translate(-2036.04 -192.62)"/><path class="d" d="M2056.47,217.42v.05l.05-.15a2.77,2.77,0,0,0,.11-.64,2.93,2.93,0,0,1,.71-1.11,2.66,2.66,0,0,1-.38,1.26,2.86,2.86,0,0,0-.42.5Z" transform="translate(-2036.04 -192.62)"/><path class="e" d="M2056.33,216.67a5.06,5.06,0,0,1,.1.68,3,3,0,0,1,.09-.68.35.35,0,1,0-.19,0Z" transform="translate(-2036.04 -192.62)"/><path class="e" d="M2056.69,216.7a3.1,3.1,0,0,1-.19.66,3.13,3.13,0,0,1,.36-.58,2.89,2.89,0,0,0,.2-.67A2.64,2.64,0,0,0,2056.69,216.7Z" transform="translate(-2036.04 -192.62)"/><path class="g" d="M2056,217.57a.82.82,0,0,0,.44.11" transform="translate(-2036.04 -192.62)"/><path class="g" d="M2056.87,217.57a.87.87,0,0,1-.44.11" transform="translate(-2036.04 -192.62)"/><path class="d" d="M2099.39,215.26l-.06-.1a2.14,2.14,0,0,0-.41-.49,2.73,2.73,0,0,1-.38-1.27,3,3,0,0,1,.71,1.12,2.68,2.68,0,0,0,.11.63l0,.15h0Z" transform="translate(-2036.04 -192.62)"/><path class="e" d="M2099,214.62a2.87,2.87,0,0,1,.37.58,3.32,3.32,0,0,1-.2-.66,2.64,2.64,0,0,0-.37-.59A3,3,0,0,0,2099,214.62Z" transform="translate(-2036.04 -192.62)"/><path class="f" d="M2098.83,213.54a3.42,3.42,0,0,1,.35.62,2.85,2.85,0,0,1,.07-.71,4,4,0,0,0-.35-.64A3.11,3.11,0,0,0,2098.83,213.54Z" transform="translate(-2036.04 -192.62)"/><path class="f" d="M2099.61,213.45a.37.37,0,1,0,.42.09,3.75,3.75,0,0,0-.07-.73A3.38,3.38,0,0,0,2099.61,213.45Z" transform="translate(-2036.04 -192.62)"/><path class="f" d="M2099.41,215.31v.1l0-.19a2.16,2.16,0,0,0-.08-.34,2.93,2.93,0,0,0,.07.34l0,.1h0Z" transform="translate(-2036.04 -192.62)"/><path class="f" d="M2099.43,215.41v-.1h0l0-.1a2.93,2.93,0,0,0,.07-.34,2.16,2.16,0,0,0-.08.34A1.52,1.52,0,0,1,2099.43,215.41Z" transform="translate(-2036.04 -192.62)"/><path class="g" d="M2099.36,214.8a3.42,3.42,0,0,0-.24.65,3,3,0,0,1-.41.57,1.22,1.22,0,0,1-.61-.74,1.43,1.43,0,0,1,.65-.28,1.68,1.68,0,0,0,.34,0h0S2099.34,214.86,2099.36,214.8Z" transform="translate(-2036.04 -192.62)"/><path class="g" d="M2099.27,214.91s0,0,0,0l-.13.15a3.26,3.26,0,0,0-.19.29,2,2,0,0,1-.56.42,1.11,1.11,0,0,1-.3-1,1.52,1.52,0,0,1,.71.07,1.36,1.36,0,0,0,.29.16l0,0h0S2099.16,215,2099.27,214.91Z" transform="translate(-2036.04 -192.62)"/><path class="h" d="M2098.54,213.4a2.73,2.73,0,0,0,.38,1.27,2.48,2.48,0,0,0,.19.26c.07.08.18.18.13.13l0,0" transform="translate(-2036.04 -192.62)"/><path class="h" d="M2099.39,215.26l-.06-.1a2.14,2.14,0,0,0-.41-.49,1.84,1.84,0,0,0-1.24-.49" transform="translate(-2036.04 -192.62)"/><path class="h" d="M2099.39,215.26l-.06-.1a2.14,2.14,0,0,0-.41-.49,1.84,1.84,0,0,0-1.24-.49l-.06.11a1.71,1.71,0,0,0,.26,1.82,2.06,2.06,0,0,0,1.11-.71,2.23,2.23,0,0,1,.31-.52l-.05.06c-.12.1-.17,0-.08.08h0l0,0c.05.05-.06-.05-.13-.13a2.48,2.48,0,0,1-.19-.26,2.73,2.73,0,0,1-.38-1.27" transform="translate(-2036.04 -192.62)"/><path class="i" d="M2099.35,214.81a.44.44,0,0,1-.18.18c-.05,0-.05,0,0,0h0a1.18,1.18,0,0,1-.35-.26,2.23,2.23,0,0,1-.5-.77" transform="translate(-2036.04 -192.62)"/><path class="i" d="M2099.3,215.12l0,0-.08-.08a1.9,1.9,0,0,0-.37-.26,1.64,1.64,0,0,0-.91-.17,1.3,1.3,0,0,0,.06,1,1.36,1.36,0,0,0,.54.59" transform="translate(-2036.04 -192.62)"/><path class="g" d="M2099.5,214.8a2.54,2.54,0,0,1,.24.65,3.15,3.15,0,0,0,.42.56,1.2,1.2,0,0,0,.6-.75,1.46,1.46,0,0,0-.65-.26,1.68,1.68,0,0,1-.34,0h-.05S2099.53,214.86,2099.5,214.8Z" transform="translate(-2036.04 -192.62)"/><path class="g" d="M2099.59,214.92h0a1,1,0,0,1,.13.15,2.24,2.24,0,0,1,.19.29,2.31,2.31,0,0,0,.56.41,1.1,1.1,0,0,0,.29-1,1.63,1.63,0,0,0-.7.08,1,1,0,0,1-.29.17l-.06,0h0S2099.7,215,2099.59,214.92Z" transform="translate(-2036.04 -192.62)"/><path class="h" d="M2100.31,213.4a2.76,2.76,0,0,1-.37,1.27,2.48,2.48,0,0,1-.19.26l-.14.14.06,0" transform="translate(-2036.04 -192.62)"/><path class="h" d="M2099.47,215.26l.06-.1a2.14,2.14,0,0,1,.41-.49,1.83,1.83,0,0,1,1.23-.5" transform="translate(-2036.04 -192.62)"/><path class="h" d="M2099.47,215.26l.06-.1a2.14,2.14,0,0,1,.41-.49,1.83,1.83,0,0,1,1.23-.5l.06.1a1.71,1.71,0,0,1-.24,1.83,2.08,2.08,0,0,1-1.12-.7,2.23,2.23,0,0,0-.31-.52l.06.06c.11.1.16,0,.06.08h0l-.06,0,.14-.14a2.48,2.48,0,0,0,.19-.26,2.76,2.76,0,0,0,.37-1.27" transform="translate(-2036.04 -192.62)"/><path class="i" d="M2099.51,214.81a.51.51,0,0,0,.18.18s0,0,0,0h0a2,2,0,0,0,.35-.26,2.16,2.16,0,0,0,.49-.78" transform="translate(-2036.04 -192.62)"/><path class="i" d="M2099.56,215.12l0,0,.08-.08a1.64,1.64,0,0,1,.37-.26,1.61,1.61,0,0,1,.9-.19,1.28,1.28,0,0,1,0,1,1.35,1.35,0,0,1-.53.59" transform="translate(-2036.04 -192.62)"/><path class="d" d="M2099.43,215.44v0a2.05,2.05,0,0,0,0-.28,3.3,3.3,0,0,0-.15-.62,3.28,3.28,0,0,1,.18-1.31,3.46,3.46,0,0,1,.18,1.31,3.3,3.3,0,0,0-.15.62,2.05,2.05,0,0,0,0,.28Z" transform="translate(-2036.04 -192.62)"/><path class="d" d="M2099.47,215.26v0h0l0-.15a2.68,2.68,0,0,0,.11-.63,3,3,0,0,1,.71-1.12,2.73,2.73,0,0,1-.38,1.27,2.14,2.14,0,0,0-.41.49Z" transform="translate(-2036.04 -192.62)"/><path class="e" d="M2099.33,214.5a.35.35,0,1,0,.19,0,.35.35,0,1,0-.19,0Z" transform="translate(-2036.04 -192.62)"/><path class="e" d="M2099.69,214.54a3.28,3.28,0,0,1-.19.66,2.49,2.49,0,0,1,.37-.58,2.53,2.53,0,0,0,.19-.68A3.13,3.13,0,0,0,2099.69,214.54Z" transform="translate(-2036.04 -192.62)"/><path class="g" d="M2099,215.4a.86.86,0,0,0,.44.12" transform="translate(-2036.04 -192.62)"/><path class="g" d="M2099.87,215.4a.86.86,0,0,1-.44.12" transform="translate(-2036.04 -192.62)"/><path class="d" d="M2107.21,216.83s0,0-.05-.09a2.86,2.86,0,0,0-.42-.5,2.66,2.66,0,0,1-.38-1.26,2.81,2.81,0,0,1,.71,1.11,2.77,2.77,0,0,0,.11.64l.05.15v0Z" transform="translate(-2036.04 -192.62)"/><path class="e" d="M2106.81,216.19a2.72,2.72,0,0,1,.37.58,2.94,2.94,0,0,1-.19-.66,3.47,3.47,0,0,0-.38-.59A2.76,2.76,0,0,0,2106.81,216.19Z" transform="translate(-2036.04 -192.62)"/><path class="f" d="M2106.65,215.12a3.7,3.7,0,0,1,.35.61,4.05,4.05,0,0,1,.07-.7,3.1,3.1,0,0,0-.35-.64A4.62,4.62,0,0,0,2106.65,215.12Z" transform="translate(-2036.04 -192.62)"/><path class="f" d="M2107.44,215a4.05,4.05,0,0,1,.07.7,3.7,3.7,0,0,1,.35-.61,3.71,3.71,0,0,0-.08-.73A3.59,3.59,0,0,0,2107.44,215Z" transform="translate(-2036.04 -192.62)"/><path class="f" d="M2107.23,216.89l0,.05v0l0-.19a3.22,3.22,0,0,0-.08-.33,2.46,2.46,0,0,0,.06.34l0,.1h0Z" transform="translate(-2036.04 -192.62)"/><path class="f" d="M2107.26,217v0l0-.05h0l0-.1c0-.14,0-.28.06-.34a3.22,3.22,0,0,0-.08.33C2107.27,216.87,2107.26,217,2107.26,217Z" transform="translate(-2036.04 -192.62)"/><path class="g" d="M2107.18,216.38a2.52,2.52,0,0,0-.23.65,3.65,3.65,0,0,1-.41.56,1.21,1.21,0,0,1-.62-.74,1.58,1.58,0,0,1,.65-.27,1.25,1.25,0,0,0,.34,0h.05S2107.16,216.43,2107.18,216.38Z" transform="translate(-2036.04 -192.62)"/><path class="g" d="M2107.09,216.49h0s-.09.1-.13.16a2,2,0,0,0-.18.29,2.31,2.31,0,0,1-.56.41,1.09,1.09,0,0,1-.3-1,1.63,1.63,0,0,1,.7.07,1.08,1.08,0,0,0,.3.17l0,0h0S2107,216.59,2107.09,216.49Z" transform="translate(-2036.04 -192.62)"/><path class="h" d="M2106.36,215a2.66,2.66,0,0,0,.38,1.26,1.79,1.79,0,0,0,.2.26.91.91,0,0,0,.13.14l-.06,0" transform="translate(-2036.04 -192.62)"/><path class="h" d="M2107.21,216.83s0,0-.05-.09a2.86,2.86,0,0,0-.42-.5,1.87,1.87,0,0,0-1.24-.48" transform="translate(-2036.04 -192.62)"/><path class="h" d="M2107.21,216.83s0,0-.05-.09a2.86,2.86,0,0,0-.42-.5,1.87,1.87,0,0,0-1.24-.48l-.05.1a1.7,1.7,0,0,0,.26,1.83,2.23,2.23,0,0,0,1.11-.71,2.18,2.18,0,0,1,.31-.53l-.06.06c-.12.1-.16,0-.07.08h0l.06,0a.91.91,0,0,1-.13-.14,1.79,1.79,0,0,1-.2-.26,2.66,2.66,0,0,1-.38-1.26" transform="translate(-2036.04 -192.62)"/><path class="i" d="M2107.18,216.39a.56.56,0,0,1-.18.17c-.06,0-.06,0,0,0h0a1.77,1.77,0,0,1-.35-.25,2.16,2.16,0,0,1-.49-.78" transform="translate(-2036.04 -192.62)"/><path class="i" d="M2107.12,216.7v0l-.09-.07a1.64,1.64,0,0,0-.37-.26,1.61,1.61,0,0,0-.9-.18,1.24,1.24,0,0,0,.06,1,1.49,1.49,0,0,0,.54.59" transform="translate(-2036.04 -192.62)"/><path class="g" d="M2107.33,216.38a3.1,3.1,0,0,1,.24.64,2.73,2.73,0,0,0,.41.57,1.22,1.22,0,0,0,.61-.75,1.57,1.57,0,0,0-.66-.27,1.14,1.14,0,0,1-.34,0h0S2107.35,216.44,2107.33,216.38Z" transform="translate(-2036.04 -192.62)"/><path class="g" d="M2107.42,216.49h0s.09.1.13.16a1.35,1.35,0,0,1,.18.28,2,2,0,0,0,.57.42,1.11,1.11,0,0,0,.29-1,1.61,1.61,0,0,0-.7.08,2.87,2.87,0,0,1-.3.17l-.05,0h0S2107.53,216.59,2107.42,216.49Z" transform="translate(-2036.04 -192.62)"/><path class="h" d="M2108.14,215a2.73,2.73,0,0,1-.38,1.27,1.57,1.57,0,0,1-.19.26.86.86,0,0,1-.13.14l.06,0" transform="translate(-2036.04 -192.62)"/><path class="h" d="M2107.3,216.83s0,0,0-.09a2.19,2.19,0,0,1,.41-.5,1.9,1.9,0,0,1,1.24-.5" transform="translate(-2036.04 -192.62)"/><path class="h" d="M2107.3,216.83s0,0,0-.09a2.19,2.19,0,0,1,.41-.5,1.9,1.9,0,0,1,1.24-.5l.05.11a1.68,1.68,0,0,1-.24,1.82,2,2,0,0,1-1.11-.7,2.46,2.46,0,0,0-.32-.52.17.17,0,0,0,.06.06c.12.1.16,0,.07.08h0l-.06,0a.86.86,0,0,0,.13-.14,1.57,1.57,0,0,0,.19-.26,2.73,2.73,0,0,0,.38-1.27" transform="translate(-2036.04 -192.62)"/><path class="i" d="M2107.34,216.39a.46.46,0,0,0,.17.17c.06,0,.06,0,0,0l0,0a1.67,1.67,0,0,0,.35-.26,2.19,2.19,0,0,0,.49-.78" transform="translate(-2036.04 -192.62)"/><path class="i" d="M2107.38,216.7l0,0,.09-.08a1.5,1.5,0,0,1,.36-.26,1.56,1.56,0,0,1,.91-.19,1.3,1.3,0,0,1-.05,1,1.45,1.45,0,0,1-.54.6" transform="translate(-2036.04 -192.62)"/><path class="d" d="M2107.25,217h0s0-.2,0-.28a2.65,2.65,0,0,0-.16-.63,3.65,3.65,0,0,1,.18-1.3,3.45,3.45,0,0,1,.19,1.3,2.65,2.65,0,0,0-.16.63c0,.08,0,.25,0,.28Z" transform="translate(-2036.04 -192.62)"/><path class="d" d="M2107.3,216.83v0l0-.15a3.43,3.43,0,0,0,.11-.64,2.81,2.81,0,0,1,.71-1.11,2.66,2.66,0,0,1-.38,1.26,2.48,2.48,0,0,0-.42.5C2107.3,216.82,2107.32,216.8,2107.3,216.83Z" transform="translate(-2036.04 -192.62)"/><path class="e" d="M2107.16,216.08a3.84,3.84,0,0,1,.09.68,3.71,3.71,0,0,1,.1-.68.35.35,0,1,0-.19,0Z" transform="translate(-2036.04 -192.62)"/><path class="e" d="M2107.52,216.11a3.1,3.1,0,0,1-.19.66,3.13,3.13,0,0,1,.36-.58,2.89,2.89,0,0,0,.2-.67A2.64,2.64,0,0,0,2107.52,216.11Z" transform="translate(-2036.04 -192.62)"/><path class="g" d="M2106.82,217a.81.81,0,0,0,.43.11" transform="translate(-2036.04 -192.62)"/><path class="g" d="M2107.69,217a.82.82,0,0,1-.44.11" transform="translate(-2036.04 -192.62)"/><polygon class="e" points="46.34 28.66 46.66 29.75 47.56 29.05 47.18 30.13 48.31 30.09 47.38 30.74 48.31 31.38 47.18 31.35 47.56 32.42 46.66 31.73 46.34 32.82 46.01 31.73 45.11 32.42 45.49 31.35 44.35 31.38 45.29 30.74 44.35 30.09 45.49 30.13 45.11 29.05 46.01 29.75 46.34 28.66"/><circle class="e" cx="46.37" cy="27.66" r="0.12"/><circle class="e" cx="46.33" cy="28.48" r="0.16"/><circle class="e" cx="46.33" cy="28.08" r="0.12"/><path class="j" d="M2066.76,262.65c3.95.11,8.38,1,12.09-.81,3.18-1.5,8-11.94,11.49-8.76-1.07-1-2.66.6-1.59,1.59,3.75,3.44,7.63-3.68,2.72-5.51-3.42-1.28-6.38,2-8.25,4.42s-3.16,5.57-6.5,6.67c-3,1-6.85.24-10,.15-1.45,0-1.44,2.21,0,2.25Z" transform="translate(-2036.04 -192.62)"/><path class="j" d="M2069,263.1c5.93.17,12.1,1.36,16.61-3.1l-1.88-1.09c-2.22,6.32,10.7,4.42,13.42,3.73a1.13,1.13,0,0,0-.6-2.17c-.42.11-11.69,2-10.65-1,.39-1.1-1.12-1.85-1.88-1.1-3.54,3.49-10.34,2.57-15,2.44a1.13,1.13,0,0,0,0,2.25Z" transform="translate(-2036.04 -192.62)"/><path class="j" d="M2090.82,260.26c-.21.22-.42.44-.64.65l-.23.21-.13.11c.07-.05.08-.06,0,0a3.81,3.81,0,0,1-1.24.53,1.13,1.13,0,0,0,.6,2.17,6.83,6.83,0,0,0,1.78-.76,10,10,0,0,0,1.44-1.31c1-1-.58-2.63-1.59-1.59Z" transform="translate(-2036.04 -192.62)"/><path class="k" d="M2072.33,263.07c5.3.22,8.82.93,12.76-2.95l-1.88-1.1c-2.18,6.18,10.48,4.67,13.25,4,1.41-.34.81-2.51-.59-2.17-.48.12-11.51,1.66-10.49-1.23.38-1.09-1.12-1.84-1.88-1.09-3.11,3.07-7.24,2.46-11.17,2.29-1.45-.06-1.44,2.19,0,2.25Z" transform="translate(-2036.04 -192.62)"/><path class="k" d="M2090,260.09c-.22.22-.43.45-.65.66l-.22.21a.69.69,0,0,0-.13.11c.07-.05.07-.06,0,0a4.1,4.1,0,0,1-1.25.53,1.13,1.13,0,0,0,.6,2.17,6.69,6.69,0,0,0,1.78-.76,10.59,10.59,0,0,0,1.45-1.31c1-1-.58-2.64-1.59-1.6Z" transform="translate(-2036.04 -192.62)"/><path class="k" d="M2065.65,262.92c4.1,0,8.83,1,12.61-1.12,3-1.64,7.32-11.8,11-8.45-1.06-1-2.66.6-1.59,1.59,3.68,3.38,7.59-3.52,2.86-5.46-2.94-1.21-5.45,1-7.32,3.08-2.21,2.42-3.22,5.5-6.21,7.09-3.48,1.85-7.49,1-11.31,1a1.13,1.13,0,0,0,0,2.25Z" transform="translate(-2036.04 -192.62)"/><path class="k" d="M2087.26,252.61a2.93,2.93,0,0,1,1.85-.48c.81.06,1.12.31,1,1.16-.16,1.44,2.09,1.43,2.25,0,.39-3.43-4-4.24-6.27-2.62-1.17.83,0,2.78,1.14,1.94Z" transform="translate(-2036.04 -192.62)"/><path class="l" d="M2064.7,263.28c3.87,0,7.81.75,11.21-1.58a12,12,0,0,0,2.94-3.09,47.06,47.06,0,0,1,2.82-4c1.76-2,2.33-3.22,4.78-1-1.07-1-2.67.62-1.59,1.59,4.07,3.63,8.08-4.68,1.92-5.68-3.23-.53-5.88,2.37-7.68,4.71-1.94,2.51-3,5.45-6.37,6.56-2.51.83-5.44.26-8,.24a1.13,1.13,0,0,0,0,2.25Z" transform="translate(-2036.04 -192.62)"/><path class="l" d="M2084.35,252.61a3,3,0,0,1,1.86-.48c.81.06,1.12.31,1,1.16-.16,1.44,2.09,1.43,2.25,0,.39-3.43-4-4.24-6.26-2.62-1.18.83-.06,2.78,1.13,1.94Z" transform="translate(-2036.04 -192.62)"/><path class="l" d="M2095.31,261.41c-.48.11-11.51,1.66-10.49-1.23.39-1.1-1.12-1.84-1.88-1.09-3.15,3.1-7,2.09-10.87,1.87-1.44-.09-1.44,2.16,0,2.25,5.25.3,8.35,1.52,12.46-2.53l-1.88-1.1c-2.17,6.17,10.49,4.67,13.26,4,1.4-.34.81-2.52-.6-2.17Z" transform="translate(-2036.04 -192.62)"/><path class="l" d="M2090.41,261.91c.07.13.12.06.14-.2a1.13,1.13,0,0,0-1.59-1.6,3.76,3.76,0,0,1-2.41,1.23c-.9,0-1.75-.69-2.65-.82-1.41-.2-2,2-.6,2.17s2.41,1.05,3.78.86a6.64,6.64,0,0,0,3.47-1.84l-1.59-1.6a2.5,2.5,0,0,0-.14,3.39c.92,1.11,2.51-.49,1.59-1.59Z" transform="translate(-2036.04 -192.62)"/></svg>