<svg xmlns="http://www.w3.org/2000/svg" viewBox="0 0 105.95 137.53"><defs><style>.a{fill:#fff;}.b{fill:#4a494a;}.c,.d{fill:#d5af30;}.d{font-size:11px;font-family:Tetra;}</style></defs><title>LOGO_GRay_UNdertex</title><line class="a" x1="48.54" y1="29.57" x2="48.54" y2="116.77"/><path class="b" d="M1221.31,254c.21,7.26.31,14.53.39,21.79l.11,21.8-.11,21.8-.14,10.9-.25,10.9-.24-10.9-.14-10.9-.11-21.8.11-21.8C1221,268.53,1221.11,261.26,1221.31,254Z" transform="translate(-1172.77 -224.42)"/><path class="c" d="M1236.56,283.32v1.27h-2.36v9.46h-1.41v-9.46h-2.36v-1.27Z" transform="translate(-1172.77 -224.42)"/><path class="c" d="M1243.08,283.39v10.66h-1.26v-4.38h-3.37v4.38h-1.26V283.39h1.26v5h3.37v-5Z" transform="translate(-1172.77 -224.42)"/><path class="c" d="M1248.65,294.05l-2.44-3.75a3.29,3.29,0,0,1-.89.11l-.54,0V294h-1.25V283.37h1.79a3.53,3.53,0,0,1,2,6.37l2.41,3.67Zm-3.33-4.91a2.25,2.25,0,0,0,0-4.5,3.19,3.19,0,0,0-.54.06v4.38A2,2,0,0,0,1245.32,289.14Z" transform="translate(-1172.77 -224.42)"/><path class="c" d="M1259.89,288.72a4.92,4.92,0,1,1-4.89-5.32A5.13,5.13,0,0,1,1259.89,288.72Zm-1.34,0a3.58,3.58,0,1,0-3.55,4A3.78,3.78,0,0,0,1258.55,288.72Z" transform="translate(-1172.77 -224.42)"/><path class="c" d="M1265.52,294.05l-3.94-7.93v7.93h-1.27V283.39h1.26l3.94,7.9v-7.9h1.26v10.66Z" transform="translate(-1172.77 -224.42)"/><path class="c" d="M1268.6,290.8v2h3.47v1.27h-4.73V283.39h4.59v1.26h-3.33v4.88h3.47v1.27Z" transform="translate(-1172.77 -224.42)"/><path class="c" d="M1276,293.09c1.44-1.09,1.43-1.47,1.43-2v-.18c0-.48,0-1-1.78-1.65-2.52-.91-3-2.22-3-3.17a2.83,2.83,0,0,1,2.86-2.64,3.31,3.31,0,0,1,2.82,1.7l-1.11.59a2.07,2.07,0,0,0-1.71-1,1.6,1.6,0,0,0-1.61,1.41c0,.76.77,1.45,2.2,2,2.16.78,2.59,1.69,2.59,2.84,0,0,0,.1,0,.15,0,.93-.12,1.69-1.93,3.05Z" transform="translate(-1172.77 -224.42)"/><path class="c" d="M1185.46,293.69a4.74,4.74,0,0,1-3.35,1.41,5.35,5.35,0,0,1,0-10.68,4.8,4.8,0,0,1,3.88,2l-1,.91a3.45,3.45,0,0,0-2.86-1.57,4,4,0,0,0,0,7.95,3.51,3.51,0,0,0,2.77-1.43,3.33,3.33,0,0,0,.46-1.6h-1.9v-1.23h3.23A4.42,4.42,0,0,1,1185.46,293.69Z" transform="translate(-1172.77 -224.42)"/><path class="c" d="M1194,295.1h-1.34l-1.89-9-1.89,9h-1.27l2.23-10.66h1.87Zm-3.2-5.38.83,1.87-.85,1.48-.89-1.48Z" transform="translate(-1172.77 -224.42)"/><path class="c" d="M1199.1,291.6l-3.08-2.87v6.37h-1.27V284.44H1196l3.08,2.88,3-2.88h1.27v7l-.08-.16-.52-1.06-.58,1.06-.09.19v-2.69ZM1196,287l3.08,2.86,3-2.83v-.9l-3,2.85-3.08-2.88Zm6.2,6-.34-.56.34-.71.58-1.16.52,1.16.33.71-.33.56-.52.93Zm1.1.43.08-.14v1.72h-1.27v-1.75l.09.17.58.93Z" transform="translate(-1172.77 -224.42)"/><path class="c" d="M1205.44,291.85v2h3.5v1.27h-4.77V284.44h4.63v1.27h-3.36v4.87h3.5v1.27Z" transform="translate(-1172.77 -224.42)"/><path class="c" d="M1224.19,232.43c0,4.41-3.32,8-7.4,8a8,8,0,0,1,0-16C1220.87,224.45,1224.19,228,1224.19,232.43Zm-2,0a5.41,5.41,0,1,0-5.38,5.94A5.69,5.69,0,0,0,1222.17,232.43Zm-5.31-3.74,1.67,3.67-1.67,2.95-1.79-2.95Z" transform="translate(-1172.77 -224.42)"/><path class="c" d="M1232.11,224.42v1.91h-4.46v5.61h.93l-.51,1.05.51.85h-.93v6.57h-1.9v-16h6.36Zm-1,7.52.49,1.05-.49.85-.79,1.4-.83-1.4-.54-.85.51-1.05.86-1.74Z" transform="translate(-1172.77 -224.42)"/><path class="b" d="M1172.77,226c2,.94,3.93,1.94,5.89,2.92l5.62,3.36,11.25,6.71,11.26,6.72,5.62,3.35c1.79,1.27,3.6,2.49,5.37,3.79-2-1-3.92-2-5.88-2.93l-5.63-3.36L1195,239.84l-11.25-6.71-5.63-3.35C1176.35,228.52,1174.54,227.29,1172.77,226Z" transform="translate(-1172.77 -224.42)"/><line class="a" x1="102.12" y1="6.14" x2="51.89" y2="28.97"/><path class="b" d="M1274.89,230.56c-2,1.15-4.05,2.22-6.07,3.32l-6.28,2.85-12.56,5.7-12.55,5.71-6.28,2.86c-2.16.79-4.31,1.63-6.49,2.39,2-1.13,4-2.2,6.08-3.3l6.27-2.86,12.56-5.71,12.56-5.7,6.27-2.86C1270.56,232.16,1272.71,231.32,1274.89,230.56Z" transform="translate(-1172.77 -224.42)"/><line class="a" x1="103.12" y1="92.94" x2="52.89" y2="115.77"/><path class="b" d="M1275.89,317.36c-2,1.14-4.05,2.21-6.07,3.31l-6.28,2.85L1251,329.23l-12.55,5.71-6.28,2.85c-2.16.8-4.31,1.63-6.49,2.4,2-1.14,4-2.21,6.08-3.31L1238,334l12.56-5.71,12.56-5.71,6.27-2.86C1271.56,319,1273.71,318.12,1275.89,317.36Z" transform="translate(-1172.77 -224.42)"/><path class="b" d="M1172.77,312.71c2,.93,3.93,1.94,5.89,2.92l5.62,3.36,11.25,6.71,11.26,6.71,5.62,3.36c1.79,1.26,3.6,2.49,5.37,3.78-2-.94-3.92-1.95-5.88-2.92l-5.63-3.36L1195,326.56l-11.25-6.71-5.63-3.36C1176.35,315.23,1174.54,314,1172.77,312.71Z" transform="translate(-1172.77 -224.42)"/><text class="d" transform="translate(15.88 133.52)">THe card game</text><line class="a" x1="67.07" y1="137.15" x2="30.18" y2="137.15"/><path class="b" d="M1239.85,361.57c-1.54.16-3.08.26-4.61.38h-27.68c-1.53-.13-3.07-.23-4.61-.38,1.54-.15,3.08-.25,4.61-.37h27.68C1236.77,361.32,1238.31,361.41,1239.85,361.57Z" transform="translate(-1172.77 -224.42)"/></svg>