<svg xmlns="http://www.w3.org/2000/svg" viewBox="0 0 104.97 143.38"><defs><style>.a{fill:#fff;}.b{fill:#d5af30;}</style></defs><title>logo_whiote</title><path class="a" d="M1221.31,252c.21,9.56.31,19.13.39,28.7l.11,28.7-.11,28.7-.14,14.35-.25,14.35-.24-14.35-.14-14.35-.11-28.7.11-28.7C1221,271.13,1221.11,261.56,1221.31,252Z" transform="translate(-1171.77 -223.42)"/><path class="b" d="M1234.58,293.34v1.26h-2.36v9.46h-1.41V294.6h-2.36v-1.26Z" transform="translate(-1171.77 -223.42)"/><path class="b" d="M1241.1,293.4v10.66h-1.26v-4.38h-3.37v4.38h-1.26V293.4h1.26v5h3.37v-5Z" transform="translate(-1171.77 -223.42)"/><path class="b" d="M1246.67,304.06l-2.44-3.75a3.29,3.29,0,0,1-.89.11,4.45,4.45,0,0,1-.53,0V304h-1.26V293.38h1.79a3.53,3.53,0,0,1,2,6.38l2.41,3.66Zm-3.33-4.91a2.25,2.25,0,0,0,0-4.5,3,3,0,0,0-.53.06v4.38A1.84,1.84,0,0,0,1243.34,299.15Z" transform="translate(-1171.77 -223.42)"/><path class="b" d="M1257.91,298.74a4.92,4.92,0,1,1-4.89-5.33A5.12,5.12,0,0,1,1257.91,298.74Zm-1.33,0a3.58,3.58,0,1,0-3.56,4A3.78,3.78,0,0,0,1256.58,298.74Z" transform="translate(-1171.77 -223.42)"/><path class="b" d="M1263.54,304.06l-3.94-7.92v7.92h-1.27V293.4h1.26l3.94,7.9v-7.9h1.26v10.66Z" transform="translate(-1171.77 -223.42)"/><path class="b" d="M1266.62,300.81v2h3.47v1.27h-4.72V293.4H1270v1.27h-3.33v4.87h3.47v1.27Z" transform="translate(-1171.77 -223.42)"/><path class="b" d="M1274.06,303.1c1.44-1.08,1.43-1.47,1.43-2v-.18c0-.48,0-1-1.78-1.64-2.52-.92-3-2.23-3-3.17a2.83,2.83,0,0,1,2.86-2.65,3.33,3.33,0,0,1,2.83,1.7l-1.12.59a2.07,2.07,0,0,0-1.71-1,1.61,1.61,0,0,0-1.61,1.41c0,.76.77,1.46,2.2,2,2.16.77,2.59,1.68,2.59,2.83,0,0,0,.11,0,.15,0,.93-.12,1.69-1.93,3.05Z" transform="translate(-1171.77 -223.42)"/><path class="b" d="M1184.48,302.65a4.74,4.74,0,0,1-3.35,1.41,5.35,5.35,0,0,1,0-10.68,4.81,4.81,0,0,1,3.88,2l-1,.91a3.46,3.46,0,0,0-2.86-1.58,4,4,0,0,0,0,8,3.51,3.51,0,0,0,2.77-1.43,3.34,3.34,0,0,0,.46-1.61h-1.9v-1.22h3.23A4.42,4.42,0,0,1,1184.48,302.65Z" transform="translate(-1171.77 -223.42)"/><path class="b" d="M1193,304.06h-1.35l-1.88-9-1.89,9h-1.27l2.23-10.66h1.87Zm-3.2-5.39.83,1.88-.85,1.48-.9-1.48Z" transform="translate(-1171.77 -223.42)"/><path class="b" d="M1198.12,300.56l-3.08-2.88v6.38h-1.27V293.4H1195l3.08,2.88,3-2.88h1.27v7l-.08-.16-.53-1.07-.57,1.07-.09.19v-2.7ZM1195,296l3.08,2.86,3-2.83v-.9l-3,2.85L1195,295.1Zm6.2,6.05-.34-.56.34-.71.57-1.16.53,1.16.33.71-.33.56-.53.93Zm1.1.43.08-.14v1.72h-1.27v-1.75l.09.17.57.93Z" transform="translate(-1171.77 -223.42)"/><path class="b" d="M1204.46,300.81v2h3.5v1.27h-4.77V293.4h4.63v1.27h-3.36v4.87h3.5v1.27Z" transform="translate(-1171.77 -223.42)"/><path class="b" d="M1224.19,231.43c0,4.41-3.32,8-7.4,8a8,8,0,0,1,0-16C1220.87,223.45,1224.19,227,1224.19,231.43Zm-2,0a5.41,5.41,0,1,0-5.38,5.94A5.69,5.69,0,0,0,1222.17,231.43Zm-5.31-3.74,1.67,3.67-1.67,2.95-1.79-2.95Z" transform="translate(-1171.77 -223.42)"/><path class="b" d="M1232.11,223.42v1.91h-4.46v5.61h.93l-.51,1.05.51.85h-.93v6.57h-1.9v-16h6.36Zm-1,7.52.49,1.05-.49.85-.79,1.4-.83-1.4-.54-.85.51-1.05.86-1.74Z" transform="translate(-1171.77 -223.42)"/><path class="a" d="M1172.77,226c2,.94,3.93,1.94,5.89,2.92l5.62,3.36,11.25,6.71,11.26,6.72,5.62,3.35c1.79,1.27,3.6,2.49,5.37,3.79-2-1-3.92-2-5.88-2.93l-5.63-3.36L1195,239.84l-11.25-6.71-5.63-3.35C1176.35,228.52,1174.54,227.29,1172.77,226Z" transform="translate(-1171.77 -223.42)"/><line class="a" x1="103.13" y1="7.14" x2="52.9" y2="29.97"/><path class="a" d="M1274.9,230.56c-2,1.15-4.05,2.22-6.07,3.32l-6.28,2.85-12.56,5.7-12.55,5.71-6.28,2.86c-2.16.79-4.31,1.63-6.49,2.39,2-1.13,4-2.2,6.08-3.3l6.27-2.86,12.56-5.71,12.56-5.7,6.27-2.86C1270.57,232.16,1272.72,231.32,1274.9,230.56Z" transform="translate(-1171.77 -223.42)"/><line class="a" x1="102.13" y1="118.2" x2="51.9" y2="141.03"/><path class="a" d="M1273.9,341.63c-2,1.14-4.05,2.21-6.07,3.31l-6.28,2.85L1249,353.5l-12.55,5.7-6.28,2.86c-2.16.79-4.31,1.63-6.49,2.4,2-1.14,4-2.21,6.08-3.31l6.27-2.86,12.56-5.7,12.56-5.71,6.27-2.86C1269.57,343.22,1271.72,342.39,1273.9,341.63Z" transform="translate(-1171.77 -223.42)"/><path class="a" d="M1171.77,338.61c2,.94,3.93,1.94,5.89,2.92l5.62,3.36,11.25,6.71,11.26,6.71,5.62,3.36c1.79,1.26,3.6,2.49,5.37,3.79-2-.95-3.92-2-5.88-2.93l-5.63-3.36L1194,352.46l-11.25-6.71-5.63-3.35C1175.35,341.14,1173.54,339.91,1171.77,338.61Z" transform="translate(-1171.77 -223.42)"/></svg>